<svg width="43" height="42" viewBox="0 0 43 42" fill="none" xmlns="http://www.w3.org/2000/svg">
<path d="M42.2165 20.1803L40.462 19.0958V18.582L41.9685 17.174C42.0443 17.1014 42.1012 17.0115 42.1344 16.9121C42.1677 16.8127 42.1762 16.7067 42.1592 16.6032C42.1356 16.5051 42.0886 16.414 42.0222 16.3378C41.9558 16.2617 41.872 16.2026 41.7778 16.1656L39.8708 15.4426C39.7987 15.2849 39.7158 15.1323 39.6229 14.9859L40.8434 13.3115C40.8902 13.2203 40.9147 13.1192 40.9147 13.0166C40.9147 12.9141 40.8902 12.813 40.8434 12.7217C40.805 12.6271 40.7426 12.544 40.6624 12.4806C40.5821 12.4173 40.4868 12.3758 40.3857 12.3602L38.3451 12.0177C38.3451 11.8655 38.1926 11.7133 38.0972 11.561L38.9554 9.65833C39.0031 9.56498 39.0251 9.46061 39.019 9.35598C39.0129 9.25135 38.979 9.15022 38.9207 9.06301C38.8624 8.97581 38.7819 8.90567 38.6875 8.85981C38.593 8.81395 38.488 8.79404 38.3833 8.80211H36.3237L35.9804 8.40254L36.4571 6.38567C36.4842 6.28555 36.4843 6.18009 36.4575 6.07992C36.4307 5.97974 36.3779 5.88839 36.3044 5.81507C36.2309 5.74175 36.1393 5.68906 36.0389 5.66229C35.9385 5.63553 35.8328 5.63565 35.7325 5.66264L33.711 6.13832C33.5861 6.02025 33.4522 5.9121 33.3105 5.81486V3.7409C33.3155 3.63672 33.2935 3.53301 33.2468 3.43973C33.2 3.34644 33.13 3.26669 33.0435 3.20814C32.9536 3.15637 32.8517 3.12912 32.7479 3.12912C32.6441 3.12912 32.5422 3.15637 32.4523 3.20814L30.5453 4.06436L30.0876 3.81701L29.9159 1.81916C29.9003 1.71827 29.8587 1.62315 29.7952 1.54311C29.7317 1.46306 29.6484 1.40084 29.5536 1.36251C29.4621 1.31576 29.3608 1.29138 29.258 1.29138C29.1552 1.29138 29.0539 1.31576 28.9624 1.36251L27.2461 2.63733L26.7502 2.48511L26.0256 0.582403C25.9885 0.488464 25.9293 0.404826 25.8529 0.338581C25.7766 0.272336 25.6853 0.225437 25.5869 0.201861C25.4833 0.184963 25.377 0.193451 25.2774 0.226596C25.1777 0.25974 25.0876 0.316549 25.0148 0.392132L23.6036 1.89527H23.0887L22.0398 0.0496442C21.9847 -0.0367946 21.9086 -0.107962 21.8186 -0.157267C21.7286 -0.206572 21.6276 -0.232422 21.5249 -0.232422C21.4222 -0.232422 21.3212 -0.206572 21.2312 -0.157267C21.1412 -0.107962 21.0651 -0.0367946 21.01 0.0496442L19.923 1.80014H19.4081L17.9968 0.354078C17.9266 0.279606 17.8387 0.22398 17.7413 0.192332C17.6438 0.160683 17.54 0.154031 17.4392 0.172989C17.3385 0.191947 17.2442 0.235905 17.165 0.300807C17.0858 0.36571 17.0243 0.449466 16.9861 0.544349L16.2614 2.44706L15.8037 2.63733L14.0874 1.4196C14.0029 1.36022 13.9046 1.32325 13.8018 1.31215C13.699 1.30104 13.5951 1.31617 13.4998 1.35611C13.4045 1.39605 13.3209 1.4595 13.2569 1.54049C13.1929 1.62148 13.1506 1.71738 13.1339 1.81916L12.7906 3.85506L12.3329 4.10242L10.4258 3.2462C10.336 3.19443 10.234 3.16717 10.1302 3.16717C10.0265 3.16717 9.92453 3.19443 9.83465 3.2462C9.74814 3.30475 9.67816 3.38449 9.63141 3.47778C9.58466 3.57107 9.56271 3.67477 9.56767 3.77896V5.85291L9.16719 6.17637L7.26013 5.73875C7.15979 5.71176 7.05408 5.71164 6.95368 5.7384C6.85328 5.76516 6.76172 5.81786 6.68823 5.89118C6.61474 5.9645 6.56193 6.05585 6.5351 6.15603C6.50828 6.2562 6.5084 6.36166 6.53545 6.46178L7.01221 8.47865L6.68801 8.87822H4.60932C4.5049 8.87327 4.40096 8.89517 4.30746 8.94181C4.21396 8.98846 4.13403 9.05828 4.07535 9.1446C4.02346 9.23427 3.99614 9.33598 3.99614 9.43952C3.99614 9.54306 4.02346 9.64477 4.07535 9.73444L4.93352 11.6371L4.68561 12.0938L2.60691 12.3221C2.50579 12.3377 2.41045 12.3792 2.33023 12.4426C2.25 12.506 2.18763 12.589 2.14922 12.6836C2.10236 12.7749 2.07792 12.876 2.07792 12.9786C2.07792 13.0811 2.10236 13.1822 2.14922 13.2735L3.42695 14.9859C3.3649 15.1472 3.31393 15.3125 3.27438 15.4806L1.36733 16.2037C1.27318 16.2406 1.18935 16.2997 1.12295 16.3759C1.05655 16.4521 1.00955 16.5431 0.985918 16.6413C0.968981 16.7447 0.977489 16.8507 1.01071 16.9502C1.04393 17.0496 1.10087 17.1395 1.17662 17.2121L2.6832 18.6201V19.1338L0.928706 20.2184C0.84207 20.2734 0.770741 20.3493 0.721323 20.4391C0.671905 20.5289 0.645996 20.6297 0.645996 20.7321C0.645996 20.8346 0.671905 20.9353 0.721323 21.0251C0.770741 21.1149 0.84207 21.1909 0.928706 21.2458L2.6832 22.3304V22.8441L1.17662 24.2521C1.10087 24.3247 1.04393 24.4146 1.01071 24.5141C0.977489 24.6135 0.968981 24.7195 0.985918 24.8229C1.00955 24.9211 1.05655 25.0121 1.12295 25.0883C1.18935 25.1645 1.27318 25.2236 1.36733 25.2606L3.27438 25.9836C3.31393 26.1518 3.3649 26.317 3.42695 26.4783L2.20643 28.1527C2.15957 28.244 2.13514 28.345 2.13514 28.4476C2.13514 28.5501 2.15957 28.6512 2.20643 28.7425C2.24484 28.8371 2.30721 28.9202 2.38744 28.9836C2.46766 29.0469 2.563 29.0884 2.66413 29.104L4.70468 29.4465L4.95259 29.9032L4.09442 31.8059C4.04253 31.8955 4.01521 31.9973 4.01521 32.1008C4.01521 32.2043 4.04253 32.3061 4.09442 32.3957C4.1531 32.482 4.23303 32.5519 4.32653 32.5985C4.42003 32.6451 4.52397 32.667 4.62839 32.6621H6.70708C6.80454 32.8035 6.91294 32.9371 7.03128 33.0617L6.55452 35.0785C6.52747 35.1787 6.52735 35.2841 6.55417 35.3843C6.581 35.4845 6.63381 35.5758 6.7073 35.6491C6.78079 35.7225 6.87235 35.7752 6.97275 35.8019C7.07315 35.8287 7.17886 35.8286 7.2792 35.8016L9.30068 35.3259L9.70116 35.6494V37.7233C9.6962 37.8275 9.71815 37.9312 9.7649 38.0245C9.81165 38.1178 9.88164 38.1975 9.96815 38.2561C10.058 38.3078 10.16 38.3351 10.2637 38.3351C10.3675 38.3351 10.4695 38.3078 10.5593 38.2561L12.4664 37.3998L12.9241 37.6472L13.2674 39.6831C13.283 39.784 13.3246 39.8791 13.3881 39.9592C13.4516 40.0392 13.5349 40.1014 13.6297 40.1398C13.7212 40.1865 13.8225 40.2109 13.9253 40.2109C14.0281 40.2109 14.1294 40.1865 14.2209 40.1398L15.8037 38.7508L16.2996 38.903L17.0243 40.8057C17.0613 40.8996 17.1205 40.9833 17.1969 41.0495C17.2732 41.1158 17.3645 41.1627 17.4629 41.1862C17.5666 41.2031 17.6728 41.1947 17.7725 41.1615C17.8721 41.1284 17.9622 41.0716 18.035 40.996L19.4462 39.4928H19.9611L21.0481 41.2433C21.1033 41.3298 21.1793 41.4009 21.2693 41.4502C21.3593 41.4995 21.4604 41.5254 21.563 41.5254C21.6657 41.5254 21.7667 41.4995 21.8568 41.4502C21.9468 41.4009 22.0228 41.3298 22.0779 41.2433L23.165 39.4928H23.6799L25.0911 40.996C25.1639 41.0716 25.254 41.1284 25.3536 41.1615C25.4533 41.1947 25.5595 41.2031 25.6632 41.1862C25.7616 41.1627 25.8528 41.1158 25.9292 41.0495C26.0056 40.9833 26.0648 40.8996 26.1018 40.8057L26.8265 38.903L27.3223 38.7508L29.0006 39.9685C29.092 40.0153 29.1934 40.0396 29.2962 40.0396C29.3989 40.0396 29.5003 40.0153 29.5917 39.9685C29.6866 39.9302 29.7698 39.868 29.8333 39.7879C29.8969 39.7079 29.9385 39.6128 29.9541 39.5119L30.2974 37.476L30.7551 37.2286L32.6621 38.0848C32.752 38.1366 32.8539 38.1638 32.9577 38.1638C33.0615 38.1638 33.1634 38.1366 33.2533 38.0848C33.3398 38.0263 33.4098 37.9465 33.4565 37.8532C33.5033 37.76 33.5252 37.6562 33.5203 37.5521V35.4781C33.662 35.3809 33.7959 35.2727 33.9208 35.1547L35.9422 35.6303C36.0426 35.6573 36.1483 35.6574 36.2487 35.6307C36.3491 35.6039 36.4407 35.5512 36.5141 35.4779C36.5876 35.4046 36.6404 35.3132 36.6673 35.2131C36.6941 35.1129 36.694 35.0074 36.6669 34.9073L36.1902 32.8904L36.5334 32.4909H38.593C38.6978 32.4989 38.8028 32.479 38.8973 32.4332C38.9917 32.3873 39.0722 32.3172 39.1305 32.23C39.1888 32.1427 39.2227 32.0416 39.2288 31.937C39.2349 31.8324 39.2129 31.728 39.1652 31.6346L38.307 29.7319C38.4023 29.5797 38.4786 29.4275 38.5549 29.2753L40.5955 28.9328C40.6966 28.9172 40.7919 28.8757 40.8721 28.8123C40.9524 28.749 41.0147 28.6659 41.0531 28.5713C41.1 28.48 41.1244 28.3789 41.1244 28.2764C41.1244 28.1738 41.1 28.0727 41.0531 27.9814L39.6229 26.4022C39.6849 26.2409 39.7359 26.0756 39.7754 25.9075L41.6825 25.1844C41.7766 25.1475 41.8605 25.0884 41.9269 25.0122C41.9933 24.936 42.0403 24.845 42.0639 24.7468C42.0808 24.6434 42.0723 24.5374 42.0391 24.438C42.0059 24.3385 41.9489 24.2486 41.8732 24.176L40.3666 22.768V22.2543L42.1211 21.1697C42.2077 21.1147 42.2791 21.0388 42.3285 20.949C42.3779 20.8592 42.4038 20.7584 42.4038 20.656C42.4038 20.5536 42.3779 20.4528 42.3285 20.363C42.2791 20.2732 42.2077 20.1973 42.1211 20.1423L42.2165 20.1803ZM30.4309 34.7551C30.1071 34.687 29.8238 34.4933 29.6432 34.2168C29.4626 33.9402 29.3995 33.6034 29.4678 33.2805C29.5361 32.9575 29.7301 32.6748 30.0073 32.4946C30.2845 32.3144 30.6221 32.2515 30.9458 32.3196C31.2682 32.3925 31.549 32.589 31.7274 32.8667C31.9058 33.1444 31.9676 33.481 31.8993 33.8037C31.8676 33.9635 31.8042 34.1154 31.7127 34.2503C31.6212 34.3851 31.5035 34.5004 31.3666 34.5891C31.2297 34.6778 31.0763 34.7382 30.9156 34.7667C30.7549 34.7952 30.59 34.7913 30.4309 34.7551ZM29.8206 30.7213C29.6753 30.6908 29.5254 30.6892 29.3795 30.7167C29.2336 30.7442 29.0945 30.8002 28.9704 30.8816C28.8463 30.963 28.7396 31.068 28.6564 31.1907C28.5732 31.3135 28.5152 31.4514 28.4857 31.5966L27.8563 34.5077C25.8714 35.4245 23.7121 35.9046 21.5249 35.9157C19.2937 35.9142 17.0889 35.4341 15.06 34.5077L14.4307 31.5395C14.4036 31.3931 14.347 31.2536 14.2645 31.1296C14.182 31.0055 14.0751 30.8994 13.9504 30.8176C13.8257 30.7359 13.6857 30.6801 13.5388 30.6538C13.3919 30.6274 13.2412 30.631 13.0957 30.6643L10.5212 31.216C10.0404 30.7209 9.59431 30.1932 9.18626 29.6368H21.7156C21.8682 29.6368 21.9445 29.6368 21.9445 29.4846V25.0703C21.9445 24.9371 21.9445 24.9181 21.7156 24.9181H18.0541V22.1021H22.0207C22.6113 22.1124 23.1794 22.3297 23.6257 22.7158C24.0719 23.1019 24.3679 23.6322 24.4618 24.2141C24.6143 24.842 24.9576 26.8398 25.1864 27.4867C25.4153 28.1336 26.3879 29.6368 27.4177 29.6368H33.8826C33.4434 30.2204 32.9723 30.7794 32.4714 31.3112L29.8206 30.7213ZM12.4855 34.698C12.3263 34.7342 12.1615 34.7381 12.0007 34.7096C11.84 34.6811 11.6866 34.6207 11.5497 34.532C11.4128 34.4433 11.2951 34.3281 11.2036 34.1932C11.1121 34.0583 11.0487 33.9064 11.017 33.7466C10.9806 33.5867 10.9765 33.421 11.0048 33.2594C11.0332 33.0978 11.0935 32.9435 11.1823 32.8053C11.271 32.6672 11.3864 32.5481 11.5217 32.4549C11.6571 32.3617 11.8096 32.2963 11.9706 32.2625C12.2943 32.1944 12.6318 32.2574 12.909 32.4376C13.1862 32.6178 13.3802 32.9004 13.4485 33.2234C13.5168 33.5464 13.4537 33.8832 13.2731 34.1597C13.0925 34.4362 12.8092 34.6299 12.4855 34.698ZM7.73689 15.4616C7.83609 15.6851 7.8667 15.9328 7.82488 16.1736C7.78305 16.4144 7.67066 16.6375 7.50188 16.8146C7.33311 16.9917 7.11552 17.115 6.87659 17.1688C6.63766 17.2226 6.3881 17.2047 6.15941 17.1171C5.93072 17.0296 5.73316 16.8764 5.59166 16.6769C5.45016 16.4774 5.37107 16.2405 5.36437 15.9962C5.35768 15.7519 5.42368 15.5111 5.55404 15.3042C5.6844 15.0973 5.87327 14.9336 6.09683 14.8337C6.24538 14.7645 6.40639 14.7258 6.57024 14.7201C6.7341 14.7143 6.89743 14.7415 7.05051 14.8001C7.20358 14.8588 7.34325 14.9475 7.46118 15.0612C7.57911 15.1748 7.67288 15.311 7.73689 15.4616ZM6.26846 18.9245L8.95741 17.7258C9.09518 17.6661 9.21958 17.5795 9.32327 17.4711C9.42697 17.3627 9.50786 17.2347 9.56118 17.0946C9.6145 16.9545 9.63917 16.8052 9.63373 16.6555C9.6283 16.5057 9.59286 16.3586 9.52953 16.2227L8.97648 14.9859H11.1505V24.7659H6.7643C6.24544 22.8648 6.07743 20.8855 6.26846 18.9245ZM18.0541 17.9732V15.0811H23.2222C23.4892 15.0811 25.1292 15.3855 25.1292 16.6032C25.1292 17.821 23.8897 17.9732 22.8789 17.9732H18.0541ZM36.7813 20.5609C36.7813 20.9414 36.7813 21.3219 36.7813 21.7025H35.2557C35.0841 21.7025 35.0269 21.7976 35.0269 21.9498V22.5968C35.0269 24.2902 34.0733 24.6707 33.2342 24.7659C32.3951 24.861 31.5369 24.4234 31.4225 23.9287C31.3682 23.0834 31.1134 22.2631 30.679 21.5353C30.2447 20.8075 29.6433 20.1931 28.9243 19.7427C29.7668 19.3297 30.4945 18.7162 31.0433 17.9564C31.592 17.1965 31.9449 16.3136 32.0709 15.3855C32.038 14.5668 31.8011 13.7693 31.3816 13.065C30.962 12.3606 30.3731 11.7718 29.668 11.3517C28.6786 10.7163 27.5431 10.3431 26.3688 10.2672H10.0826C12.3454 7.77177 15.3673 6.08713 18.6834 5.47237L20.5904 7.48924C20.6967 7.59567 20.8231 7.68012 20.9621 7.73774C21.1012 7.79536 21.2503 7.82502 21.4009 7.82502C21.5515 7.82502 21.7007 7.79536 21.8397 7.73774C21.9788 7.68012 22.1051 7.59567 22.2114 7.48924L24.3473 5.47237C26.5421 5.885 28.6206 6.76929 30.4384 8.06385C32.2563 9.35841 33.7699 11.0322 34.8743 12.969L33.4059 16.2798C33.3425 16.4156 33.3071 16.5628 33.3017 16.7125C33.2962 16.8623 33.3209 17.0116 33.3742 17.1517C33.4275 17.2918 33.5084 17.4198 33.6121 17.5282C33.7158 17.6366 33.8402 17.7232 33.978 17.7829L36.8004 19.0387C36.8232 19.546 36.8168 20.0543 36.7813 20.5609ZM20.5142 3.81701C20.7499 3.58347 21.0687 3.4524 21.4009 3.4524C21.7332 3.4524 22.0519 3.58347 22.2877 3.81701C22.403 3.93188 22.4945 4.06831 22.557 4.2185C22.6194 4.36868 22.6515 4.52967 22.6515 4.69226C22.6515 4.85484 22.6194 5.01583 22.557 5.16602C22.4945 5.3162 22.403 5.45263 22.2877 5.5675C22.0519 5.80105 21.7332 5.93211 21.4009 5.93211C21.0687 5.93211 20.7499 5.80105 20.5142 5.5675C20.4037 5.4477 20.318 5.30732 20.2621 5.15442C20.2061 5.00151 20.1809 4.83908 20.188 4.67646C20.1951 4.51383 20.2343 4.35419 20.3034 4.20671C20.3724 4.05923 20.47 3.92679 20.5904 3.81701H20.5142ZM35.1031 15.5187C35.1777 15.3732 35.2804 15.2439 35.4053 15.1383C35.5302 15.0327 35.6749 14.9528 35.8309 14.9033C35.987 14.8537 36.1513 14.8355 36.3144 14.8497C36.4776 14.8639 36.6362 14.9102 36.7813 14.9859C37.0049 15.0858 37.1938 15.2495 37.3241 15.4565C37.4545 15.6634 37.5205 15.9042 37.5138 16.1485C37.5071 16.3928 37.428 16.6296 37.2865 16.8291C37.145 17.0286 36.9474 17.1818 36.7188 17.2693C36.4901 17.3569 36.2405 17.3749 36.0016 17.321C35.7626 17.2672 35.5451 17.1439 35.3763 16.9668C35.2075 16.7897 35.0951 16.5666 35.0533 16.3258C35.0115 16.085 35.0421 15.8373 35.1413 15.6138L35.1031 15.5187Z" fill="#FBFBFC"/>
</svg>
