<svg width="43" height="42" viewBox="0 0 43 42" fill="none" xmlns="http://www.w3.org/2000/svg">
<g clip-path="url(#clip0_1309_3580)">
<path d="M21.0021 0.000320873C19.2988 0.00838965 17.6729 0.153224 16.2415 0.406584C12.0256 1.15133 11.2607 2.71022 11.2607 5.58553V9.38229H21.2228V10.6479H7.52158C4.62651 10.6479 2.0913 12.3879 1.29814 15.6993C0.383141 19.4937 0.342797 21.8619 1.29814 25.824C2.00617 28.7736 3.69739 30.8747 6.59287 30.8747H10.0185V26.3231C10.0185 23.0346 12.8631 20.1343 16.2419 20.1343H26.1927C28.9627 20.1343 31.1736 17.8533 31.1736 15.072V5.58593C31.1736 2.88571 28.8958 0.857628 26.1927 0.406987C24.4805 0.122159 22.705 -0.00734446 21.0021 0.000320873ZM15.6146 3.05395C16.6433 3.05395 17.4841 3.90803 17.4841 4.95858C17.4841 6.0047 16.6437 6.85071 15.6146 6.85071C14.5818 6.85071 13.7454 6.0047 13.7454 4.95858C13.745 3.90803 14.5818 3.05395 15.6146 3.05395Z" fill="#FBFBFC"/>
<path opacity="0.5" d="M32.4168 10.6471V15.0712C32.4168 18.5004 29.5088 21.387 26.1934 21.387H16.2426C13.5169 21.387 11.2617 23.7201 11.2617 26.4498V35.9366C11.2617 38.636 13.6089 40.2244 16.2426 40.9986C19.3958 41.9253 22.42 42.0931 26.1934 40.9986C28.7012 40.272 31.1742 38.8107 31.1742 35.9366V32.1395H21.2238V30.8735H36.1559C39.051 30.8735 40.1306 28.8543 41.1376 25.8228C42.1776 22.7022 42.1328 19.701 41.1376 15.6981C40.4219 12.8156 39.0554 10.6467 36.1559 10.6467H32.4168V10.6471ZM26.8199 34.6706C27.8531 34.6706 28.6895 35.5166 28.6895 36.5636C28.6895 37.6133 27.8527 38.4674 26.8199 38.4674C25.7912 38.4674 24.9508 37.6133 24.9508 36.5636C24.9508 35.5166 25.7912 34.6706 26.8199 34.6706Z" fill="#FBFBFC"/>
</g>
<defs>
<clipPath id="clip0_1309_3580">
<rect x="0.59668" width="41.7578" height="41.7578" rx="7.01006" fill="white"/>
</clipPath>
</defs>
</svg>
