<svg width="43" height="42" viewBox="0 0 43 42" fill="none" xmlns="http://www.w3.org/2000/svg">
<path fill-rule="evenodd" clip-rule="evenodd" d="M16.8962 0H25.4212C33.2542 0 37.1708 0 39.6042 2.43342C42.0376 4.86684 42.0376 8.78337 42.0376 16.6164V25.1414C42.0376 32.9744 42.0376 36.891 39.6042 39.3244C37.1708 41.7578 33.2542 41.7578 25.4212 41.7578H16.8962C9.06316 41.7578 5.14663 41.7578 2.71321 39.3244C0.279785 36.891 0.279785 32.9744 0.279785 25.1414V16.6164C0.279785 8.78337 0.279785 4.86684 2.71321 2.43342C5.14663 0 9.06316 0 16.8962 0ZM32.2008 35.0045C30.2654 35.0045 29.171 33.9951 28.3299 32.6217L25.1411 34.4743C26.2931 36.7504 28.6474 38.487 32.2916 38.487C36.0187 38.487 38.7939 36.5516 38.7939 33.0187C38.7939 29.7417 36.9115 28.2842 33.5775 26.8545L32.5965 26.4342C30.9129 25.7051 30.1838 25.2286 30.1838 24.0514C30.1838 23.0989 30.9123 22.3698 32.0616 22.3698C33.1884 22.3698 33.9142 22.8451 34.587 24.0514L37.6426 22.0894C36.3501 19.816 34.5565 18.9477 32.0616 18.9477C28.5573 18.9477 26.3149 21.188 26.3149 24.1309C26.3149 27.3257 28.196 28.837 31.0276 30.0433L32.0086 30.4642C33.7982 31.247 34.8654 31.7236 34.8654 33.0691C34.8654 34.1919 33.8267 35.0045 32.2008 35.0045ZM16.9937 34.98C15.6455 34.98 15.0847 34.0554 14.4683 32.9617L11.2742 34.8955C12.1995 36.8538 14.0189 38.4797 17.1607 38.4797C20.6379 38.4797 23.0201 36.6304 23.0201 32.5673V19.1717H19.0961V32.5143C19.0961 34.4756 18.2829 34.98 16.9937 34.98Z" fill="#FBFBFC"/>
</svg>
