<svg width="42" height="29" viewBox="0 0 42 29" fill="none" xmlns="http://www.w3.org/2000/svg">
<path d="M35.5408 10.753C35.3338 9.21884 34.4815 7.90387 32.9352 6.69847L32.0464 6.10186L31.4497 6.99069C30.6948 8.1352 30.3052 9.73022 30.427 11.2522C30.4879 11.7879 30.6583 12.7498 31.2062 13.5899C30.6583 13.8821 29.5747 14.2961 28.1258 14.2718H0.486932L0.438229 14.5883C0.18254 16.1225 0.18254 20.8953 3.28734 24.5724C5.64943 27.3606 9.18038 28.7852 13.8072 28.7852C23.8156 28.7852 31.2184 24.1828 34.6885 15.8059C36.0522 15.8302 38.9865 15.8181 40.4963 12.9324C40.5328 12.8716 40.6302 12.6889 40.8859 12.1532L41.032 11.8488L40.1797 11.2765C39.2665 10.6677 37.1601 10.4486 35.5408 10.753ZM22.598 0.525391H18.3974V4.34856H22.598V0.525391ZM22.598 5.11563H18.3974V8.92662H22.598V5.11563ZM17.6303 5.11563H13.4297V8.92662H17.6303V5.11563ZM12.6626 5.11563H8.46202V8.92662H12.6626V5.11563ZM7.69495 9.69369H3.49433V13.5169H7.69495V9.69369ZM12.6626 9.69369H8.46202V13.5169H12.6626V9.69369ZM17.6303 9.69369H13.4297V13.5169H17.6303V9.69369ZM22.598 9.69369H18.3974V13.5169H22.598V9.69369ZM27.5657 9.69369H23.3651V13.5169H27.5657V9.69369Z" fill="#FBFBFC"/>
</svg>
