<svg width="43" height="42" viewBox="0 0 43 42" fill="none" xmlns="http://www.w3.org/2000/svg">
<g clip-path="url(#clip0_1309_3584)">
<path d="M4.67088 16.9439C4.59082 16.9439 4.57081 16.8982 4.61083 16.8296L5.03114 16.212C5.07117 16.1434 5.17124 16.0977 5.2513 16.0977H12.3965C12.4766 16.0977 12.4966 16.1663 12.4566 16.2349L12.1163 16.8296C12.0763 16.8982 11.9762 16.9668 11.9162 16.9668L4.67088 16.9439Z" fill="#FBFBFC"/>
<path d="M1.6533 19.0457C1.57324 19.0457 1.55323 18.9999 1.59326 18.9313L2.01356 18.3138C2.05359 18.2451 2.15367 18.1994 2.23372 18.1994H11.3604C11.4405 18.1994 11.4805 18.268 11.4605 18.3366L11.3004 18.8856C11.2803 18.9771 11.2003 19.0228 11.1202 19.0228L1.6533 19.0457Z" fill="#FBFBFC"/>
<path d="M6.49119 21.149C6.41113 21.149 6.39112 21.0804 6.43115 21.0118L6.71135 20.44C6.75138 20.3714 6.83144 20.3027 6.9115 20.3027H10.9144C10.9945 20.3027 11.0345 20.3714 11.0345 20.4628L10.9945 21.0118C10.9945 21.1033 10.9144 21.1719 10.8544 21.1719L6.49119 21.149Z" fill="#FBFBFC"/>
<path d="M27.2615 16.5295C26.0005 16.8955 25.1399 17.1699 23.899 17.5359C23.5988 17.6274 23.5788 17.6503 23.3186 17.3072C23.0184 16.9184 22.7982 16.6668 22.3779 16.438C21.117 15.729 19.8961 15.9348 18.7552 16.7811C17.3942 17.7875 16.6937 19.2742 16.7137 21.1269C16.7338 22.9567 17.8346 24.4663 19.4157 24.7179C20.7767 24.9237 21.9175 24.3748 22.8182 23.2083C22.9983 22.9567 23.1585 22.6822 23.3586 22.362C22.6381 22.362 21.7374 22.362 19.4958 22.362C19.0755 22.362 18.9754 22.0647 19.1155 21.6758C19.3757 20.9668 19.856 19.7774 20.1362 19.1827C20.1963 19.0455 20.3364 18.8168 20.6366 18.8168C21.6574 18.8168 25.4201 18.8168 27.9219 18.8168C27.8819 19.4343 27.8819 20.0519 27.8019 20.6694C27.5817 22.3163 27.0413 23.8258 26.1607 25.1525C24.7196 27.3253 22.8382 28.6748 20.4565 29.0408C18.495 29.3381 16.6737 28.9035 15.0725 27.5312C13.5915 26.2503 12.7508 24.5578 12.5307 22.4535C12.2705 19.9604 12.911 17.7189 14.2319 15.7519C15.653 13.6247 17.5343 12.2752 19.836 11.7949C21.7174 11.4061 23.5187 11.6577 25.1399 12.9157C26.2007 13.7162 26.9612 14.8141 27.4616 16.1407C27.5817 16.3465 27.5016 16.4609 27.2615 16.5295Z" fill="#FBFBFC"/>
<path d="M33.8911 29.1791C32.0697 29.1334 30.4085 28.5387 29.0075 27.1663C27.8266 25.9998 27.0861 24.5131 26.8459 22.7519C26.4857 20.1673 27.1061 17.8801 28.4671 15.8444C29.9282 13.6487 31.6895 12.5051 34.0712 12.0247C36.1127 11.613 38.0341 11.8418 39.7754 13.1912C41.3565 14.4263 42.3372 16.096 42.5974 18.2918C42.9377 21.3796 42.1571 23.8956 40.2957 26.0456C38.9748 27.578 37.3536 28.5387 35.4922 28.9733C34.9518 29.0876 34.4114 29.1105 33.8911 29.1791ZM38.6545 19.9386C38.6345 19.6413 38.6345 19.4126 38.5945 19.1838C38.2342 16.9194 36.4129 15.6386 34.5115 16.1418C32.6502 16.6221 31.4493 17.9716 31.009 20.1216C30.6487 21.9057 31.4093 23.7126 32.8503 24.4445C33.9511 24.9934 35.0519 24.9248 36.1127 24.3073C37.6938 23.3695 38.5545 21.9057 38.6545 19.9386Z" fill="#FBFBFC"/>
</g>
<defs>
<clipPath id="clip0_1309_3584">
<rect x="0.913086" width="41.7578" height="41.7578" rx="5.53881" fill="white"/>
</clipPath>
</defs>
</svg>
