<svg width="40" height="36" viewBox="0 0 40 36" fill="none" xmlns="http://www.w3.org/2000/svg">
<path fill-rule="evenodd" clip-rule="evenodd" d="M38.2633 0.00472C25.1979 0.00472 20 5.625 20 5.625C20 5.625 14.8897 0.00144459 1.73667 0.00144459C1.51198 -0.00783284 1.2877 0.0276498 1.07734 0.105755C0.866986 0.18386 0.674895 0.302973 0.512639 0.45592C0.350384 0.608868 0.221321 0.792485 0.13322 0.995719C0.0451191 1.19895 -0.000197148 1.4176 6.44694e-07 1.63848V27.8311C-0.000343411 28.2542 0.16607 28.6609 0.464355 28.9661C0.762639 29.2713 1.16963 29.4513 1.6 29.4682C8.32218 29.4525 14.8357 31.7601 20 35.9869C25.1647 31.7613 31.6782 29.4548 38.4 29.4714C38.8304 29.4545 39.2374 29.2746 39.5356 28.9694C39.8339 28.6642 40.0003 28.2575 40 27.8344V1.64176C40.0002 1.42087 39.9549 1.20223 39.8668 0.998994C39.7787 0.795761 39.6496 0.61214 39.4874 0.459193C39.3251 0.306245 39.133 0.187135 38.9227 0.10903C38.7123 0.0309252 38.488 -0.00455744 38.2633 0.00472ZM25.1503 4.6639C27.7456 3.42048 31.8849 2.11347 37.9056 2.06348V27.4172C31.4389 27.5044 25.1752 29.5933 20.0002 33.37L19.9863 8.69934C21.4768 6.97446 23.0695 5.66088 25.1503 4.6639Z" fill="#0E061A"/>
</svg>
