<svg width="38" height="38" viewBox="0 0 38 38" fill="none" xmlns="http://www.w3.org/2000/svg">
<path d="M1.99529 19.3335C1.81114 19.1493 1.81114 18.8508 1.99529 18.6666L7.99696 12.6649C8.18111 12.4808 8.47967 12.4808 8.66382 12.6649L14.6655 18.6666C14.8496 18.8508 14.8496 19.1493 14.6655 19.3335L8.66382 25.3351C8.47967 25.5193 8.18111 25.5193 7.99696 25.3351L1.99529 19.3335Z" stroke="#605DE9" stroke-width="3"/>
<path d="M12.6649 30.0031C12.4808 29.819 12.4808 29.5204 12.6649 29.3363L18.6666 23.3346C18.8508 23.1504 19.1493 23.1504 19.3335 23.3346L25.3351 29.3363C25.5193 29.5204 25.5193 29.819 25.3351 30.0031L19.3335 36.0048C19.1493 36.1889 18.8508 36.1889 18.6666 36.0048L12.6649 30.0031Z" stroke="#605DE9" stroke-width="3"/>
<path d="M12.6649 8.66382C12.4808 8.47967 12.4808 8.18111 12.6649 7.99696L18.6666 1.99529C18.8508 1.81114 19.1493 1.81114 19.3335 1.99529L25.3351 7.99696C25.5193 8.18111 25.5193 8.47967 25.3351 8.66382L19.3335 14.6655C19.1493 14.8496 18.8508 14.8496 18.6666 14.6655L12.6649 8.66382Z" stroke="#605DE9" stroke-width="3"/>
<path d="M23.3346 19.3335C23.1504 19.1493 23.1504 18.8508 23.3346 18.6666L29.3363 12.6649C29.5204 12.4808 29.819 12.4808 30.0031 12.6649L36.0048 18.6666C36.1889 18.8508 36.1889 19.1493 36.0048 19.3335L30.0031 25.3351C29.819 25.5193 29.5204 25.5193 29.3363 25.3351L23.3346 19.3335Z" stroke="#605DE9" stroke-width="3"/>
</svg>
