<svg width="44" height="34" viewBox="0 0 44 34" fill="none" xmlns="http://www.w3.org/2000/svg">
<g clip-path="url(#clip0_630_4522)">
<path d="M12.0001 5.28003C9.14325 5.27918 6.37986 6.29755 4.20679 8.15202C2.03371 10.0065 0.593523 12.5754 0.145184 15.3968C-0.303154 18.2182 0.269775 21.107 1.76095 23.5437C3.25212 25.9805 5.56371 27.8053 8.28005 28.69H8.57005C8.71154 28.6988 8.85327 28.6774 8.98585 28.6272C9.11844 28.5771 9.23884 28.4993 9.33908 28.3991C9.43931 28.2988 9.5171 28.1784 9.56726 28.0458C9.61743 27.9132 9.63883 27.7715 9.63005 27.63V27.42C9.63005 27.25 9.63005 27.02 9.63005 26.33C9.62024 26.2645 9.5975 26.2016 9.56317 26.145C9.52884 26.0883 9.48359 26.039 9.43005 26C9.37196 25.953 9.30408 25.9197 9.2314 25.9024C9.15872 25.8851 9.08308 25.8843 9.01005 25.9C6.33005 26.48 5.76005 24.8 5.72005 24.69C5.38446 23.8011 4.78408 23.0367 4.00005 22.5C3.95308 22.4594 3.90292 22.4226 3.85005 22.39C3.96626 22.3275 4.09918 22.303 4.23005 22.32C4.48139 22.355 4.7194 22.4544 4.92093 22.6086C5.12245 22.7628 5.28062 22.9666 5.38005 23.2C5.7669 23.8736 6.39993 24.3709 7.14596 24.5872C7.89199 24.8036 8.69285 24.7221 9.38005 24.36C9.4538 24.3278 9.51867 24.2782 9.56915 24.2156C9.61964 24.1529 9.65426 24.0789 9.67005 24C9.70834 23.5375 9.90632 23.1026 10.2301 22.77C10.3019 22.7062 10.3539 22.623 10.3797 22.5304C10.4055 22.4378 10.4041 22.3398 10.3756 22.248C10.3471 22.1562 10.2927 22.0745 10.219 22.0128C10.1454 21.9511 10.0554 21.912 9.96005 21.9C7.59005 21.63 5.17005 20.8 5.17005 16.71C5.15007 15.6829 5.52605 14.6875 6.22005 13.93C6.28397 13.8594 6.3264 13.772 6.34234 13.6782C6.35829 13.5843 6.34708 13.4878 6.31005 13.4C6.03213 12.6236 6.03567 11.7742 6.32005 11C7.24388 11.1638 8.11098 11.5595 8.84005 12.15C8.90028 12.1925 8.96933 12.2209 9.04205 12.233C9.11477 12.2452 9.18929 12.2407 9.26005 12.22C10.1533 11.9777 11.0745 11.8533 12.0001 11.85C12.9291 11.8508 13.8539 11.9752 14.7501 12.22C14.8193 12.2391 14.892 12.2428 14.9628 12.2307C15.0337 12.2186 15.101 12.1911 15.1601 12.15C15.8903 11.5613 16.7569 11.1659 17.6801 11C17.9523 11.77 17.9523 12.61 17.6801 13.38C17.643 13.4678 17.6318 13.5643 17.6478 13.6582C17.6637 13.752 17.7061 13.8394 17.7701 13.91C18.4569 14.6599 18.8323 15.6432 18.8201 16.66C18.8201 20.75 16.3901 21.57 14.0101 21.84C13.9124 21.8502 13.82 21.8889 13.7442 21.9512C13.6684 22.0136 13.6126 22.0969 13.5838 22.1907C13.555 22.2845 13.5545 22.3847 13.5823 22.4789C13.6101 22.573 13.6649 22.6569 13.7401 22.72C13.9616 22.9487 14.1308 23.2226 14.2361 23.523C14.3414 23.8235 14.3803 24.1431 14.3501 24.46V27.64C14.3451 27.7964 14.3748 27.9519 14.4371 28.0954C14.4993 28.2389 14.5925 28.3668 14.7101 28.47C14.8597 28.5821 15.0335 28.6576 15.2175 28.6906C15.4016 28.7236 15.5908 28.7131 15.7701 28.66C18.4682 27.7574 20.7578 25.9255 22.2304 23.4912C23.703 21.0568 24.2628 18.1785 23.8099 15.3697C23.357 12.5609 21.9208 10.0043 19.7577 8.15628C17.5945 6.30821 14.8451 5.28883 12.0001 5.28003Z" fill="#0F0518"/>
</g>
<path d="M34.25 10.5H42.5M42.5 10.5V18.75M42.5 10.5L33.5 19.5" stroke="#0F0518" stroke-width="3" stroke-linecap="round" stroke-linejoin="round"/>
<defs>
<clipPath id="clip0_630_4522">
<rect width="24" height="24" fill="white" transform="translate(0 5)"/>
</clipPath>
</defs>
</svg>
