<svg width="40" height="40" viewBox="0 0 40 40" fill="none" xmlns="http://www.w3.org/2000/svg">
<path d="M20.0001 0.466676C15.2388 0.465261 10.6331 2.16254 7.01136 5.25332C3.38956 8.3441 0.989245 12.6256 0.242014 17.3279C-0.505217 22.0303 0.449665 26.8449 2.93496 30.9062C5.42025 34.9674 9.27289 38.0087 13.8001 39.4833H14.2835C14.5193 39.498 14.7555 39.4623 14.9765 39.3787C15.1974 39.2951 15.3981 39.1654 15.5652 38.9984C15.7322 38.8313 15.8619 38.6307 15.9455 38.4097C16.0291 38.1887 16.0648 37.9525 16.0501 37.7167V37.3667C16.0501 37.0833 16.0501 36.7 16.0501 35.55C16.0338 35.4408 15.9959 35.336 15.9387 35.2416C15.8814 35.1471 15.806 35.065 15.7168 35C15.62 34.9217 15.5068 34.8661 15.3857 34.8372C15.2646 34.8084 15.1385 34.8071 15.0168 34.8333C10.5501 35.8 9.60013 33 9.53346 32.8167C8.97414 31.3352 7.97351 30.0611 6.66679 29.1667C6.5885 29.099 6.5049 29.0377 6.41679 28.9833C6.61047 28.8791 6.83201 28.8383 7.05013 28.8667C7.46903 28.9249 7.86571 29.0906 8.20158 29.3476C8.53746 29.6046 8.80108 29.9442 8.96679 30.3333C9.61155 31.456 10.6666 32.2848 11.91 32.6454C13.1534 33.0059 14.4881 32.8702 15.6335 32.2667C15.7564 32.2129 15.8645 32.1303 15.9486 32.0259C16.0328 31.9214 16.0905 31.7982 16.1168 31.6667C16.1806 30.8957 16.5106 30.171 17.0501 29.6167C17.1699 29.5103 17.2565 29.3717 17.2995 29.2173C17.3425 29.063 17.3402 28.8996 17.2927 28.7466C17.2452 28.5936 17.1546 28.4575 17.0318 28.3547C16.909 28.2518 16.7591 28.1865 16.6001 28.1667C12.6501 27.7167 8.61679 26.3333 8.61679 19.5167C8.5835 17.8048 9.21012 16.1458 10.3668 14.8833C10.4733 14.7657 10.544 14.62 10.5706 14.4635C10.5972 14.3071 10.5785 14.1462 10.5168 14C10.0536 12.7059 10.0595 11.2902 10.5335 10C12.0732 10.2729 13.5183 10.9324 14.7335 11.9167C14.8338 11.9875 14.9489 12.0348 15.0701 12.055C15.1913 12.0752 15.3155 12.0678 15.4335 12.0333C16.9223 11.6295 18.4575 11.4222 20.0001 11.4167C21.5485 11.418 23.0898 11.6254 24.5835 12.0333C24.6989 12.0652 24.82 12.0713 24.9381 12.0511C25.0562 12.0309 25.1684 11.9851 25.2668 11.9167C26.4838 10.9355 27.9282 10.2764 29.4668 10C29.9205 11.2833 29.9205 12.6834 29.4668 13.9667C29.4051 14.1129 29.3864 14.2737 29.413 14.4302C29.4396 14.5867 29.5103 14.7323 29.6168 14.85C30.7615 16.0998 31.3873 17.7387 31.3668 19.4333C31.3668 26.25 27.3168 27.6167 23.3501 28.0667C23.1874 28.0836 23.0333 28.1481 22.907 28.252C22.7807 28.3559 22.6877 28.4947 22.6398 28.6511C22.5918 28.8075 22.5909 28.9745 22.6372 29.1314C22.6835 29.2883 22.7749 29.4281 22.9001 29.5333C23.2693 29.9144 23.5514 30.371 23.7269 30.8717C23.9025 31.3724 23.9672 31.9052 23.9168 32.4333V37.7333C23.9085 37.9939 23.9581 38.2531 24.0618 38.4922C24.1655 38.7314 24.3209 38.9446 24.5168 39.1167C24.7662 39.3034 25.0559 39.4293 25.3626 39.4843C25.6693 39.5393 25.9847 39.5218 26.2835 39.4333C30.7803 37.9289 34.5964 34.8758 37.0507 30.8185C39.5051 26.7613 40.438 21.9641 39.6832 17.2827C38.9283 12.6014 36.5347 8.34052 32.9295 5.26042C29.3242 2.18031 24.7419 0.48135 20.0001 0.466676Z" fill="#0F0518"/>
</svg>
