<svg width="24" height="25" viewBox="0 0 24 25" fill="none" xmlns="http://www.w3.org/2000/svg">
<path d="M11.9997 0.720704C9.14289 0.719855 6.3795 1.73822 4.20642 3.59269C2.03335 5.44716 0.593157 8.01606 0.144818 10.8375C-0.303521 13.6589 0.269408 16.5477 1.76058 18.9844C3.25176 21.4211 5.56335 23.2459 8.27969 24.1307H8.56969C8.71117 24.1395 8.8529 24.1181 8.98549 24.0679C9.11807 24.0177 9.23847 23.94 9.33871 23.8397C9.43895 23.7395 9.51673 23.6191 9.56689 23.4865C9.61706 23.3539 9.63846 23.2122 9.62969 23.0707V22.8607C9.62969 22.6907 9.62969 22.4607 9.62969 21.7707C9.61987 21.7052 9.59714 21.6423 9.5628 21.5856C9.52847 21.529 9.48322 21.4797 9.42969 21.4407C9.3716 21.3937 9.30372 21.3603 9.23104 21.343C9.15835 21.3257 9.08272 21.3249 9.00969 21.3407C6.32969 21.9207 5.75969 20.2407 5.71969 20.1307C5.3841 19.2418 4.78372 18.4774 3.99969 17.9407C3.95271 17.9001 3.90255 17.8633 3.84969 17.8307C3.96589 17.7681 4.09881 17.7437 4.22969 17.7607C4.48102 17.7957 4.71904 17.8951 4.92056 18.0493C5.12208 18.2035 5.28026 18.4072 5.37969 18.6407C5.76654 19.3143 6.39957 19.8116 7.1456 20.0279C7.89162 20.2443 8.69249 20.1628 9.37969 19.8007C9.45343 19.7685 9.5183 19.7189 9.56879 19.6562C9.61928 19.5936 9.65389 19.5196 9.66969 19.4407C9.70797 18.9781 9.90595 18.5433 10.2297 18.2107C10.3016 18.1469 10.3535 18.0637 10.3793 17.9711C10.4051 17.8785 10.4037 17.7804 10.3752 17.6886C10.3467 17.5968 10.2924 17.5152 10.2187 17.4535C10.145 17.3918 10.0551 17.3526 9.95969 17.3407C7.58969 17.0707 5.16969 16.2407 5.16969 12.1507C5.14971 11.1236 5.52568 10.1282 6.21969 9.3707C6.2836 9.30011 6.32603 9.21272 6.34198 9.11883C6.35792 9.02494 6.34672 8.92844 6.30969 8.8407C6.03177 8.06423 6.0353 7.21483 6.31969 6.4407C7.24351 6.60447 8.11062 7.00017 8.83969 7.5907C8.89992 7.63322 8.96897 7.66159 9.04169 7.67371C9.1144 7.68583 9.18892 7.68138 9.25969 7.6607C10.153 7.41839 11.0741 7.294 11.9997 7.2907C12.9287 7.29148 13.8535 7.41591 14.7497 7.6607C14.819 7.67982 14.8916 7.68346 14.9625 7.67137C15.0333 7.65927 15.1007 7.63173 15.1597 7.5907C15.8899 7.00202 16.7565 6.60655 17.6797 6.4407C17.9519 7.21068 17.9519 8.05072 17.6797 8.8207C17.6427 8.90844 17.6315 9.00494 17.6474 9.09883C17.6633 9.19272 17.7058 9.2801 17.7697 9.3507C18.4565 10.1006 18.832 11.0839 18.8197 12.1007C18.8197 16.1907 16.3897 17.0107 14.0097 17.2807C13.9121 17.2909 13.8196 17.3295 13.7438 17.3919C13.668 17.4542 13.6123 17.5375 13.5835 17.6314C13.5547 17.7252 13.5541 17.8254 13.5819 17.9195C13.6097 18.0137 13.6646 18.0975 13.7397 18.1607C13.9612 18.3893 14.1305 18.6633 14.2358 18.9637C14.3411 19.2641 14.38 19.5838 14.3497 19.9007V23.0807C14.3447 23.237 14.3744 23.3925 14.4367 23.536C14.4989 23.6795 14.5922 23.8075 14.7097 23.9107C14.8594 24.0228 15.0331 24.0983 15.2172 24.1313C15.4012 24.1643 15.5904 24.1538 15.7697 24.1007C18.4678 23.1981 20.7574 21.3662 22.23 18.9318C23.7026 16.4975 24.2624 13.6191 23.8095 10.8103C23.3566 8.00153 21.9204 5.44501 19.7573 3.59695C17.5942 1.74889 14.8448 0.729508 11.9997 0.720704Z" fill="#0F0518"/>
</svg>
