<svg width="124" height="36" viewBox="0 0 124 36" fill="none" xmlns="http://www.w3.org/2000/svg">
<path d="M40.1855 10.5426C41.033 10.5426 41.837 10.5363 42.6399 10.5533C42.7121 10.5543 42.8194 10.6998 42.8459 10.7954C43.1337 11.8341 43.4088 12.877 43.6881 13.9188C44.4007 16.5739 45.1144 19.229 45.8292 21.8841C45.8589 21.9935 45.8929 22.1018 45.9481 22.2898C46.0034 22.1411 46.0363 22.0678 46.0586 21.9913C47.127 18.3167 48.1933 14.64 49.2627 10.9653C49.4114 10.4556 49.3211 10.549 49.8267 10.5437C50.2961 10.5384 50.7644 10.5395 51.2339 10.5437C51.7415 10.549 51.6449 10.4683 51.784 10.9473C52.452 13.2476 53.1137 15.5501 53.7785 17.8515C54.1831 19.2534 54.5867 20.6543 54.9924 22.0561C55.0094 22.1156 55.0317 22.173 55.0752 22.3004C55.1549 22.0296 55.2207 21.8193 55.2781 21.6069C56.2456 18.0045 57.2131 14.4021 58.1764 10.7975C58.2231 10.6212 58.2847 10.532 58.4928 10.5363C59.1917 10.5511 59.8905 10.5416 60.5893 10.5426C60.6583 10.5426 60.7284 10.5511 60.8314 10.5586C60.8123 10.6573 60.8017 10.7412 60.7783 10.822C59.4104 15.6627 58.0404 20.5013 56.68 25.3442C56.612 25.5853 56.5122 25.6607 56.2636 25.6543C55.5032 25.6362 54.7417 25.6405 53.9813 25.6522C53.7753 25.6554 53.6988 25.5874 53.6415 25.3877C52.6495 21.9382 51.6481 18.492 50.6476 15.0457C50.6189 14.948 50.5892 14.8502 50.4957 14.7494C50.3842 15.1243 50.2706 15.4981 50.1612 15.874C49.2341 19.057 48.3069 22.2388 47.3861 25.4238C47.3351 25.6012 47.2534 25.6554 47.0707 25.6532C46.2742 25.6426 45.4776 25.6426 44.6822 25.6532C44.4931 25.6554 44.4241 25.5853 44.3753 25.4132C43.001 20.5459 41.6235 15.6808 40.2482 10.8156C40.227 10.7412 40.2132 10.6648 40.1855 10.5426Z" fill="#0F0518"/>
<path d="M84.8848 14.8781C85.6494 14.8781 86.3971 14.8781 87.1819 14.8781C87.1819 15.27 87.1819 15.6534 87.1819 16.0368C87.2 16.0495 87.218 16.0623 87.2372 16.075C87.9997 15.0098 89.0575 14.5765 90.3213 14.5871C91.6117 14.5977 92.6227 15.1266 93.3141 16.2471C93.3587 16.212 93.3906 16.1961 93.4097 16.1695C94.1797 15.0693 95.2672 14.602 96.5756 14.5914C98.0253 14.5797 99.2243 15.0873 100.028 16.3448C100.536 17.137 100.705 18.0291 100.708 18.9552C100.714 21.1059 100.708 23.2554 100.715 25.406C100.716 25.6131 100.639 25.6567 100.451 25.6535C99.8583 25.6429 99.2647 25.6386 98.6721 25.6556C98.4395 25.662 98.3726 25.5982 98.3736 25.3614C98.3832 23.3266 98.3853 21.2906 98.3736 19.2558C98.3715 18.8968 98.3396 18.5262 98.243 18.1821C97.9796 17.2401 97.2298 16.7303 96.2262 16.759C95.0601 16.7919 94.2529 17.4748 94.0384 18.6483C93.9694 19.0285 93.9471 19.4215 93.945 19.8091C93.9354 21.6411 93.9407 23.4721 93.9407 25.3041C93.9407 25.4081 93.9407 25.5112 93.9407 25.6312C93.8313 25.6386 93.7549 25.6492 93.6773 25.6492C93.0847 25.6503 92.491 25.6386 91.8984 25.6556C91.6595 25.662 91.6011 25.5844 91.6021 25.355C91.6106 23.3467 91.6117 21.3374 91.6021 19.3291C91.6 18.9606 91.5841 18.5793 91.4959 18.2246C91.1922 17.0085 90.0027 16.4457 88.7453 16.9023C87.8733 17.2188 87.4358 17.8921 87.2765 18.7641C87.2138 19.1092 87.1989 19.4671 87.1968 19.8197C87.1894 21.6602 87.1894 23.5007 87.1979 25.3412C87.1989 25.5781 87.1426 25.6641 86.8899 25.6567C86.2282 25.6386 85.5666 25.6503 84.8858 25.6503C84.8848 22.0511 84.8848 18.4805 84.8848 14.8781Z" fill="#0F0518"/>
<path d="M69.8924 16.3169C69.8924 15.8188 69.8924 15.3568 69.8924 14.8799C70.673 14.8799 71.4217 14.8799 72.1938 14.8799C72.1938 18.4569 72.1938 22.0317 72.1938 25.6277C71.4376 25.6277 70.6836 25.6277 69.8945 25.6277C69.8945 25.1477 69.8945 24.6772 69.8945 24.1504C69.8053 24.2333 69.7586 24.2683 69.7214 24.3129C68.7507 25.4843 67.4752 25.9516 65.9873 25.9166C63.3269 25.8529 61.1965 23.783 60.829 21.181C60.5369 19.1164 61.1136 17.3301 62.6663 15.8995C64.4378 14.2693 67.3509 14.1333 69.1362 15.5958C69.3932 15.806 69.6173 16.0535 69.8924 16.3169ZM66.4907 23.7012C68.4427 23.698 69.8924 22.2281 69.8934 20.2528C69.8945 18.2838 68.4342 16.8043 66.4886 16.8022C64.5291 16.8001 63.0624 18.288 63.0731 20.2676C63.0848 22.2451 64.5376 23.7044 66.4907 23.7012Z" fill="#0F0518"/>
<path d="M105.061 21.2496C105.364 22.4561 106.053 23.2632 107.204 23.5893C108.769 24.0321 110.184 23.8017 111.312 22.4656C111.93 22.8267 112.553 23.1899 113.248 23.5956C112.911 23.9546 112.624 24.3114 112.285 24.6099C111.339 25.4436 110.207 25.8333 108.961 25.9045C107.51 25.9873 106.139 25.7229 104.925 24.8764C103.684 24.0109 102.965 22.8044 102.72 21.3239C102.445 19.6629 102.741 18.1113 103.76 16.7455C104.645 15.5614 105.851 14.8965 107.306 14.6671C108.463 14.4845 109.587 14.5811 110.646 15.1015C112.269 15.898 113.202 17.233 113.591 18.9705C113.741 19.6406 113.756 20.3182 113.679 21.0021C113.654 21.2188 113.568 21.2528 113.379 21.2528C110.724 21.2475 108.069 21.2496 105.414 21.2496C105.31 21.2496 105.205 21.2496 105.061 21.2496ZM111.326 19.3263C111.4 18.0391 109.974 16.7466 108.419 16.6956C106.408 16.6298 105.259 17.9764 105.081 19.3263C107.165 19.3263 109.246 19.3263 111.326 19.3263Z" fill="#0F0518"/>
<path d="M76.1776 22.2573C76.2477 22.3954 76.305 22.5228 76.3762 22.6418C76.8912 23.5052 77.7037 23.8058 78.6521 23.7739C79.0408 23.7612 79.4539 23.6879 79.8055 23.5307C80.5829 23.1834 80.6423 22.2159 79.901 21.807C79.4051 21.533 78.839 21.3843 78.2984 21.1932C77.7483 20.9988 77.1812 20.8512 76.6417 20.6324C75.2578 20.0727 74.5909 19.1742 74.6111 17.8871C74.6323 16.4799 75.3354 15.4837 76.6204 14.975C78.3813 14.2783 80.072 14.4376 81.596 15.6398C81.9869 15.9489 82.2896 16.3407 82.5359 16.8261C81.8892 17.1893 81.2541 17.5462 80.5977 17.9147C80.5404 17.8255 80.4915 17.7554 80.4469 17.6821C79.8787 16.7528 78.4896 16.3938 77.538 16.9302C76.8201 17.3359 76.7659 18.2099 77.4775 18.6177C77.9225 18.8726 78.4376 19.0118 78.9282 19.1838C79.5708 19.4079 80.2356 19.5725 80.8622 19.8316C82.8142 20.6388 83.4153 22.903 82.1186 24.5269C81.5525 25.2363 80.7719 25.6017 79.9 25.7801C78.6383 26.0382 77.3989 25.9755 76.2105 25.4413C75.3683 25.0632 74.7321 24.4547 74.2893 23.6422C74.1937 23.4659 74.2054 23.3714 74.3933 23.2684C74.9201 22.9795 75.4352 22.6683 75.9567 22.3667C76.0236 22.3295 76.0958 22.2987 76.1776 22.2573Z" fill="#0F0518"/>
<path d="M115.783 25.6481C115.783 22.035 115.783 18.4666 115.783 14.8822C116.552 14.8822 117.307 14.8822 118.091 14.8822C118.091 15.4334 118.091 15.9687 118.091 16.504C118.831 15.2317 119.952 14.6932 121.393 14.6709C121.393 15.5035 121.393 16.3202 121.393 17.1826C121.26 17.1826 121.123 17.1762 120.986 17.1837C120.037 17.2368 119.198 17.5235 118.618 18.3338C118.273 18.816 118.115 19.3693 118.11 19.9545C118.095 21.7323 118.099 23.5091 118.095 25.287C118.094 25.6491 118.094 25.6491 117.739 25.6491C117.097 25.6481 116.453 25.6481 115.783 25.6481Z" fill="#0F0518"/>
<path d="M9.83848 14.066C9.83848 14.099 9.83848 14.1319 9.83848 14.1648C9.83848 15.3254 9.08534 15.8316 8.15936 15.2966C7.23337 14.7616 6.48023 13.387 6.48023 12.2264C6.48023 12.1935 6.48023 12.1606 6.48023 12.1276L0.837891 8.86816V27.1821L15.4891 35.6395V17.3255L9.83848 14.066Z" fill="#0F0518"/>
<path d="M17.1647 9.83926C17.1647 9.87219 17.1647 9.90511 17.1647 9.93803C17.1647 11.0986 16.4115 11.6048 15.4855 11.0698C14.5595 10.5348 13.8064 9.16021 13.8064 7.99964C13.8064 7.96671 13.8064 7.93379 13.8064 7.90086L8.16406 4.64551V11.1974L17.1358 16.3788V28.1409L22.8152 31.4209V13.107L17.1647 9.83926Z" fill="#0F0518"/>
<path d="M24.4889 5.61682C24.4889 5.64974 24.4889 5.68266 24.4889 5.71559C24.4889 6.87616 23.7357 7.38236 22.8097 6.84735C21.8838 6.31233 21.1306 4.93776 21.1306 3.77719C21.1306 3.74427 21.1306 3.71134 21.1306 3.67842L15.4883 0.418945V6.97081L24.4601 12.1522V23.9143L30.1394 27.1944V8.8804L24.4889 5.61682Z" fill="#0F0518"/>
</svg>
