<svg width="64" height="64" viewBox="0 0 64 64" fill="none" xmlns="http://www.w3.org/2000/svg">
<g clip-path="url(#clip0_630_5627)">
<path d="M31.6467 1.60044C29.2054 1.61219 26.8751 1.82307 24.8235 2.19196C18.7808 3.27631 17.6845 5.54605 17.6845 9.7325V15.2606H31.963V17.1033H12.3253C8.17581 17.1033 4.54212 19.6368 3.4053 24.4582C2.09384 29.9827 2.03601 33.4308 3.4053 39.1997C4.42011 43.4943 6.84411 46.5535 10.9942 46.5535H15.904V39.9264C15.904 35.1384 19.9812 30.9156 24.824 30.9156H39.0864C43.0566 30.9156 46.2254 27.5944 46.2254 23.5448V9.73309C46.2254 5.80157 42.9607 2.84868 39.0864 2.19255C36.6324 1.77784 34.0875 1.58928 31.6467 1.60044ZM23.9249 6.04652C25.3994 6.04652 26.6044 7.29006 26.6044 8.81967C26.6044 10.3428 25.4 11.5746 23.9249 11.5746C22.4446 11.5746 21.2459 10.3428 21.2459 8.81967C21.2453 7.29006 22.4446 6.04652 23.9249 6.04652Z" fill="url(#paint0_linear_630_5627)"/>
<path d="M48.0074 17.1021V23.5436C48.0074 28.5366 43.8394 32.7395 39.0874 32.7395H24.825C20.9184 32.7395 17.686 36.1365 17.686 40.1109V53.9237C17.686 57.8541 21.0503 60.1667 24.825 61.2939C29.3446 62.6432 33.6791 62.8875 39.0874 61.2939C42.6818 60.236 46.2264 58.1084 46.2264 53.9237V48.3951H31.9646V46.5518H53.3666C57.5161 46.5518 59.0634 43.6118 60.5067 39.198C61.9974 34.6544 61.9333 30.2847 60.5067 24.4565C59.4809 20.2595 57.5224 17.1016 53.3666 17.1016H48.0074V17.1021ZM39.9854 52.0804C41.4663 52.0804 42.665 53.3122 42.665 54.8366C42.665 56.365 41.4657 57.6085 39.9854 57.6085C38.5109 57.6085 37.3064 56.365 37.3064 54.8366C37.3064 53.3122 38.5109 52.0804 39.9854 52.0804Z" fill="url(#paint1_linear_630_5627)"/>
</g>
<defs>
<linearGradient id="paint0_linear_630_5627" x1="0.968505" y1="3.32896" x2="34.3366" y2="31.3412" gradientUnits="userSpaceOnUse">
<stop stop-color="#5A9FD4"/>
<stop offset="1" stop-color="#306998"/>
</linearGradient>
<linearGradient id="paint1_linear_630_5627" x1="46.294" y1="49.593" x2="34.2362" y2="32.9476" gradientUnits="userSpaceOnUse">
<stop stop-color="#FFD43B"/>
<stop offset="1" stop-color="#FFE873"/>
</linearGradient>
<clipPath id="clip0_630_5627">
<rect width="64" height="64" rx="8" fill="white"/>
</clipPath>
</defs>
</svg>
