<svg width="24" height="25" viewBox="0 0 24 25" fill="none" xmlns="http://www.w3.org/2000/svg">
<path d="M5.62223 15.3424C5.62223 16.6144 4.58313 17.6535 3.31112 17.6535C2.03911 17.6535 1 16.6144 1 15.3424C1 14.0704 2.03911 13.0312 3.31112 13.0312H5.62223V15.3424Z" fill="#0F0518"/>
<path d="M6.78662 15.3424C6.78662 14.0704 7.82573 13.0312 9.09774 13.0312C10.3697 13.0312 11.4089 14.0704 11.4089 15.3424V21.1291C11.4089 22.4011 10.3697 23.4402 9.09774 23.4402C7.82573 23.4402 6.78662 22.4011 6.78662 21.1291V15.3424Z" fill="#0F0518"/>
<path d="M9.09774 6.06266C7.82573 6.06266 6.78662 5.02355 6.78662 3.75155C6.78662 2.47954 7.82573 1.44043 9.09774 1.44043C10.3697 1.44043 11.4089 2.47954 11.4089 3.75155V6.06266H9.09774Z" fill="#0F0518"/>
<path d="M9.09786 7.22705C10.3699 7.22705 11.409 8.26616 11.409 9.53817C11.409 10.8102 10.3699 11.8493 9.09786 11.8493H3.31112C2.03911 11.8493 1 10.8102 1 9.53817C1 8.26616 2.03911 7.22705 3.31112 7.22705H9.09786Z" fill="#0F0518"/>
<path d="M18.3774 9.53817C18.3774 8.26616 19.4165 7.22705 20.6886 7.22705C21.9606 7.22705 22.9997 8.26616 22.9997 9.53817C22.9997 10.8102 21.9606 11.8493 20.6886 11.8493H18.3774V9.53817Z" fill="#0F0518"/>
<path d="M17.2131 9.53829C17.2131 10.8103 16.1739 11.8494 14.9019 11.8494C13.6299 11.8494 12.5908 10.8103 12.5908 9.53829V3.75155C12.5908 2.47954 13.6299 1.44043 14.9019 1.44043C16.1739 1.44043 17.2131 2.47954 17.2131 3.75155V9.53829Z" fill="#0F0518"/>
<path d="M14.9019 18.8179C16.1739 18.8179 17.2131 19.857 17.2131 21.129C17.2131 22.401 16.1739 23.4401 14.9019 23.4401C13.6299 23.4401 12.5908 22.401 12.5908 21.129V18.8179H14.9019Z" fill="#0F0518"/>
<path d="M14.9019 17.6535C13.6299 17.6535 12.5908 16.6144 12.5908 15.3424C12.5908 14.0704 13.6299 13.0312 14.9019 13.0312H20.6887C21.9607 13.0312 22.9998 14.0704 22.9998 15.3424C22.9998 16.6144 21.9607 17.6535 20.6887 17.6535H14.9019Z" fill="#0F0518"/>
</svg>
