<svg width="22" height="20" viewBox="0 0 22 20" fill="none" xmlns="http://www.w3.org/2000/svg">
<path d="M9.82699 0.757674C10.2795 -0.25256 11.7205 -0.252557 12.173 0.757676L14.2463 5.38624C14.433 5.8029 14.8286 6.08897 15.2845 6.13685L20.3489 6.66875C21.4542 6.78484 21.8995 8.14858 21.0738 8.88903L17.2909 12.2815C16.9503 12.5869 16.7992 13.0498 16.8943 13.4961L17.9509 18.4534C18.1816 19.5353 17.0158 20.3782 16.053 19.8256L11.6416 17.2937C11.2445 17.0658 10.7555 17.0658 10.3584 17.2937L5.94703 19.8256C4.98421 20.3782 3.81844 19.5353 4.04906 18.4534L5.10568 13.4961C5.2008 13.0498 5.04966 12.5869 4.70912 12.2815L0.926154 8.88903C0.100482 8.14858 0.545768 6.78484 1.65112 6.66875L6.71546 6.13685C7.17135 6.08897 7.56703 5.8029 7.75367 5.38624L9.82699 0.757674Z" fill="#EBC645"/>
</svg>
