<svg width="26" height="21" viewBox="0 0 26 21" fill="none" xmlns="http://www.w3.org/2000/svg">
<path d="M22.9406 5.41967C22.9558 5.63665 22.9558 5.85363 22.9558 6.07262C22.9558 12.7451 17.7964 20.4404 8.36207 20.4404V20.4364C5.57515 20.4404 2.84613 19.6535 0.5 18.1716C0.90524 18.2196 1.31251 18.2436 1.7208 18.2446C4.03036 18.2466 6.27391 17.4837 8.09089 16.0788C5.8961 16.0378 3.97146 14.6289 3.2991 12.5721C4.06794 12.7181 4.86014 12.6881 5.61476 12.4851C3.22192 12.0091 1.50041 9.9393 1.50041 7.5355V7.4715C2.21338 7.86247 3.01168 8.07945 3.82825 8.10345C1.57455 6.62157 0.879849 3.66982 2.24081 1.36201C4.84491 4.51675 8.68707 6.43459 12.8116 6.63757C12.3982 4.88371 12.9629 3.04587 14.2954 1.81297C16.3613 -0.0998738 19.6103 -0.000882059 21.5522 2.03195C22.7009 1.80897 23.8018 1.394 24.8093 0.806051C24.4265 1.97495 23.6251 2.96787 22.5546 3.59882C23.5713 3.48083 24.5646 3.21285 25.5 2.80489C24.8114 3.8188 23.945 4.70373 22.9416 5.41867L22.9406 5.41967Z" fill="#0F0518"/>
</svg>
