<svg width="136" height="32" viewBox="0 0 136 32" fill="none" xmlns="http://www.w3.org/2000/svg">
<path d="M75.3188 22.3324C73.6603 24.0531 71.1647 25.08 68.3271 25.08C63.2248 25.08 59.2148 21.8022 59.2148 16.9933C59.2148 14.547 60.1197 12.5364 61.6306 11.1345C63.1449 9.7294 65.3005 8.90656 67.8461 8.90656C70.3916 8.90656 72.5473 9.7294 74.0616 11.134C75.5726 12.5353 76.4773 14.5448 76.4773 16.9885C76.4773 17.3881 76.4459 17.7743 76.3898 18.1512H63.3387H62.6012L62.8634 18.8405C63.6788 20.9848 65.8541 22.2722 68.3271 22.2722C69.9573 22.2722 71.4505 21.7184 72.5199 20.7271L75.3188 22.3324ZM62.8105 15.1689L62.6017 15.8305H63.2954H72.3871H73.0792L72.8724 15.17C72.203 13.0318 70.3452 11.7096 67.8413 11.7096C65.3415 11.7096 63.4848 13.0322 62.8105 15.1689ZM127.117 22.3324C125.459 24.0531 122.963 25.08 120.126 25.08C115.023 25.08 111.013 21.8022 111.013 16.9933C111.013 14.547 111.918 12.5364 113.429 11.1345C114.943 9.7294 117.099 8.90656 119.645 8.90656C122.19 8.90656 124.346 9.7294 125.86 11.134C127.371 12.5353 128.276 14.5448 128.276 16.9885C128.276 17.3881 128.244 17.7743 128.188 18.1512H115.137H114.4L114.662 18.8405C115.477 20.9848 117.653 22.2722 120.126 22.2722C121.756 22.2722 123.249 21.7184 124.318 20.7271L127.117 22.3324ZM114.614 15.1689L114.405 15.8305H115.099H124.19H124.883L124.676 15.17C124.006 13.0318 122.149 11.7096 119.645 11.7096C117.145 11.7096 115.288 13.0322 114.614 15.1689ZM49.323 17.7264L57.5076 3.65392H61.329L48.8834 25.0544L36.4378 3.65392H40.2593L48.4438 17.7264L48.8834 18.4823L49.323 17.7264ZM84.2015 13.2687H84.71C84.71 12.27 85.2947 11.3112 86.3506 10.5806C87.2959 9.92663 88.5867 9.48326 90.0427 9.39876V12.8586C89.716 12.7974 89.3727 12.7601 89.0119 12.7601C87.4967 12.7601 86.1614 13.2796 85.2028 14.2185C84.2428 15.1587 83.6929 16.4878 83.6929 18.0438V24.6024H80.3806V9.38408H83.6929V13.2687H84.2015ZM95.8152 16.9933C95.8152 18.5396 96.3263 19.8701 97.2729 20.8151C98.2195 21.7603 99.5587 22.2769 101.134 22.2769C103.077 22.2769 104.63 21.4766 105.548 20.1085L108.341 21.7078C106.86 23.8045 104.302 25.08 101.134 25.08C98.5861 25.08 96.4305 24.2571 94.9169 22.8521C93.4067 21.4503 92.5029 19.4397 92.5029 16.9933C92.5029 14.547 93.4077 12.5364 94.9186 11.1345C96.433 9.7294 98.5886 8.90656 101.134 8.90656C104.302 8.90656 106.856 10.1817 108.34 12.2791L105.548 13.878C104.63 12.5099 103.077 11.7096 101.134 11.7096C99.561 11.7096 98.2219 12.2264 97.2748 13.1713C96.3277 14.1162 95.8152 15.4466 95.8152 16.9933ZM135.491 3.65392V24.6024H132.179V3.65392H135.491ZM17.7745 1.76931L34.6649 30.8101H0.884068L17.7745 1.76931Z" fill="#0F0518" stroke="#0F0518" stroke-width="1.01708"/>
</svg>
