<svg width="49" height="48" viewBox="0 0 49 48" fill="none" xmlns="http://www.w3.org/2000/svg">
<path d="M18.501 0H29.901V29.5668H0.333008V0C4.1251 0 7.91695 0 11.709 0C11.727 0.238551 11.7251 0.480701 11.7662 0.715412C12.0765 2.4887 13.6326 3.68937 15.4191 3.53026C16.4309 3.44026 17.2387 2.96892 17.8439 2.15823C18.3205 1.5201 18.5188 0.791489 18.501 0ZM16.4047 26.4177C17.237 22.921 18.0671 19.4332 18.9011 15.9299C18.2615 15.9299 17.6462 15.9291 17.0311 15.9332C17.0083 15.9332 16.9723 15.9786 16.9653 16.0083C16.9216 16.1907 16.8842 16.3746 16.8456 16.5581C16.3881 18.7296 15.9307 20.9013 15.4728 23.0725C15.4673 23.0991 15.4531 23.1238 15.4351 23.1694C15.421 23.119 15.4116 23.0928 15.4063 23.066C14.9355 20.7261 14.4641 18.3862 13.9971 16.0453C13.9774 15.9464 13.9393 15.9267 13.8488 15.9275C13.317 15.9311 12.7849 15.9308 12.2531 15.9275C12.1677 15.927 12.1305 15.9466 12.1098 16.0386C11.6181 18.2393 11.122 20.439 10.6267 22.6388C10.5955 22.7777 10.5612 22.9162 10.5285 23.0547C10.5 23.0295 10.492 23.0074 10.4877 22.9849C10.3238 22.1058 10.1611 21.2267 9.99647 20.3478C9.72816 18.9158 9.45793 17.484 9.19202 16.0518C9.17522 15.9613 9.1481 15.9258 9.0497 15.9267C8.47781 15.9315 7.90591 15.9291 7.33401 15.9294C7.29633 15.9294 7.25889 15.9332 7.20874 15.9361C7.95919 19.4404 8.70604 22.9285 9.45241 26.4141H11.4378C11.9519 24.0336 12.464 21.6611 12.9764 19.2883C12.9906 19.2883 13.0047 19.2888 13.0191 19.2888C13.4984 21.6637 13.9774 24.0387 14.4574 26.417H16.4054L16.4047 26.4177ZM18.5814 26.4112C18.6095 26.4172 18.621 26.4218 18.6325 26.4218C19.2445 26.4225 19.8562 26.4213 20.4682 26.4246C20.5469 26.4251 20.5556 26.3846 20.5688 26.3241C20.7243 25.6147 20.8841 24.906 21.037 24.1961C21.0552 24.1111 21.0864 24.0881 21.1704 24.0881C22.2741 24.0907 23.3779 24.0907 24.4816 24.0881C24.5581 24.0881 24.5948 24.1082 24.6152 24.1841C24.6942 24.4769 24.7787 24.7682 24.862 25.0598C24.9911 25.512 25.1209 25.9641 25.2507 26.4172H27.2667C27.2547 26.3678 27.2463 26.3253 27.2343 26.2838C27.0029 25.4908 26.7711 24.6979 26.539 23.905C25.7727 21.285 25.0064 18.6653 24.2413 16.045C24.2209 15.9752 24.2073 15.9267 24.1127 15.927C23.1448 15.9311 22.1772 15.9303 21.2093 15.9277C21.1272 15.9277 21.1023 15.9579 21.085 16.0333C21.0029 16.3911 20.9136 16.7473 20.8275 17.1041C20.1579 19.8736 19.4886 22.6433 18.8192 25.4128C18.7396 25.7421 18.662 26.0719 18.5812 26.4112H18.5814Z" fill="#654FEF"/>
<path d="M19.5811 47.9981C19.4323 47.9256 19.2705 47.8716 19.1376 47.777C18.8323 47.5599 18.685 47.2491 18.6698 46.8754C18.6684 46.8394 18.6691 46.8034 18.6691 46.7674C18.6691 41.4759 18.6691 36.1843 18.6691 30.8927C18.6691 30.8531 18.6691 30.8136 18.6691 30.7584H18.8117C22.4274 30.7584 26.0433 30.7584 29.659 30.7584C30.2583 30.7584 30.7032 30.504 30.9701 29.9604C31.0709 29.7552 31.0939 29.533 31.0939 29.3069C31.0937 25.7351 31.0937 22.1636 31.0937 18.5918V18.4368C31.1294 18.4346 31.1635 18.431 31.1976 18.431C36.4853 18.4308 41.773 18.4303 47.0607 18.4312C47.7365 18.4312 48.2295 18.9155 48.2532 19.5947C48.2544 19.6266 48.2537 19.6588 48.2537 19.6907C48.2537 28.7139 48.2532 37.737 48.2547 46.7604C48.2547 47.2385 48.0788 47.6151 47.6602 47.8606C47.563 47.9177 47.4529 47.9525 47.3487 47.9976H19.5811V47.9981ZM37.9106 33.8874C37.6442 33.7878 37.3944 33.6826 37.1371 33.6003C36.5643 33.4167 35.9744 33.3159 35.3744 33.2775C34.58 33.2264 33.8008 33.2886 33.0647 33.6234C32.5252 33.8686 32.0937 34.2327 31.8372 34.7808C31.661 35.1571 31.6008 35.5574 31.5897 35.9676C31.5681 36.7665 31.817 37.4574 32.4026 38.0173C32.8204 38.4167 33.3112 38.7068 33.8183 38.9706C34.3698 39.2576 34.9318 39.5242 35.4831 39.812C35.9283 40.0445 36.2439 40.3743 36.2532 40.9196C36.2645 41.5714 36.0255 41.9983 35.4301 42.2189C35.1421 42.3257 34.844 42.3727 34.539 42.383C33.6049 42.4147 32.716 42.2112 31.8542 41.867C31.7006 41.8056 31.5492 41.7384 31.3872 41.67C31.3872 42.2023 31.386 42.7183 31.3898 43.234C31.3901 43.2662 31.4229 43.3151 31.4525 43.3271C31.6512 43.409 31.8499 43.4939 32.0548 43.5575C32.9891 43.8477 33.9455 43.9499 34.9203 43.8674C35.5669 43.8126 36.1892 43.6667 36.757 43.3387C37.1873 43.09 37.5384 42.7612 37.7741 42.3163C38.004 41.8819 38.08 41.4154 38.0937 40.9306C38.1196 40.0035 37.7599 39.2694 36.9794 38.7709C36.5067 38.469 36.0051 38.211 35.5095 37.9463C35.0526 37.702 34.581 37.485 34.126 37.2376C33.6364 36.9715 33.3971 36.5565 33.429 35.987C33.4602 35.4286 33.7312 35.0595 34.264 34.8867C34.5335 34.7993 34.8114 34.7746 35.0922 34.7837C35.7121 34.8039 36.3111 34.9325 36.8928 35.1449C37.0375 35.1977 37.1801 35.2563 37.3284 35.3141C37.5218 34.8399 37.7112 34.3755 37.9101 33.8881L37.9106 33.8874ZM41.2172 34.8682V42.2865C40.5409 42.3595 39.8704 42.4315 39.1972 42.5042V43.7442H45.0407V42.504C44.3508 42.431 43.6656 42.3588 42.9826 42.2865V34.868C43.6725 34.7952 44.3577 34.7228 45.0379 34.651V33.4146H39.1965V34.6505C39.8713 34.7232 40.5419 34.7955 41.217 34.8682H41.2172ZM24.0584 42.1145C24.0812 42.1111 24.0898 42.1118 24.0963 42.1087C26.1182 41.1171 28.1401 40.1252 30.1604 39.1302C30.1952 39.1131 30.2285 39.0546 30.2295 39.0145C30.2362 38.7868 30.2268 38.5585 30.2352 38.3308C30.2388 38.2324 30.2036 38.1837 30.1193 38.139C28.2248 37.1323 26.332 36.1226 24.4387 35.1139C24.3173 35.0491 24.1949 34.9858 24.0581 34.914V35.0357C24.0581 35.4557 24.0608 35.8757 24.056 36.2954C24.055 36.3804 24.0843 36.4202 24.1575 36.4579C25.5151 37.157 26.871 37.859 28.2275 38.5604C28.262 38.5784 28.2959 38.5976 28.3424 38.6228C27.8605 38.8492 27.3928 39.0685 26.925 39.2881C26.0013 39.7218 25.0774 40.1545 24.1553 40.5912C24.1145 40.6107 24.0629 40.6647 24.0624 40.7031C24.056 41.1703 24.0584 41.6376 24.0584 42.1147V42.1145Z" fill="black"/>
<path d="M24.0866 22.3632H21.4414C21.463 22.2544 21.4815 22.1512 21.504 22.049C21.7582 20.9045 22.014 19.7602 22.266 18.6152C22.2831 18.538 22.3102 18.5089 22.3908 18.5108C22.6025 18.5161 22.8144 18.5137 23.0261 18.5118C23.0846 18.5113 23.1187 18.5224 23.1357 18.5898C23.4508 19.8346 23.7691 21.0785 24.0861 22.3226C24.089 22.3336 24.0863 22.3461 24.0863 22.3629L24.0866 22.3632Z" fill="#6550EF"/>
</svg>
