<svg width="40" height="40" viewBox="0 0 40 40" fill="none" xmlns="http://www.w3.org/2000/svg">
<path d="M32.3738 20.0033C32.3738 13.174 26.8297 7.62988 20.0004 7.62988C13.1711 7.62988 7.62695 13.174 7.62695 20.0033C7.62695 26.8326 13.1711 32.3767 20.0004 32.3767C26.8297 32.3767 32.3738 26.8326 32.3738 20.0033Z" fill="#000080"/>
<path d="M28.75 14.8763C28.75 12.8768 27.1264 11.2532 25.1268 11.2532C23.1272 11.2532 21.5037 12.8768 21.5037 14.8763C21.5037 16.8759 23.1272 18.4995 25.1268 18.4995C27.1264 18.4995 28.75 16.8759 28.75 14.8763Z" fill="white"/>
<path d="M35.9963 7.62706C35.9963 5.62749 34.3727 4.00391 32.3732 4.00391C30.3736 4.00391 28.75 5.62749 28.75 7.62706C28.75 9.62664 30.3736 11.2502 32.3732 11.2502C34.3727 11.2502 35.9963 9.63005 35.9963 7.62706Z" fill="#000080"/>
<path d="M12.6382 25.2739H16.6476V26.1865H11.6025V18.0686H12.6382V25.2739Z" fill="white"/>
<path d="M21.4366 26.1874V25.3739C20.8897 26.143 20.3463 26.4438 19.4883 26.4438C18.3535 26.4438 17.6289 25.8217 17.6289 24.851V20.3528H18.5518V24.4852C18.5518 25.1859 19.0201 25.6337 19.7549 25.6337C20.7223 25.6337 21.3478 24.8544 21.3478 23.6615V20.3528H22.2707V26.1874H21.4366Z" fill="white"/>
<path d="M29.0556 26.3433C28.7548 26.4219 28.6112 26.4425 28.4198 26.4425C27.8182 26.4425 27.5277 26.1758 27.4628 25.5845C26.8065 26.1861 26.2152 26.4425 25.4803 26.4425C24.301 26.4425 23.5662 25.7759 23.5662 24.7163C23.5662 23.9575 23.9114 23.4345 24.5916 23.1577C24.9471 23.0141 25.1487 22.9697 26.4613 22.8022C27.1962 22.7133 27.4286 22.5458 27.4286 22.1562V21.9101C27.4286 21.3529 26.9603 21.0419 26.1263 21.0419C25.2581 21.0419 24.8343 21.3632 24.7557 22.0776H23.8191C23.843 21.4999 23.9524 21.1649 24.219 20.8642C24.6087 20.4301 25.3094 20.184 26.1571 20.184C27.5927 20.184 28.3515 20.7411 28.3515 21.7768V25.2085C28.3515 25.4991 28.5292 25.6665 28.8539 25.6665C28.9086 25.6665 28.953 25.6665 29.0556 25.6426V26.3433ZM27.4286 23.3012C27.1175 23.4448 26.9159 23.4892 25.9349 23.6225C24.9436 23.7661 24.5301 24.0806 24.5301 24.6924C24.5301 25.2837 24.9539 25.6289 25.6785 25.6289C26.2254 25.6289 26.68 25.4512 27.0594 25.106C27.3363 24.8496 27.4286 24.6616 27.4286 24.3472V23.3012Z" fill="white"/>
<path d="M34.2568 12.7366C35.4018 14.9857 36 17.474 36 20C36 28.8323 28.8323 36 20 36C11.1677 36 4 28.8323 4 20C4 11.1677 11.1677 4 20 4C22.8404 4 25.6261 4.75539 28.0735 6.18415" stroke="#808080" stroke-width="0.348041" stroke-miterlimit="10" stroke-dasharray="1.31 1.31"/>
</svg>
