<svg width="40" height="40" viewBox="0 0 40 40" fill="none" xmlns="http://www.w3.org/2000/svg">
<path d="M2.64615 20C2.64615 26.8769 6.64615 32.8 12.4308 35.6154L4.15385 12.9385C3.15996 15.16 2.6462 17.5663 2.64615 20ZM20 37.3538C22.0154 37.3538 23.9538 37 25.7692 36.3692L25.6462 36.1385L20.3077 21.5231L15.1077 36.6462C16.6462 37.1077 18.2923 37.3538 20 37.3538ZM22.3846 11.8615L28.6615 30.5231L30.4 24.7385C31.1385 22.3385 31.7077 20.6154 31.7077 19.1231C31.7077 16.9692 30.9385 15.4923 30.2923 14.3538C29.4 12.9077 28.5846 11.6923 28.5846 10.2769C28.5846 8.67692 29.7846 7.2 31.5077 7.2H31.7231C28.5254 4.26448 24.3407 2.63892 20 2.64615C17.1259 2.64562 14.2967 3.35958 11.7669 4.72381C9.23722 6.08803 7.0863 8.05974 5.50769 10.4615L6.61539 10.4923C8.43077 10.4923 11.2308 10.2615 11.2308 10.2615C12.1846 10.2154 12.2923 11.5846 11.3538 11.6923C11.3538 11.6923 10.4154 11.8154 9.35385 11.8615L15.6923 30.6615L19.4923 19.2769L16.7846 11.8615C16.1781 11.8281 15.5727 11.7768 14.9692 11.7077C14.0308 11.6462 14.1385 10.2154 15.0769 10.2615C15.0769 10.2615 17.9385 10.4923 19.6462 10.4923C21.4615 10.4923 24.2615 10.2615 24.2615 10.2615C25.2 10.2154 25.3231 11.5846 24.3846 11.6923C24.3846 11.6923 23.4462 11.8 22.3846 11.8615ZM28.7231 35C31.3484 33.4735 33.5271 31.2848 35.0417 28.6526C36.5562 26.0204 37.3535 23.0368 37.3538 20C37.3538 16.9846 36.5846 14.1538 35.2308 11.6769C35.5057 14.402 35.0931 17.1525 34.0308 19.6769L28.7231 35ZM20 40C14.6957 40 9.60859 37.8929 5.85786 34.1421C2.10714 30.3914 0 25.3043 0 20C0 14.6957 2.10714 9.60859 5.85786 5.85786C9.60859 2.10714 14.6957 0 20 0C25.3043 0 30.3914 2.10714 34.1421 5.85786C37.8929 9.60859 40 14.6957 40 20C40 25.3043 37.8929 30.3914 34.1421 34.1421C30.3914 37.8929 25.3043 40 20 40Z" fill="black"/>
</svg>
