<svg width="40" height="40" viewBox="0 0 40 40" fill="none" xmlns="http://www.w3.org/2000/svg">
<path d="M34.6026 16.1336C34.3991 14.6135 33.5614 13.3106 32.0415 12.1163L31.1678 11.5252L30.5814 12.4059C29.8394 13.5399 29.4564 15.1202 29.5761 16.6282C29.6359 17.159 29.8035 18.112 30.342 18.9444C29.8035 19.234 28.7384 19.6441 27.3142 19.62H0.147456L0.0995848 19.9336C-0.151738 21.4537 -0.151737 26.1827 2.90003 29.8259C5.22177 32.5885 8.69242 34 13.2402 34C23.0776 34 30.354 29.4399 33.7648 21.14C35.1052 21.1642 37.9894 21.1521 39.4734 18.293C39.5093 18.2327 39.6051 18.0517 39.8564 17.5209L40 17.2193L39.1623 16.6523C38.2647 16.0491 36.1943 15.832 34.6026 16.1336ZM21.8809 6H17.752V9.78802H21.8809V6ZM21.8809 10.548H17.752V14.324H21.8809V10.548ZM16.998 10.548H12.8692V14.324H16.998V10.548ZM12.1152 10.548H7.98632V14.324H12.1152V10.548ZM7.23235 15.084H3.10349V18.872H7.23235V15.084ZM12.1152 15.084H7.98632V18.872H12.1152V15.084ZM16.998 15.084H12.8692V18.872H16.998V15.084ZM21.8809 15.084H17.752V18.872H21.8809V15.084ZM26.7637 15.084H22.6348V18.872H26.7637V15.084Z" fill="#019BC6"/>
</svg>
