<svg width="40" height="40" viewBox="0 0 40 40" fill="none" xmlns="http://www.w3.org/2000/svg">
<rect width="40" height="40" fill="#FCFCFE"/>
<path d="M21.3164 29.8889C21.2995 29.684 21.2894 29.5509 21.2894 29.5509C21.2894 29.5509 20.641 25.3632 19.8691 24.1135C19.747 23.9154 19.8824 23.1018 20.2232 21.8967C20.4224 22.2267 21.2633 23.6382 21.4322 24.093C21.6223 24.6072 21.6623 24.7545 21.6623 24.7545C21.6623 24.7545 21.2011 22.4812 20.4443 21.1546C20.6102 20.6183 20.8084 20.0255 21.0326 19.3919C21.3193 19.8737 22.0056 21.0403 22.1567 21.4449C22.1872 21.5281 22.213 21.5987 22.2361 21.6634C22.2435 21.6245 22.2509 21.5857 22.2583 21.5468C22.085 20.8425 21.7447 19.6169 21.2787 18.7114C22.3125 13.5569 25.8383 6.66706 29.4529 3.59304H5.87333C4.29301 3.59304 3 4.83196 3 6.34584V31.2573C3 32.771 4.29301 34.0098 5.87333 34.0098H21.4034C21.2915 32.7112 21.2541 31.2745 21.3164 29.8889Z" fill="#0F80CC"/>
<path d="M20.223 21.8964C20.4222 22.2264 21.2632 23.6379 21.432 24.0927C21.6222 24.6069 21.6621 24.7543 21.6621 24.7543C21.6621 24.7543 21.201 22.4809 20.4441 21.1544C20.61 20.6181 20.8082 20.0253 21.0324 19.3916C21.2946 19.8323 21.8902 20.8445 22.1056 21.3241C22.1136 21.2335 22.1216 21.143 22.1299 21.0533C21.9391 20.351 21.6494 19.4316 21.2786 18.7112C22.2306 13.9652 25.2948 7.75077 28.5961 4.39583H5.87316C4.75104 4.39583 3.83789 5.27039 3.83789 6.34557V29.4395C8.98414 27.5473 15.1895 25.8177 20.53 25.8918C20.3318 25.1594 20.106 24.4971 19.869 24.1132C19.7469 23.9151 19.8823 23.1015 20.223 21.8964Z" fill="url(#paint0_linear_630_5267)"/>
<path d="M34.9543 2.78205C33.3394 1.40239 31.3841 1.95658 29.4543 3.5973C29.1679 3.84105 28.882 4.11148 28.5977 4.40035C25.2964 7.7553 22.2322 13.9697 21.2802 18.7157C21.651 19.4362 21.9407 20.3556 22.1315 21.0579C22.1803 21.2381 22.2245 21.4072 22.2597 21.5511C22.3435 21.8915 22.3886 22.1123 22.3886 22.1123C22.3886 22.1123 22.3589 22.005 22.2375 21.6677C22.2144 21.603 22.1886 21.5323 22.1581 21.4492C22.1451 21.4148 22.127 21.3731 22.1072 21.3286C21.8918 20.849 21.2961 19.8368 21.034 19.3961C20.8098 20.0298 20.6116 20.6226 20.4457 21.1589C21.2025 22.4854 21.6637 24.7588 21.6637 24.7588C21.6637 24.7588 21.6238 24.6114 21.4336 24.0972C21.2647 23.6424 20.4238 22.231 20.2246 21.901C19.8839 23.106 19.7485 23.9197 19.8706 24.1178C20.1076 24.5016 20.3334 25.1639 20.5316 25.8964C20.9795 27.5464 21.2908 29.5552 21.2908 29.5552C21.2908 29.5552 21.3009 29.6883 21.3178 29.8931C21.2556 31.2788 21.2929 32.7155 21.4049 34.014C21.5533 35.733 21.8326 37.2097 22.1886 38L22.4303 37.8738C21.9075 36.3167 21.6951 34.2762 21.7881 31.9229C21.9288 28.3259 22.7929 23.988 24.3894 19.4668C27.0867 12.6417 30.829 7.16564 34.254 4.55047C31.1323 7.25133 26.9072 15.9938 25.6424 19.2313C24.2262 22.8567 23.2227 26.2587 22.6178 29.5182C23.6614 26.4625 27.0355 25.149 27.0355 25.149C27.0355 25.149 28.6904 23.1937 30.6243 20.4004C29.4658 20.6535 27.5636 21.0868 26.9265 21.3433C25.9866 21.721 25.7333 21.8499 25.7333 21.8499C25.7333 21.8499 28.7778 20.0738 31.3897 19.2696C34.9818 13.8497 38.8953 6.15005 34.9543 2.78205Z" fill="#003B57"/>
<defs>
<linearGradient id="paint0_linear_630_5267" x1="18.1138" y1="4.90833" x2="18.1138" y2="28.0467" gradientUnits="userSpaceOnUse">
<stop stop-color="#97D9F6"/>
<stop offset="0.920245" stop-color="#0F80CC"/>
<stop offset="1" stop-color="#0F80CC"/>
</linearGradient>
</defs>
</svg>
