<svg width="40" height="40" viewBox="0 0 40 40" fill="none" xmlns="http://www.w3.org/2000/svg">
<g clip-path="url(#clip0_630_5394)">
<path d="M19.9987 0.00292969C8.95375 0.00292969 0 8.95668 0 20.0029C0 30.7279 8.44375 39.4817 19.0466 39.9786C19.3628 39.9932 19.68 40.0017 19.9987 40.0017C24.9175 40.0084 29.6649 38.1958 33.3275 34.9126C30.9838 36.4667 28.2422 37.3614 25.3134 37.3614C20.5503 37.3614 16.285 34.9982 13.4166 31.2726C11.2047 28.6626 9.77281 24.8042 9.675 20.4729V19.5317C9.77281 15.2007 11.2047 11.342 13.4166 8.73199C16.2853 5.00543 20.5506 2.64324 25.3125 2.64324C28.2422 2.64324 30.9837 3.53793 33.3288 5.09324C29.8072 1.94387 25.1659 0.0223047 20.0744 0.00292969H19.9987Z" fill="url(#paint0_linear_630_5394)"/>
<path d="M13.417 8.7323C15.2517 6.56543 17.6223 5.25824 20.2114 5.25824C26.0342 5.25824 30.7532 11.8598 30.7532 20.002C30.7532 28.1442 26.0339 34.7457 20.2114 34.7457C17.6223 34.7457 15.2517 33.4395 13.417 31.2729C16.2857 34.9998 20.5507 37.3617 25.3139 37.3617C28.2436 37.3617 30.9842 36.467 33.3279 34.9129C37.4223 31.2507 39.9992 25.9273 39.9992 20.002C39.9992 14.0767 37.4223 8.75574 33.3292 5.09355C30.9854 3.53824 28.2439 2.64355 25.3142 2.64355C20.5511 2.64355 16.2857 5.00668 13.4173 8.7323" fill="url(#paint1_linear_630_5394)"/>
</g>
<defs>
<linearGradient id="paint0_linear_630_5394" x1="16.6647" y1="0.655117" x2="16.6647" y2="39.4201" gradientUnits="userSpaceOnUse">
<stop stop-color="#FF1B2D"/>
<stop offset="0.614" stop-color="#FF1B2D"/>
<stop offset="1" stop-color="#A70014"/>
</linearGradient>
<linearGradient id="paint1_linear_630_5394" x1="26.7073" y1="2.93949" x2="26.7073" y2="37.2248" gradientUnits="userSpaceOnUse">
<stop stop-color="#9C0000"/>
<stop offset="0.7" stop-color="#FF4B4B"/>
</linearGradient>
<clipPath id="clip0_630_5394">
<rect width="40" height="40" rx="10" fill="white"/>
</clipPath>
</defs>
</svg>
