<svg width="40" height="40" viewBox="0 0 40 40" fill="none" xmlns="http://www.w3.org/2000/svg">
<g clip-path="url(#clip0_630_5279)">
<path d="M35.0859 8.27344L22.4609 0.773438C20.9531 -0.125 19.0938 -0.125 17.5859 0.773438L4.96094 8.27344C3.45313 9.16406 2.52344 10.8203 2.52344 12.6094V27.6016C2.52344 29.3906 3.45313 31.0469 4.96094 31.9375L17.5859 39.4297C18.3359 39.875 19.1797 40.1016 20.0234 40.1016C20.8672 40.1016 21.7031 39.875 22.4609 39.4297L35.0859 31.9375C36.5938 31.0391 37.5234 29.3906 37.5234 27.6016V12.6094C37.5234 10.8203 36.5938 9.16406 35.0859 8.27344Z" fill="white"/>
<path d="M35.0859 8.27344L22.4609 0.773437C21.7109 0.328125 20.8672 0.101562 20.0234 0.101562C19.1797 0.101562 18.3438 0.328125 17.5859 0.773437L4.96094 8.27344C3.45313 9.16406 2.52344 10.8203 2.52344 12.6094V27.6016C2.52344 29.3906 3.45313 31.0469 4.96094 31.9375L17.5859 39.4297C18.3359 39.875 19.1797 40.1016 20.0234 40.1016C20.8672 40.1016 21.7031 39.875 22.4609 39.4297L35.0859 31.9375C36.5938 31.0391 37.5234 29.3906 37.5234 27.6016V12.6094C37.5234 10.8203 36.5938 9.16406 35.0859 8.27344ZM18.0312 38.6641L5.40625 31.1719C4.17187 30.4375 3.40625 29.0703 3.40625 27.6016V12.6094C3.40625 11.1406 4.17187 9.77344 5.40625 9.03906L18.0312 1.54688C18.6406 1.1875 19.3281 1 20.0234 1C20.7187 1 21.4141 1.1875 22.0156 1.54688L34.6406 9.03906C35.6797 9.65625 36.3828 10.7266 36.5781 11.9297C36.1562 11.0391 35.2188 10.7891 34.1172 11.4375L22.1719 18.8203C20.6797 19.6875 19.5859 20.6719 19.5859 22.4609V37.1797C19.5859 38.2578 20.0156 38.9531 20.6875 39.1562C20.4687 39.1953 20.25 39.2188 20.0234 39.2188C19.3281 39.2109 18.6328 39.0234 18.0312 38.6641Z" fill="#283037"/>
<path d="M31.7812 29.0469L28.6328 30.9297C28.5469 30.9766 28.4844 31.0313 28.4844 31.1328V31.9532C28.4844 32.0547 28.5547 32.0938 28.6328 32.0469L31.8281 30.1094C31.9141 30.0625 31.9219 29.9688 31.9219 29.8672V29.1407C31.9297 29.0391 31.8594 29 31.7812 29.0469Z" fill="#4DA825"/>
<path d="M25.0859 22.125C25.1875 22.0703 25.2734 22.1406 25.2734 22.2734L25.2812 23.3594C25.7344 23.1797 26.1328 23.1328 26.4922 23.2109C26.5703 23.2344 26.6016 23.3359 26.5703 23.4609L26.3281 24.4219C26.3125 24.4922 26.2656 24.5703 26.2188 24.6172C26.1953 24.6406 26.1797 24.6562 26.1562 24.664C26.125 24.6797 26.0938 24.6875 26.0625 24.6797C25.8984 24.6406 25.5078 24.5547 24.8984 24.8672C24.2578 25.1953 24.0313 25.75 24.0391 26.164C24.0469 26.6562 24.2969 26.8125 25.1719 26.8203C26.3359 26.8359 26.8438 27.3515 26.8516 28.5234C26.8672 29.6797 26.25 30.914 25.3047 31.6797L25.3281 32.7578C25.3281 32.8906 25.2422 33.039 25.1406 33.0859L24.5 33.4531C24.3984 33.5078 24.3125 33.4453 24.3125 33.3125L24.3047 32.25C23.7578 32.4765 23.2031 32.5312 22.8516 32.3906C22.7812 32.3672 22.7578 32.2656 22.7813 32.1562L23.0156 31.1797C23.0313 31.1015 23.0781 31.0234 23.1328 30.9765C23.1563 30.9609 23.1719 30.9453 23.1953 30.9297C23.2344 30.914 23.2656 30.9062 23.2969 30.9219C23.6797 31.0469 24.1641 30.9922 24.6328 30.75C25.2266 30.4453 25.625 29.8437 25.6172 29.2344C25.6094 28.6875 25.3125 28.4609 24.5937 28.4531C23.6797 28.4531 22.8203 28.2734 22.8047 26.9219C22.7969 25.8125 23.375 24.6562 24.2891 23.9219L24.2812 22.8359C24.2812 22.7031 24.3594 22.5547 24.4688 22.5L25.0859 22.125Z" fill="white"/>
</g>
<defs>
<clipPath id="clip0_630_5279">
<rect width="40" height="40" fill="white"/>
</clipPath>
</defs>
</svg>
