<svg width="40" height="40" viewBox="0 0 40 40" fill="none" xmlns="http://www.w3.org/2000/svg">
<g clip-path="url(#clip0_630_5309)">
<g clip-path="url(#clip1_630_5309)">
<path d="M3.17037 13.9094H9.0963C9.80513 13.8549 10.5167 13.9704 11.1731 14.2467C11.8295 14.523 12.4123 14.9522 12.8741 15.4994C13.2852 16.1119 13.5671 16.8037 13.7022 17.5315C13.8373 18.2593 13.8227 19.0076 13.6593 19.7294C13.5484 20.5653 13.3137 21.3794 12.963 22.1444C12.6072 22.9432 12.1044 23.6661 11.4815 24.2744C10.8518 24.9966 10.0282 25.5178 9.11111 25.7744C8.25962 25.9975 7.38324 26.1084 6.5037 26.1044H3.91111L3.08148 30.4994H0L3.17037 13.9094ZM5.74815 16.5494L4.44444 23.4944H5.02222C6.21785 23.5421 7.41329 23.3952 8.56296 23.0594C9.4963 22.7294 10.1333 21.5594 10.4593 19.6844C10.7259 18.0644 10.4593 17.1344 9.65926 16.8794C8.69484 16.6117 7.69556 16.4953 6.6963 16.5344H6.17778H5.73333L5.74815 16.5494Z" fill="#111013"/>
<path d="M17.1697 9.5H20.2216L19.3475 13.91H22.1031C23.2989 13.8566 24.4794 14.1989 25.466 14.885C26.2216 15.5 26.4438 16.67 26.1327 18.41L24.6512 26.105H21.5401L23.0216 18.755C23.1076 18.4846 23.1401 18.1997 23.1172 17.9166C23.0944 17.6334 23.0165 17.3576 22.8882 17.105C22.6899 16.9218 22.4549 16.7842 22.1992 16.7013C21.9436 16.6185 21.6733 16.5924 21.4068 16.625H18.9475L17.0364 26.105H13.9697L17.1697 9.5Z" fill="#111013"/>
<path d="M29.4079 13.9089H35.3338C36.0447 13.8555 36.7581 13.9716 37.4167 14.2477C38.0753 14.5238 38.6609 14.9523 39.1264 15.4989C39.535 16.1125 39.8143 16.8048 39.9469 17.5326C40.0794 18.2604 40.0624 19.008 39.8968 19.7289C39.7914 20.5641 39.5616 21.3783 39.2153 22.1439C38.8532 22.939 38.3512 23.6608 37.7338 24.2739C37.1042 24.9961 36.2806 25.5173 35.3635 25.7739C34.5123 25.9988 33.6357 26.1098 32.7561 26.1039H30.1635L29.319 30.4989H26.2375L29.4079 13.9089ZM32.0005 16.5489L30.6672 23.4939H31.245C32.4406 23.5426 33.6362 23.3957 34.7857 23.0589C35.7733 22.7289 36.4104 21.6039 36.6968 19.6839C36.9487 18.0639 36.6968 17.1339 35.8968 16.8789C34.9321 16.6128 33.933 16.4964 32.9338 16.5339H32.4301H31.9561L32.0005 16.5489Z" fill="#111013"/>
</g>
</g>
<defs>
<clipPath id="clip0_630_5309">
<rect width="40" height="40" rx="10" fill="white"/>
</clipPath>
<clipPath id="clip1_630_5309">
<rect width="40" height="21" fill="white" transform="translate(0 9.5)"/>
</clipPath>
</defs>
</svg>
