<svg width="40" height="40" viewBox="0 0 40 40" fill="none" xmlns="http://www.w3.org/2000/svg">
<g clip-path="url(#clip0_630_5305)">
<rect width="40" height="40" rx="10" fill="#FAFBFD"/>
<g clip-path="url(#clip1_630_5305)">
<path d="M40 0H0V40H40V0Z" fill="#F7DF1E"/>
<path d="M25.8383 29.5624C26.5231 30.6806 27.4142 31.5025 28.99 31.5025C30.3139 31.5025 31.1596 30.8409 31.1596 29.9266C31.1596 28.8311 30.2907 28.4431 28.8335 27.8057L28.0348 27.463C25.7293 26.4808 24.1976 25.2503 24.1976 22.649C24.1976 20.2528 26.0234 18.4287 28.8767 18.4287C30.9081 18.4287 32.3684 19.1357 33.4208 20.9868L30.9329 22.5843C30.3851 21.602 29.7942 21.2151 28.8767 21.2151C27.9409 21.2151 27.3478 21.8087 27.3478 22.5843C27.3478 23.5427 27.9414 23.9308 29.3122 24.5244L30.1109 24.8666C32.8256 26.0307 34.3582 27.2174 34.3582 29.8856C34.3582 32.7621 32.0986 34.338 29.064 34.338C26.0968 34.338 24.1798 32.924 23.2419 31.0708L25.8383 29.5624ZM14.5519 29.8392C15.0538 30.7297 15.5104 31.4826 16.6081 31.4826C17.6578 31.4826 18.32 31.0719 18.32 29.4749V18.6111H21.5149V29.5181C21.5149 32.8264 19.5753 34.3321 16.7441 34.3321C14.186 34.3321 12.7046 33.0082 11.9512 31.4137L14.5519 29.8392Z" fill="black"/>
</g>
</g>
<defs>
<clipPath id="clip0_630_5305">
<rect width="40" height="40" rx="10" fill="white"/>
</clipPath>
<clipPath id="clip1_630_5305">
<rect width="40" height="40" fill="white"/>
</clipPath>
</defs>
</svg>
