<svg width="40" height="40" viewBox="0 0 40 40" fill="none" xmlns="http://www.w3.org/2000/svg">
<g clip-path="url(#clip0_630_5375)">
<path fill-rule="evenodd" clip-rule="evenodd" d="M19.0639 3.25C20.7323 3.25 22.2523 4.21185 22.9707 5.71993L28.6942 17.7608C28.6942 17.7608 28.6942 17.7667 28.6883 17.7667C28.6883 17.7667 28.6883 17.7608 28.6942 17.7608C30.0361 16.1162 31.0098 14.1806 31.4254 12.1025C31.8945 9.7573 34.1744 8.24328 36.5196 8.70639C37.0772 8.81777 37.6073 9.03791 38.0797 9.35423C38.5522 9.67054 38.9577 10.0768 39.2731 10.5499C39.5884 11.023 39.8075 11.5536 39.9178 12.1113C40.0281 12.6691 40.0274 13.2431 39.9157 13.8006C38.9539 18.6039 36.2702 22.8966 32.6366 26.0493L34.7147 30.4191C35.8665 32.8416 34.6612 35.8043 32.1082 36.5642L32.031 36.588C31.651 36.6949 31.2592 36.7483 30.8792 36.7483C29.2583 36.7483 27.7086 35.834 26.9665 34.2784L25.12 30.3954L21.3617 22.4869L19.5152 18.6039C19.475 18.5198 19.4119 18.4488 19.3331 18.3991C19.2543 18.3493 19.163 18.323 19.0699 18.323C18.9767 18.323 18.8854 18.3493 18.8066 18.3991C18.7278 18.4488 18.6647 18.5198 18.6246 18.6039L16.7365 22.57C13.8569 21.9585 10.9595 20.1773 9.3208 18.0102L15.1572 5.7318C15.5046 4.98918 16.0568 4.36115 16.7488 3.92152C17.4409 3.48189 18.244 3.24893 19.0639 3.25ZM2.70664 13.9253C4.92126 13.0288 7.44461 14.0975 8.34115 16.318C8.5727 16.8939 8.9052 17.458 9.31487 17.9983L9.3208 18.0042L9.51674 18.2536C9.53455 18.2773 9.55236 18.2951 9.57017 18.3189L9.62361 18.3842C9.65329 18.4139 9.67704 18.4495 9.70673 18.4792C9.71267 18.4851 9.7186 18.4911 9.7186 18.497L9.70673 18.4792C9.81954 18.6158 9.94422 18.7464 10.0689 18.877C10.0748 18.8829 10.0748 18.8889 10.0808 18.8889C10.4905 19.3164 10.9476 19.7201 11.4404 20.0942C11.672 20.2723 11.9095 20.4385 12.1529 20.6048C12.1767 20.6166 12.1945 20.6344 12.2182 20.6463C13.5897 21.5488 15.1631 22.2256 16.7306 22.5581C17.3955 22.7006 18.0605 22.7778 18.7077 22.7838H18.7908C19.6517 22.7838 20.5126 22.6769 21.3557 22.475L25.114 30.3835C23.0835 31.0663 20.952 31.4403 18.7908 31.4403C16.8434 31.4403 14.8722 31.1019 12.9604 30.4904L11.1614 34.2724C10.9101 34.8007 10.5544 35.2725 10.1157 35.6594C9.67696 36.0462 9.16434 36.3401 8.60881 36.5233C8.05329 36.7064 7.46639 36.775 6.88361 36.7249C6.30082 36.6748 5.73424 36.507 5.21813 36.2318C3.15194 35.1334 2.3979 32.5447 3.40131 30.431L5.37249 26.2868C3.146 24.4046 1.37075 22.1188 0.343597 19.637L0.313909 19.5598C-0.576687 17.3452 0.492027 14.8218 2.70664 13.9253Z" fill="black"/>
<path fill-rule="evenodd" clip-rule="evenodd" d="M19.0639 3.25C20.7323 3.25 22.2523 4.21185 22.9707 5.71993L28.6942 17.7608C28.6942 17.7608 28.6942 17.7667 28.6883 17.7667C28.6883 17.7667 28.6883 17.7608 28.6942 17.7608C30.0361 16.1162 31.0098 14.1806 31.4254 12.1025C31.8945 9.7573 34.1744 8.24328 36.5196 8.70639C37.0772 8.81777 37.6073 9.03791 38.0797 9.35423C38.5522 9.67054 38.9577 10.0768 39.2731 10.5499C39.5884 11.023 39.8075 11.5536 39.9178 12.1113C40.0281 12.6691 40.0274 13.2431 39.9157 13.8006C38.9539 18.6039 36.2702 22.8966 32.6366 26.0493L34.7147 30.4191C35.8665 32.8416 34.6612 35.8043 32.1082 36.5642L32.031 36.588C31.651 36.6949 31.2592 36.7483 30.8792 36.7483C29.2583 36.7483 27.7086 35.834 26.9665 34.2784L25.12 30.3954L21.3617 22.4869L19.5152 18.6039C19.475 18.5198 19.4119 18.4488 19.3331 18.3991C19.2543 18.3493 19.163 18.323 19.0699 18.323C18.9767 18.323 18.8854 18.3493 18.8066 18.3991C18.7278 18.4488 18.6647 18.5198 18.6246 18.6039L16.7365 22.57C13.8569 21.9585 10.9595 20.1773 9.3208 18.0102L15.1572 5.7318C15.5046 4.98918 16.0568 4.36115 16.7488 3.92152C17.4409 3.48189 18.244 3.24893 19.0639 3.25ZM2.70664 13.9253C4.92126 13.0288 7.44461 14.0975 8.34115 16.318C8.5727 16.8939 8.9052 17.458 9.31487 17.9983L9.3208 18.0042L9.51674 18.2536C9.53455 18.2773 9.55236 18.2951 9.57017 18.3189L9.62361 18.3842C9.65329 18.4139 9.67704 18.4495 9.70673 18.4792C9.71267 18.4851 9.7186 18.4911 9.7186 18.497L9.70673 18.4792C9.81954 18.6158 9.94422 18.7464 10.0689 18.877C10.0748 18.8829 10.0748 18.8889 10.0808 18.8889C10.4905 19.3164 10.9476 19.7201 11.4404 20.0942C11.672 20.2723 11.9095 20.4385 12.1529 20.6048C12.1767 20.6166 12.1945 20.6344 12.2182 20.6463C13.5897 21.5488 15.1631 22.2256 16.7306 22.5581C17.3955 22.7006 18.0605 22.7778 18.7077 22.7838H18.7908C19.6517 22.7838 20.5126 22.6769 21.3557 22.475L25.114 30.3835C23.0835 31.0663 20.952 31.4403 18.7908 31.4403C16.8434 31.4403 14.8722 31.1019 12.9604 30.4904L11.1614 34.2724C10.9101 34.8007 10.5544 35.2725 10.1157 35.6594C9.67696 36.0462 9.16434 36.3401 8.60881 36.5233C8.05329 36.7064 7.46639 36.775 6.88361 36.7249C6.30082 36.6748 5.73424 36.507 5.21813 36.2318C3.15194 35.1334 2.3979 32.5447 3.40131 30.431L5.37249 26.2868C3.146 24.4046 1.37075 22.1188 0.343597 19.637L0.313909 19.5598C-0.576687 17.3452 0.492027 14.8218 2.70664 13.9253Z" fill="white"/>
<path d="M28.6942 17.7608L22.9707 5.71993C22.2523 4.21185 20.7323 3.25 19.0639 3.25C18.2441 3.24893 17.4409 3.48189 16.7488 3.92152C16.0568 4.36115 15.5046 4.98918 15.1572 5.7318L9.3208 18.0102C10.9595 20.1773 13.8569 21.9585 16.7365 22.57L18.6246 18.6039C18.6647 18.5198 18.7278 18.4488 18.8066 18.3991C18.8854 18.3493 18.9767 18.323 19.0699 18.323C19.163 18.323 19.2543 18.3493 19.3331 18.3991C19.4119 18.4488 19.475 18.5198 19.5152 18.6039L21.3617 22.4869M28.6942 17.7608C28.6942 17.7608 28.6942 17.7667 28.6883 17.7667C28.6883 17.7667 28.6883 17.7608 28.6942 17.7608ZM28.6942 17.7608C30.0361 16.1162 31.0098 14.1806 31.4254 12.1025C31.8945 9.7573 34.1744 8.24328 36.5196 8.70639C37.0772 8.81777 37.6073 9.03791 38.0797 9.35423C38.5522 9.67054 38.9577 10.0768 39.2731 10.5499C39.5884 11.023 39.8075 11.5536 39.9178 12.1113C40.0281 12.6691 40.0274 13.2431 39.9157 13.8006C38.9539 18.6039 36.2702 22.8966 32.6366 26.0493L34.7147 30.4191C35.8665 32.8416 34.6612 35.8043 32.1082 36.5642L32.031 36.588C31.651 36.6949 31.2592 36.7483 30.8792 36.7483C29.2583 36.7483 27.7086 35.834 26.9665 34.2784L25.12 30.3954L21.3617 22.4869M21.3617 22.4869H21.3735M9.70673 18.4792C9.67704 18.4495 9.65329 18.4139 9.62361 18.3842L9.57017 18.3189C9.55236 18.2951 9.53455 18.2773 9.51674 18.2536L9.3208 18.0042L9.31487 17.9983C8.9052 17.458 8.5727 16.8939 8.34115 16.318C7.44461 14.0975 4.92126 13.0288 2.70664 13.9253C0.492027 14.8218 -0.576687 17.3452 0.313909 19.5598L0.343597 19.637C1.37075 22.1188 3.146 24.4046 5.37249 26.2868L3.40131 30.431C2.3979 32.5447 3.15194 35.1334 5.21813 36.2318C5.73424 36.507 6.30082 36.6748 6.88361 36.7249C7.46639 36.775 8.05329 36.7064 8.60881 36.5233C9.16434 36.3401 9.67696 36.0462 10.1157 35.6594C10.5544 35.2725 10.9101 34.8007 11.1614 34.2724L12.9604 30.4904C14.8722 31.1019 16.8434 31.4403 18.7908 31.4403C20.952 31.4403 23.0835 31.0663 25.114 30.3835L21.3557 22.475C20.5126 22.6769 19.6517 22.7838 18.7908 22.7838H18.7077C18.0605 22.7778 17.3955 22.7006 16.7306 22.5581C15.1631 22.2256 13.5897 21.5488 12.2182 20.6463C12.1945 20.6344 12.1767 20.6166 12.1529 20.6048C11.9095 20.4385 11.672 20.2723 11.4404 20.0941C10.9476 19.7201 10.4905 19.3164 10.0808 18.8889C10.0748 18.8889 10.0748 18.8829 10.0689 18.877C9.94422 18.7464 9.81954 18.6158 9.70673 18.4792ZM9.70673 18.4792C9.71267 18.4851 9.7186 18.4911 9.7186 18.497L9.70673 18.4792Z" stroke="white" stroke-width="5.54735" stroke-linejoin="round"/>
<path fill-rule="evenodd" clip-rule="evenodd" d="M12.9609 30.4901L16.7311 22.5579C13.8515 21.9464 10.9541 20.1652 9.31542 17.998L5.37305 26.2865C7.56391 28.1449 10.1941 29.6055 12.9609 30.4901Z" fill="#1A007F"/>
<path fill-rule="evenodd" clip-rule="evenodd" d="M28.695 17.7607C26.801 20.0822 24.1707 21.8041 21.3564 22.475L25.1148 30.3835C27.8578 29.4572 30.4227 27.961 32.6373 26.0433L28.695 17.7607Z" fill="#4E000A"/>
<path fill-rule="evenodd" clip-rule="evenodd" d="M5.37178 26.287L3.40059 30.4312C2.39719 32.539 3.15123 35.1336 5.21741 36.232C7.40828 37.3957 10.1038 36.4873 11.1607 34.2727L12.9597 30.4906C10.1816 29.595 7.60437 28.1672 5.37178 26.287Z" fill="#1A007F"/>
<path fill-rule="evenodd" clip-rule="evenodd" d="M36.5197 8.71314C35.9622 8.60152 35.3882 8.60083 34.8304 8.7111C34.2727 8.82138 33.7421 9.04046 33.269 9.35584C32.7959 9.67122 32.3896 10.0767 32.0733 10.5492C31.757 11.0216 31.5369 11.5517 31.4255 12.1093C31.0099 14.1873 30.0362 16.1229 28.6943 17.7675L32.6308 26.056C36.2644 22.9033 38.9481 18.6106 39.9099 13.8074C40.379 11.4562 38.859 9.17625 36.5197 8.71314Z" fill="#FF9396"/>
<path fill-rule="evenodd" clip-rule="evenodd" d="M21.3557 22.4748C20.5126 22.6767 19.6517 22.7836 18.7908 22.7836C18.1199 22.7836 17.4252 22.7064 16.7306 22.558C13.851 21.9464 10.9536 20.1652 9.31487 17.9981C8.9052 17.4578 8.5727 16.8938 8.34115 16.3178C7.44461 14.1032 4.92126 13.0345 2.70664 13.9251C0.492027 14.8216 -0.576687 17.345 0.313909 19.5596C1.32919 22.077 3.12225 24.3867 5.37249 26.2866C7.60293 28.1667 10.1782 29.5945 12.9544 30.4902C14.8603 31.1017 16.8374 31.4402 18.7849 31.4402C20.9461 31.4402 23.0775 31.0661 25.1081 30.3833L21.3557 22.4748Z" fill="#002DC8"/>
<path fill-rule="evenodd" clip-rule="evenodd" d="M34.7092 30.4132L32.6312 26.0433L28.6947 17.7608L28.6888 17.7667C28.6888 17.7667 28.6888 17.7608 28.6947 17.7608L22.9712 5.71992C22.6198 4.98121 22.0664 4.35714 21.375 3.92001C20.6835 3.48288 19.8824 3.25057 19.0644 3.25C17.396 3.25 15.8761 4.21185 15.1577 5.71992L9.32129 17.9983C10.96 20.1654 13.8574 21.9466 16.737 22.5581L18.6251 18.592C18.8032 18.218 19.3375 18.218 19.5156 18.592L21.3622 22.475L25.1205 30.3835L26.967 34.2665C27.3181 35.0067 27.8723 35.6318 28.565 36.0691C29.2577 36.5064 30.0605 36.7378 30.8797 36.7364C31.2656 36.7364 31.6515 36.683 32.0315 36.5761C34.638 35.8577 35.8729 32.8594 34.7092 30.4132Z" fill="#FF536A"/>
<path fill-rule="evenodd" clip-rule="evenodd" d="M12.9609 30.4901L16.7311 22.5579C13.8515 21.9464 10.9541 20.1652 9.31542 17.998L5.37305 26.2865C7.56391 28.1449 10.1941 29.6055 12.9609 30.4901Z" fill="#1A007F"/>
<path fill-rule="evenodd" clip-rule="evenodd" d="M28.695 17.7607C26.801 20.0822 24.1707 21.804 21.3564 22.475L25.1148 30.3835C27.8578 29.4572 30.4227 27.961 32.6373 26.0433L28.695 17.7607Z" fill="#4E000A"/>
<path fill-rule="evenodd" clip-rule="evenodd" d="M5.37178 26.287L3.40059 30.4312C2.39719 32.539 3.15123 35.1336 5.21741 36.232C7.40828 37.3957 10.1038 36.4873 11.1607 34.2727L12.9597 30.4906C10.1816 29.595 7.60438 28.1672 5.37178 26.287Z" fill="#1A007F"/>
<path fill-rule="evenodd" clip-rule="evenodd" d="M36.5197 8.71314C35.9622 8.60152 35.3882 8.60082 34.8304 8.7111C34.2727 8.82138 33.7421 9.04046 33.269 9.35584C32.796 9.67122 32.3897 10.0767 32.0733 10.5492C31.757 11.0216 31.5369 11.5517 31.4255 12.1093C31.0099 14.1873 30.0362 16.1229 28.6943 17.7675L32.6308 26.056C36.2644 22.9033 38.9481 18.6106 39.9099 13.8074C40.379 11.4562 38.859 9.17625 36.5197 8.71314Z" fill="#FF9396"/>
<path fill-rule="evenodd" clip-rule="evenodd" d="M21.3557 22.4748C20.5126 22.6767 19.6517 22.7836 18.7908 22.7836C18.1199 22.7836 17.4252 22.7064 16.7306 22.558C13.851 21.9464 10.9536 20.1652 9.31487 17.9981C8.90519 17.4578 8.57271 16.8938 8.34115 16.3179C7.44462 14.1032 4.92126 13.0345 2.70664 13.9251C0.492028 14.8216 -0.576688 17.345 0.313909 19.5596C1.32919 22.077 3.12226 24.3867 5.3725 26.2866C7.60294 28.1667 10.1782 29.5945 12.9544 30.4902C14.8603 31.1017 16.8374 31.4402 18.7849 31.4402C20.9461 31.4402 23.0775 31.0661 25.1081 30.3833L21.3557 22.4748Z" fill="#002DC8"/>
<path fill-rule="evenodd" clip-rule="evenodd" d="M34.7092 30.4132L32.6312 26.0433L28.6947 17.7608L28.6888 17.7667C28.6888 17.7667 28.6888 17.7608 28.6947 17.7608L22.9712 5.71992C22.6198 4.9812 22.0664 4.35714 21.375 3.92001C20.6835 3.48288 19.8824 3.25057 19.0644 3.25C17.396 3.25 15.8761 4.21184 15.1577 5.71992L9.32129 17.9983C10.96 20.1654 13.8574 21.9466 16.737 22.5581L18.625 18.592C18.8032 18.218 19.3375 18.218 19.5156 18.592L21.3621 22.475L25.1205 30.3835L26.967 34.2665C27.3181 35.0067 27.8722 35.6318 28.565 36.0691C29.2577 36.5064 30.0604 36.7378 30.8797 36.7364C31.2656 36.7364 31.6515 36.683 32.0315 36.5761C34.638 35.8577 35.8729 32.8594 34.7092 30.4132Z" fill="#FF536A"/>
</g>
<defs>
<clipPath id="clip0_630_5375">
<rect width="40" height="40" rx="10" fill="white"/>
</clipPath>
</defs>
</svg>
