<svg width="40" height="40" viewBox="0 0 40 40" fill="none" xmlns="http://www.w3.org/2000/svg">
<path d="M3.01736 16.6479C2.93945 16.6479 2.91998 16.6036 2.95893 16.5371L3.36794 15.939C3.40689 15.8726 3.50427 15.8282 3.58218 15.8282H10.5353C10.6132 15.8282 10.6327 15.8947 10.5937 15.9612L10.2626 16.5371C10.2237 16.6036 10.1263 16.6701 10.0678 16.6701L3.01736 16.6479Z" fill="#111013"/>
<path d="M0.0779058 18.6851C0 18.6851 -0.0194765 18.6408 0.0194765 18.5744L0.428482 17.9762C0.467435 17.9098 0.564817 17.8655 0.642723 17.8655H9.52399C9.60189 17.8655 9.64085 17.9319 9.62137 17.9984L9.46556 18.5301C9.44608 18.6187 9.36818 18.663 9.29027 18.663L0.0779058 18.6851Z" fill="#111013"/>
<path d="M4.78982 20.724C4.71191 20.724 4.69244 20.6575 4.73139 20.591L5.00406 20.0372C5.04301 19.9708 5.12092 19.9043 5.19883 19.9043H9.09412C9.17202 19.9043 9.21098 19.9708 9.21098 20.0594L9.17202 20.591C9.17202 20.6796 9.09412 20.7461 9.03569 20.7461L4.78982 20.724Z" fill="#111013"/>
<path d="M25.0047 16.2483C23.7777 16.6028 22.9402 16.8686 21.7327 17.2231C21.4405 17.3117 21.421 17.3338 21.1678 17.0015C20.8757 16.6249 20.6614 16.3812 20.2524 16.1597C19.0254 15.473 17.8374 15.6724 16.7272 16.492C15.4028 17.4667 14.7211 18.9067 14.7406 20.7011C14.7601 22.4733 15.8313 23.9354 17.3699 24.1791C18.6943 24.3784 19.8045 23.8468 20.6809 22.717C20.8562 22.4733 21.012 22.2075 21.2068 21.8973C20.5056 21.8973 19.6292 21.8973 17.4478 21.8973C17.0388 21.8973 16.9414 21.6093 17.0778 21.2327C17.331 20.546 17.7984 19.394 18.0711 18.8181C18.1295 18.6851 18.2658 18.4636 18.558 18.4636C19.5513 18.4636 23.2129 18.4636 25.6474 18.4636C25.6085 19.0617 25.6085 19.6599 25.5306 20.258C25.3163 21.853 24.7905 23.3151 23.9335 24.6C22.5312 26.7045 20.7004 28.0115 18.3827 28.366C16.474 28.654 14.7017 28.2331 13.1435 26.9039C11.7023 25.6633 10.8843 24.024 10.67 21.9859C10.4168 19.5713 11.0401 17.4003 12.3255 15.4951C13.7084 13.4349 15.5391 12.1279 17.7789 11.6627C19.6097 11.2861 21.3626 11.5298 22.9402 12.7482C23.9724 13.5235 24.7126 14.5869 25.1995 15.8717C25.3163 16.0711 25.2384 16.1819 25.0047 16.2483Z" fill="#111013"/>
<path d="M31.4521 28.4998C29.6797 28.4555 28.0632 27.8795 26.6998 26.5504C25.5507 25.4206 24.8301 23.9806 24.5964 22.2748C24.2458 19.7716 24.8496 17.5563 26.174 15.5847C27.5958 13.458 29.3097 12.3503 31.6274 11.8851C33.614 11.4864 35.4837 11.7079 37.1782 13.0149C38.7168 14.2112 39.6712 15.8283 39.9244 17.955C40.2555 20.9457 39.4959 23.3825 37.6846 25.4649C36.3991 26.9491 34.8215 27.8795 33.0102 28.3004C32.4843 28.4112 31.9585 28.4334 31.4521 28.4998ZM36.0875 19.55C36.068 19.262 36.068 19.0405 36.0291 18.819C35.6785 16.6258 33.9061 15.3853 32.0559 15.8727C30.2446 16.3379 29.076 17.6449 28.6475 19.7273C28.2969 21.4552 29.037 23.2053 30.4393 23.9142C31.5105 24.4458 32.5817 24.3794 33.614 23.7812C35.1526 22.873 35.9901 21.4552 36.0875 19.55Z" fill="#111013"/>
</svg>
