<svg width="40" height="40" viewBox="0 0 40 40" fill="none" xmlns="http://www.w3.org/2000/svg">
<path d="M37.0518 10.0518L20 20.0002L37.0518 29.9486C37.3036 29.5222 37.4575 29.0248 37.4994 28.5274V11.473C37.4575 10.9755 37.3036 10.4781 37.0518 10.0518ZM31.6523 20.6539H30.3654V21.9756H29.0645V20.6539H27.7635V19.3464H29.0645V18.0247H30.3654V19.3464H31.6523V20.6539ZM35.2753 20.6539V21.9756H33.9884V20.6539H32.5895V19.3464H33.9884V18.0247H35.2193V19.3464H36.5202L36.5762 20.6539H35.2753Z" fill="#111013"/>
<path d="M20 20L14.9642 22.9419C15.4538 23.823 16.1672 24.5905 17.0905 25.1305C19.8881 26.7649 23.4552 25.7843 25.0498 22.9561L30.0996 25.9264C28.0154 29.6073 24.1546 31.867 19.9721 31.867C15.6497 31.8528 11.8868 29.451 9.88647 25.898L2.94824 29.9484C3.20003 30.4174 3.57772 30.8153 4.02534 31.0996L18.4753 39.6268C19.4265 40.1242 20.5596 40.1242 21.5108 39.6268L35.9747 31.0996C36.4224 30.8153 36.7861 30.4174 37.0379 29.9484L20 20Z" fill="#111013"/>
<path d="M8.34713 19.9998C8.33314 15.7505 10.5713 11.8279 14.1943 9.71035C19.7756 6.4558 26.8957 8.40285 30.099 14.0734L25.0492 17.0437C24.5317 16.1342 23.7903 15.3809 22.909 14.8693C20.1113 13.2349 16.5443 14.2156 14.9496 17.0437C13.8725 18.9339 13.9705 21.1652 14.9636 22.9417L19.9994 19.9998L37.0372 10.0514C36.7855 9.58244 36.4218 9.18451 35.9741 8.90027L21.5102 0.373065C20.559 -0.124355 19.4259 -0.124355 18.4747 0.373065L4.02473 8.90027C3.14346 9.46875 2.58393 10.421 2.5 11.4726V28.527C2.54197 29.0245 2.69584 29.5219 2.94763 29.9482L9.88585 25.8978C8.90667 24.164 8.34713 22.1459 8.34713 19.9998Z" fill="#111013"/>
</svg>
