<svg width="40" height="40" viewBox="0 0 40 40" fill="none" xmlns="http://www.w3.org/2000/svg">
<g clip-path="url(#clip0_630_5417)">
<path d="M3.81253 31.3089L7.7819 33.5634L32.4319 6.43617L21.9375 0.472532C21.3865 0.153374 20.7614 -0.0146484 20.125 -0.0146484C19.4887 -0.0146484 18.8636 0.153374 18.3125 0.472532L3.81253 8.69071C3.25934 9.01109 2.80036 9.47242 2.48207 10.028C2.16379 10.5835 1.99749 11.2136 2.00003 11.8544V28.218C2.01012 28.8464 2.18239 29.4614 2.50005 30.0032C2.8177 30.5449 3.2699 30.9947 3.81253 31.3089Z" fill="#111013"/>
<path d="M36.4358 8.69009L32.4302 6.43555L7.81641 33.5628L18.3108 39.5265C18.8619 39.8456 19.487 40.0136 20.1233 40.0136C20.7596 40.0136 21.3847 39.8456 21.9358 39.5265L36.4358 31.3083C36.989 30.9879 37.448 30.5266 37.7662 29.971C38.0845 29.4155 38.2508 28.7854 38.2483 28.1446V11.781C38.2382 11.1526 38.0659 10.5375 37.7483 9.99584C37.4306 9.45413 36.9784 9.00425 36.4358 8.69009Z" fill="#111013"/>
<path d="M23.8767 17.4173H29.5135C29.2796 15.1703 28.1931 13.0996 26.4791 11.634C24.7651 10.1685 22.5548 9.42033 20.306 9.54458C18.9339 9.49113 17.5658 9.72685 16.2901 10.2365C15.0143 10.7462 13.8593 11.5185 12.8994 12.5036C11.9396 13.4887 11.1963 14.6647 10.7176 15.9558C10.2388 17.2468 10.0351 18.6242 10.1198 19.9991C10.0271 21.3683 10.2264 22.7416 10.7046 24.0274C11.1827 25.3132 11.9286 26.482 12.8925 27.4558C13.8564 28.4296 15.0162 29.1861 16.2946 29.6749C17.5729 30.1636 18.9405 30.3733 20.306 30.29C27.556 30.29 29.2598 25.09 29.2598 22.3264H23.8223C23.8332 22.7873 23.7431 23.2449 23.5582 23.6669C23.3733 24.089 23.0982 24.4651 22.7524 24.7686C22.4065 25.0722 21.9984 25.2958 21.5569 25.4236C21.1153 25.5514 20.6512 25.5803 20.1973 25.5082C16.7354 25.5082 16.1735 21.3809 16.1735 20.0537C16.1735 17.9082 16.9348 14.5991 20.1973 14.5991C21.0533 14.5089 21.9113 14.7506 22.5954 15.2746C23.2795 15.7985 23.7379 16.5652 23.8767 17.4173Z" fill="white"/>
</g>
<defs>
<clipPath id="clip0_630_5417">
<rect width="36.25" height="40" fill="white" transform="translate(2)"/>
</clipPath>
</defs>
</svg>
