<svg width="56" height="56" viewBox="0 0 56 56" fill="none" xmlns="http://www.w3.org/2000/svg">
<path d="M28.2415 8.00031C26.6354 8.00804 25.1022 8.14677 23.7525 8.38947C19.777 9.10286 19.0557 10.5961 19.0557 13.3504V16.9873H28.4496V18.1996H15.5299C12.8 18.1996 10.4094 19.8664 9.66145 23.0385C8.79864 26.6731 8.7606 28.9416 9.66145 32.7369C10.3291 35.5623 11.9239 37.575 14.6542 37.575H17.8844V33.215C17.8844 30.065 20.5668 27.2868 23.7529 27.2868H33.1361C35.7481 27.2868 37.8329 25.1017 37.8329 22.4375V13.3508C37.8329 10.7642 35.685 8.82153 33.1361 8.38985C31.5216 8.11702 29.8473 7.99296 28.2415 8.00031V8.00031ZM23.1613 10.9254C24.1314 10.9254 24.9242 11.7435 24.9242 12.7498C24.9242 13.7519 24.1318 14.5623 23.1613 14.5623C22.1874 14.5623 21.3988 13.7519 21.3988 12.7498C21.3984 11.7435 22.1874 10.9254 23.1613 10.9254V10.9254Z" fill="url(#paint0_linear_630_5275)"/>
<path d="M39.0051 18.1989V22.4367C39.0051 25.7216 36.263 28.4867 33.1366 28.4867H23.7534C21.1832 28.4867 19.0566 30.7216 19.0566 33.3363V42.4238C19.0566 45.0096 21.27 46.5311 23.7534 47.2727C26.7268 48.1604 29.5785 48.3211 33.1366 47.2727C35.5014 46.5767 37.8334 45.1769 37.8334 42.4238V38.7865H28.4505V37.5738H42.5309C45.2609 37.5738 46.2789 35.6396 47.2284 32.7358C48.2092 29.7466 48.1669 26.8717 47.2284 23.0373C46.5536 20.2761 45.265 18.1985 42.5309 18.1985H39.0051V18.1989ZM33.7274 41.2111C34.7017 41.2111 35.4903 42.0215 35.4903 43.0244C35.4903 44.0299 34.7013 44.8481 33.7274 44.8481C32.7574 44.8481 31.9649 44.0299 31.9649 43.0244C31.9649 42.0215 32.7574 41.2111 33.7274 41.2111V41.2111Z" fill="url(#paint1_linear_630_5275)"/>
<defs>
<linearGradient id="paint0_linear_630_5275" x1="8.05828" y1="9.1375" x2="30.0112" y2="27.5668" gradientUnits="userSpaceOnUse">
<stop stop-color="#5A9FD4"/>
<stop offset="1" stop-color="#306998"/>
</linearGradient>
<linearGradient id="paint1_linear_630_5275" x1="37.8779" y1="39.5746" x2="29.945" y2="28.6236" gradientUnits="userSpaceOnUse">
<stop stop-color="#FFD43B"/>
<stop offset="1" stop-color="#FFE873"/>
</linearGradient>
</defs>
</svg>
