<svg width="40" height="40" viewBox="0 0 40 40" fill="none" xmlns="http://www.w3.org/2000/svg">
<path d="M4.51074 29.6514C3.27287 29.6514 2 30.6271 2 32.3349C2 33.8962 3.11914 34.999 4.51074 34.999C5.65942 34.999 6.17138 34.2406 6.17138 34.2406V34.5712C6.17138 34.7274 6.32157 34.9018 6.50746 34.9018H7.33778V29.768H6.17138V30.4195C6.17138 30.4195 5.65514 29.6514 4.51074 29.6514V29.6514ZM4.71852 30.7011C5.73754 30.7011 6.27208 31.5826 6.27208 32.3345C6.27208 33.172 5.63742 33.9674 4.72068 33.9674C3.95434 33.9674 3.18668 33.3569 3.18668 32.3235C3.18668 31.3906 3.8473 30.7011 4.71852 30.7011Z" fill="black" fill-opacity="0.5"/>
<path d="M8.95913 34.9024C8.77992 34.9024 8.62305 34.7759 8.62305 34.5718V29.7686H9.78944V30.4039C10.0538 30.0132 10.5701 29.6504 11.3627 29.6504C12.6582 29.6504 13.348 30.6662 13.348 31.616V34.9023H12.5374C12.3249 34.9023 12.1816 34.7273 12.1816 34.5523V31.8688C12.1816 31.3423 11.8536 30.7029 11.0952 30.7029C10.2768 30.7029 9.78946 31.4637 9.78946 32.1799V34.9023L8.95913 34.9024Z" fill="black" fill-opacity="0.5"/>
<path d="M16.7472 29.6521C15.5093 29.6521 14.2365 30.6278 14.2365 32.3356C14.2365 33.8969 15.3556 34.9997 16.7472 34.9997C17.8959 34.9997 18.4078 34.2413 18.4078 34.2413V34.5719C18.4078 34.7282 18.558 34.9025 18.7439 34.9025H19.5742V27.2019H18.4078V30.4202C18.4078 30.4202 17.8916 29.6521 16.7472 29.6521V29.6521ZM16.9549 30.7018C17.974 30.7018 18.5085 31.5834 18.5085 32.3353C18.5085 33.1727 17.8738 33.9681 16.9571 33.9681C16.1908 33.9681 15.4231 33.3576 15.4231 32.3242C15.4231 31.3914 16.0837 30.7018 16.9549 30.7018Z" fill="black" fill-opacity="0.5"/>
<path d="M21.1955 34.901C21.0163 34.901 20.8594 34.7746 20.8594 34.5705V29.7673H22.0258V30.6229C22.2265 30.1436 22.6598 29.709 23.4294 29.709C23.644 29.709 23.8446 29.7479 23.8446 29.7479V30.9341C23.8446 30.9341 23.5941 30.8368 23.291 30.8368C22.4726 30.8368 22.0258 31.5976 22.0258 32.3139V34.901H21.1955Z" fill="black" fill-opacity="0.5"/>
<path d="M30.922 34.9013C30.7428 34.9013 30.5859 34.7749 30.5859 34.5707V29.7676H31.7523V34.9013L30.922 34.9013Z" fill="black" fill-opacity="0.5"/>
<path d="M35.1728 29.6523C33.935 29.6523 32.6621 30.628 32.6621 32.3359C32.6621 33.8972 33.7813 35 35.1728 35C36.3215 35 36.8335 34.2416 36.8335 34.2416V34.5722C36.8335 34.7284 36.9837 34.9027 37.1696 34.9027H37.9999V27.2021H36.8335V30.4204C36.8335 30.4204 36.3172 29.6523 35.1728 29.6523V29.6523ZM35.3806 30.7021C36.3996 30.7021 36.9342 31.5836 36.9342 32.3355C36.9342 33.173 36.2995 33.9684 35.3828 33.9684C34.6164 33.9684 33.8488 33.3579 33.8488 32.3245C33.8488 31.3916 34.5094 30.7021 35.3806 30.7021Z" fill="black" fill-opacity="0.5"/>
<path d="M31.162 28.6608C31.5879 28.6608 31.9332 28.3211 31.9332 27.9022C31.9332 27.4832 31.5879 27.1436 31.162 27.1436C30.736 27.1436 30.3907 27.4832 30.3907 27.9022C30.3907 28.3211 30.736 28.6608 31.162 28.6608Z" fill="black" fill-opacity="0.5"/>
<path d="M26.9209 29.6484C25.6245 29.6484 24.2002 30.6003 24.2002 32.3246C24.2002 33.8958 25.4134 34.998 26.918 34.998C28.7724 34.998 29.6779 33.5316 29.6779 32.3345C29.6779 30.8655 28.5119 29.6484 26.9209 29.6484ZM26.9251 30.7199C27.8216 30.7199 28.4903 31.4306 28.4903 32.3278C28.4903 33.2406 27.7804 33.9449 26.9278 33.9449C26.1362 33.9449 25.3668 33.3113 25.3668 32.3431C25.3668 31.3588 26.0986 30.7199 26.9251 30.7199Z" fill="black" fill-opacity="0.5"/>
<path d="M28.1173 10.4783L30.8773 5.81904C31.033 5.55784 30.9388 5.22604 30.6744 5.07426C30.41 4.92248 30.0659 5.01072 29.9138 5.27192L27.1176 9.99122C24.9842 9.04171 22.5828 8.51224 20.0003 8.51224C17.4178 8.51224 15.0164 9.04171 12.883 9.99122L10.0868 5.27192C9.93101 5.01072 9.59054 4.92248 9.32251 5.07426C9.05448 5.22604 8.96392 5.55784 9.11967 5.81904L11.8797 10.4783C7.12031 12.9915 3.89669 17.6861 3.36426 23.1819H36.6363C36.1039 17.6861 32.8803 12.9915 28.1173 10.4783H28.1173ZM12.3614 18.6286C11.5899 18.6286 10.9669 18.0179 10.9669 17.2696C10.9669 16.5178 11.5935 15.9106 12.3614 15.9106C13.1329 15.9106 13.7559 16.5213 13.7559 17.2696C13.7595 18.0179 13.1329 18.6286 12.3614 18.6286ZM27.6356 18.6286C26.8641 18.6286 26.2411 18.0179 26.2411 17.2696C26.2411 16.5178 26.8677 15.9106 27.6356 15.9106C28.4071 15.9106 29.0301 16.5213 29.0301 17.2696C29.0337 18.0179 28.4071 18.6286 27.6356 18.6286Z" fill="#32DE84"/>
</svg>
