<svg width="40" height="40" viewBox="0 0 40 40" fill="none" xmlns="http://www.w3.org/2000/svg">
<g clip-path="url(#clip0_630_5372)">
<path d="M39.8205 19.5535L38.1399 18.5146V18.0225L39.583 16.6737C39.6556 16.6042 39.7102 16.5181 39.742 16.4228C39.7738 16.3276 39.782 16.226 39.7657 16.1269C39.7431 16.0329 39.6981 15.9457 39.6345 15.8727C39.5709 15.7998 39.4906 15.7432 39.4004 15.7077L37.5736 15.0151C37.5045 14.8641 37.4252 14.718 37.3361 14.5777L38.5052 12.9738C38.5501 12.8864 38.5735 12.7896 38.5735 12.6913C38.5735 12.5931 38.5501 12.4962 38.5052 12.4088C38.4685 12.3182 38.4087 12.2386 38.3319 12.1779C38.255 12.1172 38.1637 12.0774 38.0668 12.0625L36.1122 11.7344C36.1122 11.5886 35.966 11.4428 35.8747 11.297L36.6967 9.4744C36.7425 9.38497 36.7635 9.285 36.7577 9.18477C36.7518 9.08454 36.7193 8.98768 36.6635 8.90414C36.6077 8.82061 36.5306 8.75342 36.4401 8.70949C36.3496 8.66556 36.249 8.64649 36.1487 8.65422H34.1758L33.847 8.27147L34.3037 6.3395C34.3296 6.2436 34.3297 6.14258 34.304 6.04662C34.2783 5.95066 34.2277 5.86315 34.1573 5.79292C34.0869 5.72269 33.9992 5.67221 33.903 5.64658C33.8069 5.62094 33.7056 5.62106 33.6095 5.64691L31.6731 6.10256C31.5535 5.98946 31.4253 5.88586 31.2895 5.79272V3.80607C31.2942 3.70627 31.2732 3.60693 31.2284 3.51757C31.1836 3.42821 31.1166 3.35182 31.0337 3.29573C30.9476 3.24614 30.85 3.22004 30.7506 3.22004C30.6512 3.22004 30.5535 3.24614 30.4674 3.29573L28.6407 4.11591L28.2022 3.87897L28.0378 1.96522C28.0229 1.86858 27.983 1.77746 27.9222 1.70079C27.8613 1.62411 27.7816 1.56451 27.6907 1.5278C27.6031 1.48301 27.506 1.45966 27.4076 1.45966C27.3091 1.45966 27.2121 1.48301 27.1244 1.5278L25.4803 2.74895L25.0054 2.60314L24.3112 0.780525C24.2757 0.69054 24.219 0.610423 24.1458 0.546966C24.0727 0.48351 23.9853 0.438585 23.891 0.416002C23.7917 0.399815 23.69 0.407946 23.5945 0.439695C23.499 0.471445 23.4127 0.525861 23.343 0.598263L21.9912 2.03813H21.498L20.4932 0.270192C20.4404 0.187392 20.3676 0.119221 20.2813 0.0719912C20.1951 0.0247613 20.0984 0 20 0C19.9016 0 19.8049 0.0247613 19.7187 0.0719912C19.6324 0.119221 19.5596 0.187392 19.5068 0.270192L18.4655 1.947H17.9723L16.6205 0.561811C16.5532 0.490474 16.469 0.43719 16.3756 0.406873C16.2823 0.376557 16.1828 0.370185 16.0863 0.388345C15.9899 0.406505 15.8995 0.448613 15.8237 0.510783C15.7478 0.572953 15.6889 0.653184 15.6523 0.744072L14.9581 2.56669L14.5197 2.74895L12.8756 1.58248C12.7946 1.5256 12.7005 1.49019 12.602 1.47955C12.5036 1.46891 12.404 1.4834 12.3127 1.52166C12.2214 1.55992 12.1414 1.6207 12.08 1.69828C12.0187 1.77587 11.9782 1.86772 11.9622 1.96522L11.6334 3.91542L11.1949 4.15236L9.36816 3.33219C9.28207 3.2826 9.18442 3.25649 9.08501 3.25649C8.9856 3.25649 8.88795 3.2826 8.80186 3.33219C8.71899 3.38827 8.65195 3.46466 8.60717 3.55402C8.56238 3.64338 8.54136 3.74272 8.54611 3.84252V5.82917L8.16249 6.13901L6.33571 5.71981C6.23959 5.69396 6.13834 5.69385 6.04216 5.71948C5.94598 5.74512 5.85828 5.79559 5.78788 5.86583C5.71749 5.93606 5.6669 6.02356 5.6412 6.11952C5.61551 6.21548 5.61562 6.3165 5.64153 6.4124L6.09823 8.34438L5.78768 8.72713H3.79649C3.69646 8.72239 3.5969 8.74336 3.50733 8.78804C3.41777 8.83272 3.34121 8.89961 3.28499 8.98229C3.23529 9.06818 3.20912 9.16562 3.20912 9.2648C3.20912 9.36398 3.23529 9.46141 3.28499 9.5473L4.10704 11.3699L3.86956 11.8073L1.87837 12.0261C1.78151 12.041 1.69018 12.0808 1.61333 12.1415C1.53648 12.2022 1.47674 12.2817 1.43995 12.3724C1.39506 12.4598 1.37165 12.5566 1.37165 12.6549C1.37165 12.7531 1.39506 12.8499 1.43995 12.9374L2.66389 14.5777C2.60445 14.7322 2.55562 14.8905 2.51774 15.0516L0.690968 15.7442C0.600778 15.7796 0.520478 15.8362 0.456877 15.9092C0.393275 15.9822 0.348248 16.0694 0.325613 16.1634C0.309389 16.2625 0.317539 16.364 0.34936 16.4593C0.381182 16.5545 0.435723 16.6406 0.50829 16.7102L1.95144 18.0589V18.551L0.270809 19.5899C0.18782 19.6426 0.119493 19.7153 0.0721556 19.8013C0.0248179 19.8873 0 19.9839 0 20.082C0 20.1802 0.0248179 20.2767 0.0721556 20.3627C0.119493 20.4487 0.18782 20.5215 0.270809 20.5741L1.95144 21.613V22.1051L0.50829 23.4539C0.435723 23.5234 0.381182 23.6095 0.34936 23.7048C0.317539 23.8 0.309389 23.9016 0.325613 24.0006C0.348248 24.0947 0.393275 24.1819 0.456877 24.2548C0.520478 24.3278 0.600778 24.3844 0.690968 24.4198L2.51774 25.1124C2.55562 25.2735 2.60445 25.4318 2.66389 25.5863L1.49475 27.1902C1.44986 27.2777 1.42645 27.3745 1.42645 27.4727C1.42645 27.571 1.44986 27.6678 1.49475 27.7552C1.53154 27.8459 1.59129 27.9254 1.66813 27.9861C1.74498 28.0468 1.83631 28.0866 1.93318 28.1015L3.88783 28.4296L4.12531 28.867L3.30326 30.6896C3.25356 30.7755 3.22739 30.873 3.22739 30.9721C3.22739 31.0713 3.25356 31.1688 3.30326 31.2546C3.35947 31.3373 3.43603 31.4042 3.5256 31.4489C3.61516 31.4936 3.71473 31.5146 3.81476 31.5098H5.80594C5.8993 31.6453 6.00314 31.7733 6.1165 31.8926L5.6598 33.8245C5.63389 33.9204 5.63378 34.0215 5.65947 34.1174C5.68516 34.2134 5.73576 34.3009 5.80615 34.3711C5.87654 34.4413 5.96425 34.4918 6.06043 34.5175C6.15661 34.5431 6.25786 34.543 6.35398 34.5171L8.29036 34.0615L8.67398 34.3713V36.358C8.66923 36.4578 8.69026 36.5571 8.73504 36.6465C8.77982 36.7358 8.84686 36.8122 8.92973 36.8683C9.01582 36.9179 9.11348 36.944 9.21288 36.944C9.31229 36.944 9.40994 36.9179 9.49603 36.8683L11.3228 36.0481L11.7612 36.2851L12.0901 38.2353C12.105 38.3319 12.1449 38.423 12.2057 38.4997C12.2666 38.5764 12.3463 38.636 12.4371 38.6727C12.5248 38.7175 12.6218 38.7408 12.7203 38.7408C12.8188 38.7408 12.9158 38.7175 13.0034 38.6727L14.5197 37.3422L14.9946 37.488L15.6888 39.3106C15.7243 39.4006 15.781 39.4807 15.8542 39.5442C15.9273 39.6076 16.0147 39.6525 16.109 39.6751C16.2083 39.6913 16.31 39.6832 16.4055 39.6514C16.501 39.6197 16.5873 39.5653 16.657 39.4929L18.0088 38.053H18.502L19.5433 39.7298C19.5961 39.8126 19.669 39.8808 19.7552 39.928C19.8414 39.9752 19.9382 40 20.0365 40C20.1349 40 20.2317 39.9752 20.3179 39.928C20.4041 39.8808 20.477 39.8126 20.5298 39.7298L21.571 38.053H22.0643L23.4161 39.4929C23.4858 39.5653 23.5721 39.6197 23.6676 39.6514C23.763 39.6832 23.8648 39.6913 23.9641 39.6751C24.0584 39.6525 24.1458 39.6076 24.2189 39.5442C24.292 39.4807 24.3488 39.4006 24.3843 39.3106L25.0784 37.488L25.5534 37.3422L27.161 38.5087C27.2486 38.5534 27.3457 38.5768 27.4441 38.5768C27.5426 38.5768 27.6396 38.5534 27.7273 38.5087C27.8181 38.4719 27.8979 38.4123 27.9587 38.3357C28.0195 38.259 28.0594 38.1679 28.0744 38.0712L28.4032 36.121L28.8416 35.8841L30.6684 36.7043C30.7545 36.7539 30.8521 36.78 30.9515 36.78C31.0509 36.78 31.1486 36.7539 31.2347 36.7043C31.3175 36.6482 31.3846 36.5718 31.4294 36.4824C31.4742 36.3931 31.4952 36.2937 31.4904 36.1939V34.2073C31.6262 34.1141 31.7545 34.0105 31.8741 33.8974L33.8104 34.3531C33.9066 34.3789 34.0078 34.3791 34.104 34.3534C34.2002 34.3278 34.2879 34.2773 34.3583 34.2071C34.4287 34.1368 34.4792 34.0493 34.5049 33.9534C34.5306 33.8574 34.5305 33.7564 34.5046 33.6605L34.0479 31.7285L34.3767 31.3458H36.3497C36.45 31.3535 36.5506 31.3344 36.6411 31.2905C36.7315 31.2466 36.8087 31.1794 36.8645 31.0959C36.9203 31.0123 36.9528 30.9155 36.9586 30.8152C36.9645 30.715 36.9434 30.615 36.8977 30.5256L36.0756 28.703C36.167 28.5572 36.24 28.4114 36.3131 28.2656L38.2678 27.9375C38.3646 27.9226 38.456 27.8828 38.5328 27.8221C38.6097 27.7614 38.6694 27.6818 38.7062 27.5912C38.7511 27.5038 38.7745 27.4069 38.7745 27.3087C38.7745 27.2104 38.7511 27.1136 38.7062 27.0262L37.3361 25.5134C37.3956 25.3589 37.4444 25.2006 37.4823 25.0395L39.309 24.3469C39.3992 24.3115 39.4795 24.2549 39.5431 24.1819C39.6067 24.109 39.6518 24.0218 39.6744 23.9277C39.6906 23.8286 39.6825 23.7271 39.6506 23.6319C39.6188 23.5366 39.5643 23.4505 39.4917 23.381L38.0486 22.0322V21.5401L39.7292 20.5012C39.8122 20.4485 39.8805 20.3758 39.9278 20.2898C39.9752 20.2038 40 20.1072 40 20.0091C40 19.911 39.9752 19.8144 39.9278 19.7284C39.8805 19.6424 39.8122 19.5697 39.7292 19.517L39.8205 19.5535ZM28.531 33.5147C28.221 33.4494 27.9496 33.264 27.7766 32.9991C27.6036 32.7342 27.5431 32.4115 27.6085 32.1022C27.6739 31.7928 27.8598 31.522 28.1253 31.3494C28.3908 31.1768 28.7142 31.1165 29.0243 31.1817C29.3332 31.2515 29.6021 31.4398 29.773 31.7058C29.9439 31.9718 30.0031 32.2942 29.9377 32.6034C29.9074 32.7565 29.8466 32.9019 29.7589 33.0311C29.6713 33.1603 29.5586 33.2707 29.4274 33.3557C29.2963 33.4406 29.1493 33.4985 28.9954 33.5258C28.8414 33.5531 28.6835 33.5493 28.531 33.5147V33.5147ZM27.9465 29.6507C27.8073 29.6215 27.6637 29.6199 27.5239 29.6463C27.3841 29.6726 27.251 29.7263 27.1321 29.8043C27.0132 29.8822 26.911 29.9828 26.8313 30.1004C26.7516 30.2179 26.696 30.3501 26.6677 30.4892L26.0649 33.2778C24.1635 34.1559 22.0952 34.6159 20 34.6265C17.8627 34.6251 15.7507 34.1651 13.8072 33.2778L13.2044 30.4345C13.1784 30.2942 13.1243 30.1606 13.0452 30.0418C12.9662 29.923 12.8638 29.8213 12.7443 29.743C12.6249 29.6647 12.4908 29.6113 12.3501 29.586C12.2094 29.5608 12.065 29.5642 11.9256 29.5961L9.4595 30.1246C8.9989 29.6503 8.57163 29.1448 8.18075 28.6119H20.1827C20.3288 28.6119 20.4019 28.6119 20.4019 28.466V24.2376C20.4019 24.11 20.4019 24.0918 20.1827 24.0918H16.6753V21.3943H20.475C21.0407 21.4042 21.5849 21.6123 22.0123 21.9822C22.4398 22.352 22.7233 22.8601 22.8132 23.4174C22.9594 24.0189 23.2882 25.9326 23.5074 26.5523C23.7266 27.172 24.6583 28.6119 25.6447 28.6119H31.8375C31.4168 29.1709 30.9655 29.7063 30.4857 30.2158L27.9465 29.6507ZM11.3411 33.46C11.1886 33.4947 11.0307 33.4984 10.8767 33.4711C10.7228 33.4438 10.5759 33.386 10.4447 33.301C10.3136 33.216 10.2008 33.1057 10.1132 32.9764C10.0255 32.8472 9.96476 32.7018 9.93446 32.5487C9.89958 32.3955 9.89561 32.2368 9.92278 32.082C9.94996 31.9272 10.0077 31.7793 10.0927 31.647C10.1777 31.5147 10.2883 31.4006 10.4179 31.3113C10.5476 31.2221 10.6937 31.1594 10.8478 31.1271C11.1579 31.0618 11.4813 31.1221 11.7468 31.2947C12.0123 31.4673 12.1982 31.7381 12.2636 32.0475C12.329 32.3569 12.2686 32.6795 12.0956 32.9444C11.9225 33.2093 11.6512 33.3948 11.3411 33.46V33.46ZM6.7924 15.0334C6.88742 15.2474 6.91675 15.4848 6.87668 15.7154C6.83662 15.9461 6.72895 16.1597 6.56729 16.3294C6.40562 16.4991 6.19719 16.6171 5.96832 16.6687C5.73945 16.7203 5.50039 16.7031 5.28133 16.6192C5.06226 16.5353 4.87302 16.3886 4.73747 16.1975C4.60193 16.0064 4.52617 15.7795 4.51976 15.5455C4.51334 15.3115 4.57656 15.0808 4.70143 14.8826C4.82631 14.6844 5.00723 14.5276 5.22138 14.4319C5.36368 14.3656 5.51791 14.3286 5.67486 14.3231C5.83182 14.3175 5.98828 14.3436 6.13491 14.3998C6.28154 14.4559 6.41533 14.5409 6.52829 14.6498C6.64126 14.7587 6.73108 14.8891 6.7924 15.0334V15.0334ZM5.38578 18.3505L7.96154 17.2023C8.09351 17.1451 8.21267 17.0622 8.312 16.9583C8.41133 16.8545 8.48882 16.7319 8.53989 16.5977C8.59097 16.4635 8.6146 16.3204 8.60939 16.177C8.60419 16.0335 8.57025 15.8926 8.50957 15.7624L7.97981 14.5777H10.0623V23.946H5.86075C5.36373 22.125 5.20279 20.229 5.38578 18.3505V18.3505ZM16.6753 17.4392V14.6689H21.6258C21.8816 14.6689 23.4526 14.9605 23.4526 16.1269C23.4526 17.2934 22.2652 17.4392 21.297 17.4392H16.6753ZM34.6142 19.918C34.6142 20.2825 34.6142 20.647 34.6142 21.0116H33.1528C32.9884 21.0116 32.9336 21.1027 32.9336 21.2485V21.8682C32.9336 23.4903 32.0202 23.8548 31.2164 23.946C30.4126 24.0371 29.5906 23.6179 29.481 23.144C29.4289 22.3343 29.1848 21.5485 28.7688 20.8514C28.3527 20.1542 27.7766 19.5657 27.0879 19.1343C27.8949 18.7387 28.592 18.151 29.1177 17.4231C29.6433 16.6952 29.9814 15.8495 30.1021 14.9605C30.0706 14.1763 29.8436 13.4123 29.4417 12.7376C29.0398 12.063 28.4757 11.4989 27.8003 11.0965C26.8525 10.4879 25.7648 10.1303 24.64 10.0576H9.03934C11.2069 7.66725 14.1016 6.05353 17.2781 5.46465L19.1049 7.39662C19.2067 7.49857 19.3277 7.57946 19.4609 7.63465C19.5942 7.68985 19.737 7.71826 19.8813 7.71826C20.0255 7.71826 20.1684 7.68985 20.3016 7.63465C20.4348 7.57946 20.5558 7.49857 20.6576 7.39662L22.7036 5.46465C24.806 5.8599 26.797 6.70697 28.5383 7.94704C30.2796 9.18711 31.7296 10.7904 32.7874 12.6457L31.3808 15.8171C31.3201 15.9473 31.2862 16.0882 31.281 16.2317C31.2758 16.3751 31.2994 16.5181 31.3505 16.6523C31.4016 16.7865 31.4791 16.9092 31.5784 17.013C31.6777 17.1168 31.7969 17.1998 31.9289 17.257L34.6325 18.4599C34.6543 18.9459 34.6482 19.4327 34.6142 19.918ZM19.0318 3.87897C19.2577 3.65526 19.563 3.52971 19.8813 3.52971C20.1995 3.52971 20.5049 3.65526 20.7307 3.87897C20.8412 3.98901 20.9288 4.11969 20.9886 4.26355C21.0484 4.40742 21.0792 4.56163 21.0792 4.71737C21.0792 4.87311 21.0484 5.02733 20.9886 5.17119C20.9288 5.31505 20.8412 5.44574 20.7307 5.55578C20.5049 5.77949 20.1995 5.90503 19.8813 5.90503C19.563 5.90503 19.2577 5.77949 19.0318 5.55578C18.926 5.44102 18.8439 5.30655 18.7903 5.16008C18.7367 5.01361 18.7126 4.85802 18.7194 4.70224C18.7262 4.54645 18.7637 4.39354 18.8299 4.25226C18.896 4.11099 18.9895 3.98413 19.1049 3.87897H19.0318ZM33.0067 15.0881C33.0781 14.9487 33.1765 14.8249 33.2961 14.7237C33.4158 14.6225 33.5543 14.546 33.7038 14.4985C33.8533 14.4511 34.0107 14.4337 34.167 14.4472C34.3232 14.4608 34.4752 14.5052 34.6142 14.5777C34.8284 14.6734 35.0093 14.8302 35.1342 15.0284C35.259 15.2266 35.3223 15.4573 35.3158 15.6913C35.3094 15.9253 35.2337 16.1522 35.0981 16.3433C34.9626 16.5344 34.7733 16.6811 34.5543 16.765C34.3352 16.8489 34.0961 16.8661 33.8673 16.8145C33.6384 16.763 33.43 16.6449 33.2683 16.4752C33.1066 16.3055 32.999 16.0919 32.9589 15.8612C32.9188 15.6306 32.9482 15.3932 33.0432 15.1792L33.0067 15.0881Z" fill="#0E061A"/>
</g>
<defs>
<clipPath id="clip0_630_5372">
<rect width="40" height="40" rx="10" fill="white"/>
</clipPath>
</defs>
</svg>
