<svg width="32" height="40" viewBox="0 0 32 40" fill="none" xmlns="http://www.w3.org/2000/svg">
<g clip-path="url(#clip0_630_5422)">
<path d="M15.1402 0H24.6403V24.639H0.000244141V0C3.16032 0 6.32019 0 9.48027 0C9.49527 0.198792 9.49367 0.400584 9.52787 0.596177C9.78646 2.07392 11.0832 3.07448 12.5719 2.94188C13.4151 2.86689 14.0883 2.4741 14.5927 1.79853C14.9899 1.26675 15.155 0.659574 15.1402 0ZM13.3933 22.0147C14.0869 19.1008 14.7787 16.1944 15.4736 13.2749C14.9407 13.2749 14.4279 13.2743 13.9153 13.2777C13.8963 13.2777 13.8663 13.3155 13.8605 13.3403C13.8241 13.4923 13.7929 13.6455 13.7607 13.7985C13.3795 15.608 12.9983 17.4177 12.6167 19.227C12.6121 19.2492 12.6003 19.2698 12.5853 19.3078C12.5735 19.2658 12.5657 19.244 12.5613 19.2216C12.169 17.2717 11.7762 15.3218 11.387 13.3711C11.3706 13.2887 11.3388 13.2723 11.2634 13.2729C10.8202 13.2759 10.3768 13.2757 9.93365 13.2729C9.86245 13.2725 9.83146 13.2889 9.81426 13.3655C9.40447 15.1994 8.99109 17.0325 8.57831 18.8657C8.55231 18.9815 8.52371 19.0968 8.49651 19.2122C8.47271 19.1912 8.46611 19.1728 8.46251 19.154C8.32592 18.4215 8.19032 17.6889 8.05313 16.9565C7.82954 15.7632 7.60434 14.57 7.38275 13.3765C7.36875 13.3011 7.34615 13.2715 7.26416 13.2723C6.78758 13.2763 6.31099 13.2743 5.83441 13.2745C5.80301 13.2745 5.77182 13.2777 5.73002 13.2801C6.35539 16.2004 6.97777 19.107 7.59974 22.0117H9.25428C9.68266 20.028 10.1094 18.0509 10.5364 16.0736C10.5482 16.0736 10.56 16.074 10.572 16.074C10.9714 18.0531 11.3706 20.0322 11.7706 22.0141H13.3939L13.3933 22.0147ZM15.2072 22.0093C15.2306 22.0143 15.2402 22.0181 15.2498 22.0181C15.7598 22.0187 16.2696 22.0177 16.7796 22.0205C16.8452 22.0209 16.8524 21.9871 16.8634 21.9367C16.993 21.3456 17.1262 20.755 17.2536 20.1634C17.2688 20.0926 17.2948 20.0734 17.3648 20.0734C18.2845 20.0756 19.2043 20.0756 20.124 20.0734C20.1878 20.0734 20.2184 20.0902 20.2354 20.1534C20.3012 20.3974 20.3716 20.6402 20.441 20.8832C20.5486 21.26 20.6568 21.6367 20.765 22.0143H22.445C22.435 21.9731 22.428 21.9377 22.418 21.9031C22.2252 21.2424 22.032 20.5816 21.8386 19.9208C21.2 17.7375 20.5614 15.5544 19.9239 13.3709C19.9069 13.3127 19.8955 13.2723 19.8167 13.2725C19.0101 13.2759 18.2037 13.2753 17.3972 13.2731C17.3288 13.2731 17.308 13.2983 17.2936 13.3611C17.2252 13.6593 17.1508 13.956 17.079 14.2534C16.521 16.5613 15.9632 18.8695 15.4054 21.1774C15.339 21.4518 15.2744 21.7265 15.207 22.0093H15.2072Z" fill="#654FEF"/>
<path d="M16.04 39.9983C15.916 39.9379 15.7812 39.8929 15.6704 39.8141C15.4161 39.6331 15.2933 39.3741 15.2807 39.0627C15.2795 39.0327 15.2801 39.0027 15.2801 38.9727C15.2801 34.5631 15.2801 30.1535 15.2801 25.7438C15.2801 25.7108 15.2801 25.6778 15.2801 25.6318H15.3989C18.4119 25.6318 21.4252 25.6318 24.4383 25.6318C24.9377 25.6318 25.3085 25.4198 25.5309 24.9669C25.6149 24.7959 25.6341 24.6107 25.6341 24.4223C25.6339 21.4458 25.6339 18.4695 25.6339 15.493V15.3638C25.6636 15.362 25.692 15.359 25.7204 15.359C30.1269 15.3588 34.5333 15.3584 38.9397 15.3592C39.5029 15.3592 39.9137 15.7628 39.9335 16.3288C39.9345 16.3554 39.9339 16.3822 39.9339 16.4088C39.9339 23.9281 39.9335 31.4474 39.9347 38.9669C39.9347 39.3653 39.7881 39.6791 39.4393 39.8837C39.3583 39.9313 39.2665 39.9603 39.1797 39.9979H16.04V39.9983ZM31.3146 28.2393C31.0926 28.1563 30.8844 28.0687 30.6701 28.0001C30.1927 27.8472 29.7011 27.7632 29.2011 27.7312C28.5391 27.6886 27.8898 27.7404 27.2764 28.0193C26.8268 28.2237 26.4672 28.5271 26.2534 28.9839C26.1066 29.2975 26.0564 29.6311 26.0472 29.9729C26.0292 30.6386 26.2366 31.2144 26.7246 31.681C27.0728 32.0138 27.4818 32.2556 27.9044 32.4754C28.3639 32.7146 28.8323 32.9368 29.2917 33.1765C29.6627 33.3703 29.9257 33.6451 29.9335 34.0995C29.9429 34.6427 29.7437 34.9985 29.2475 35.1823C29.0075 35.2713 28.7591 35.3105 28.5049 35.3191C27.7266 35.3455 26.9858 35.1759 26.2676 34.8891C26.1396 34.8379 26.0134 34.7819 25.8784 34.7249C25.8784 35.1685 25.8774 35.5984 25.8806 36.0282C25.8808 36.055 25.9082 36.0958 25.9328 36.1058C26.0984 36.174 26.264 36.2448 26.4348 36.2978C27.2134 36.5396 28.0104 36.6248 28.8227 36.556C29.3615 36.5104 29.8801 36.3888 30.3533 36.1154C30.7119 35.9082 31.0044 35.6342 31.2008 35.2635C31.3924 34.9015 31.4558 34.5127 31.4672 34.1087C31.4888 33.3361 31.189 32.7244 30.5387 32.309C30.1447 32.0574 29.7267 31.8424 29.3137 31.6218C28.9329 31.4182 28.5399 31.2374 28.1608 31.0312C27.7528 30.8094 27.5534 30.4636 27.58 29.9891C27.606 29.5237 27.8318 29.2161 28.2757 29.0721C28.5003 28.9993 28.7319 28.9787 28.9659 28.9863C29.4825 29.0031 29.9817 29.1103 30.4665 29.2873C30.5871 29.3313 30.7059 29.3801 30.8294 29.4283C30.9906 29.0331 31.1484 28.6461 31.3142 28.2399L31.3146 28.2393ZM34.0701 29.0567V35.2387C33.5065 35.2995 32.9478 35.3595 32.3868 35.4201V36.4534H37.2564V35.4199C36.6814 35.3591 36.1104 35.2989 35.5413 35.2387V29.0565C36.1162 28.9959 36.6872 28.9355 37.254 28.8757V27.8454H32.3862V28.8753C32.9486 28.9359 33.5073 28.9961 34.0699 29.0567H34.0701ZM19.7711 35.0953C19.7901 35.0925 19.7973 35.0931 19.8027 35.0905C21.4876 34.2641 23.1725 33.4375 24.8561 32.6084C24.8851 32.5942 24.9129 32.5454 24.9137 32.512C24.9193 32.3222 24.9115 32.132 24.9185 31.9422C24.9215 31.8602 24.8921 31.8196 24.8219 31.7824C23.2431 30.9434 21.6658 30.1021 20.0881 29.2615C19.9869 29.2075 19.8849 29.1547 19.7709 29.0949V29.1963C19.7709 29.5463 19.7731 29.8963 19.7691 30.2461C19.7683 30.3169 19.7927 30.3501 19.8537 30.3815C20.985 30.964 22.115 31.549 23.2453 32.1336C23.2741 32.1486 23.3023 32.1646 23.3411 32.1856C22.9396 32.3742 22.5498 32.557 22.16 32.74C21.3902 33.1013 20.6202 33.4619 19.8519 33.8259C19.8179 33.8421 19.7749 33.8871 19.7745 33.9191C19.7691 34.3085 19.7711 34.6979 19.7711 35.0955V35.0953Z" fill="black"/>
<path d="M19.795 18.636H17.5907C17.6087 18.5454 17.6241 18.4594 17.6429 18.3742C17.8547 17.4205 18.0679 16.4669 18.2779 15.5127C18.2921 15.4483 18.3147 15.4241 18.3819 15.4257C18.5583 15.4301 18.7349 15.4281 18.9112 15.4265C18.96 15.4261 18.9884 15.4353 19.0026 15.4915C19.2652 16.5289 19.5304 17.5654 19.7946 18.6022C19.797 18.6114 19.7948 18.6218 19.7948 18.6358L19.795 18.636Z" fill="#6550EF"/>
</g>
<defs>
<clipPath id="clip0_630_5422">
<rect width="40" height="40" fill="white"/>
</clipPath>
</defs>
</svg>
