<svg width="40" height="40" viewBox="0 0 40 40" fill="none" xmlns="http://www.w3.org/2000/svg">
<g clip-path="url(#clip0_630_5349)">
<g clip-path="url(#clip1_630_5349)">
<rect width="40" height="40" fill="white" style="mix-blend-mode:color"/>
<path opacity="0.53" d="M39.2357 21.5455C39.2357 31.7358 30.6241 40.0001 20.0114 40.0001C9.39869 40.0001 0.787109 31.7358 0.787109 21.5455C0.787109 11.3551 9.39869 3.09082 20.0114 3.09082C30.6241 3.09082 39.2357 11.3551 39.2357 21.5455Z" fill="#0E061A"/>
<path d="M39.955 19.9105C39.955 30.8847 31.0062 39.7985 19.9887 39.7985C8.97131 39.7985 0.0224609 30.8847 0.0224609 19.9105C0.0224609 8.93623 8.97131 0.0224609 19.9887 0.0224609C31.0287 0.0224609 39.955 8.93623 39.955 19.9105Z" fill="url(#paint0_linear_630_5349)" stroke="#CDCDCD" stroke-width="0.2637" stroke-miterlimit="11.3386" stroke-linecap="round" stroke-linejoin="round"/>
<path d="M38.4041 19.91C38.4041 30.0332 30.1748 38.2303 20.0117 38.2303C9.84873 38.2303 1.61938 30.0332 1.61938 19.91C1.61938 9.78681 9.84873 1.58972 20.0117 1.58972C30.1523 1.58972 38.4041 9.78681 38.4041 19.91Z" fill="url(#paint1_radial_630_5349)"/>
<path d="M19.988 2.55371C19.8306 2.55371 19.7182 2.66569 19.7182 2.82247V5.91317C19.7182 6.06995 19.8306 6.18193 19.988 6.18193C20.1454 6.18193 20.2578 6.06995 20.2578 5.91317V2.82247C20.2578 2.66569 20.1454 2.55371 19.988 2.55371ZM18.2342 2.66569C18.2117 2.66569 18.1893 2.66569 18.1893 2.66569C18.0319 2.68809 17.9419 2.82247 17.9419 2.95685L18.0768 4.25584C18.0993 4.41261 18.2342 4.5022 18.3691 4.5022C18.5265 4.4798 18.6165 4.34542 18.6165 4.21105L18.4816 2.91205C18.4591 2.75528 18.3691 2.66569 18.2342 2.66569ZM21.7643 2.66569C21.6294 2.68809 21.5395 2.77768 21.517 2.91205L21.3821 4.21105C21.3596 4.36782 21.472 4.4798 21.6294 4.5022C21.7868 4.5246 21.8992 4.41261 21.9217 4.25584L22.0566 2.95685C22.0791 2.80007 21.9667 2.68809 21.8093 2.66569C21.7868 2.6433 21.7868 2.6433 21.7643 2.66569ZM16.4355 2.91205C16.413 2.91205 16.3905 2.91205 16.3905 2.91205C16.2556 2.93445 16.1432 3.09122 16.1881 3.2256L16.8402 6.24912C16.8627 6.3835 17.0201 6.49548 17.155 6.45069C17.2899 6.42829 17.4023 6.27152 17.3573 6.13714L16.7053 3.13602C16.6828 3.00164 16.5704 2.91205 16.4355 2.91205ZM23.5631 2.91205C23.4282 2.91205 23.3157 3.00164 23.2932 3.11362L22.6412 6.13714C22.6187 6.27152 22.7087 6.42829 22.8436 6.45069C22.9785 6.47308 23.1359 6.3835 23.1583 6.24912L23.8104 3.2256C23.8329 3.09122 23.7429 2.93445 23.608 2.91205C23.608 2.91205 23.5855 2.91205 23.5631 2.91205ZM14.7266 3.40477C14.6817 3.40477 14.6592 3.40477 14.6142 3.42717C14.4793 3.47196 14.3894 3.62874 14.4343 3.76312L14.8391 4.99492C14.884 5.1293 15.0414 5.21888 15.1763 5.17409C15.3112 5.1293 15.4012 4.97252 15.3562 4.83815L14.9515 3.58395C14.9065 3.47196 14.8166 3.40477 14.7266 3.40477ZM25.2719 3.40477C25.1595 3.40477 25.0695 3.47196 25.047 3.58395L24.6423 4.81575C24.5974 4.95013 24.6648 5.1069 24.8222 5.1517C24.9571 5.19649 25.1145 5.1293 25.1595 4.97252L25.5642 3.74072C25.6092 3.60634 25.5417 3.44957 25.3843 3.40477C25.3393 3.40477 25.3169 3.40477 25.2719 3.40477ZM13.0178 4.00948C12.9728 4.00948 12.9504 4.00948 12.9054 4.03187C12.7705 4.09906 12.703 4.25584 12.7705 4.39022L14.0296 7.21217C14.0971 7.34654 14.2545 7.41373 14.3894 7.34654C14.5243 7.27935 14.5917 7.12258 14.5243 6.9882L13.2651 4.18865C13.2202 4.07667 13.1078 4.00948 13.0178 4.00948ZM27.0032 4.03187C26.8908 4.03187 26.8008 4.09906 26.7559 4.18865L25.4967 7.0106C25.4293 7.14498 25.4967 7.30175 25.6316 7.36894C25.7665 7.43613 25.9239 7.36894 25.9914 7.23456L27.2505 4.41261C27.318 4.27824 27.2505 4.12146 27.1156 4.05427C27.0707 4.03187 27.0257 4.03187 27.0032 4.03187ZM11.4439 4.86054C11.3989 4.86054 11.3315 4.86054 11.2865 4.90533C11.1516 4.97252 11.1066 5.1517 11.1966 5.26368L11.8486 6.3835C11.9161 6.51788 12.0959 6.56267 12.2084 6.47308C12.3433 6.40589 12.3882 6.22672 12.2983 6.11474L11.6463 4.99492C11.6013 4.90533 11.5113 4.86054 11.4439 4.86054ZM28.5546 4.86054C28.4647 4.86054 28.3972 4.90533 28.3523 4.99492L27.7002 6.11474C27.6328 6.24912 27.6777 6.40589 27.7902 6.47308C27.9251 6.54027 28.0825 6.49548 28.1499 6.3835L28.802 5.26368C28.8694 5.1293 28.8244 4.97252 28.712 4.90533C28.6671 4.86054 28.5996 4.83815 28.5546 4.86054ZM9.89246 5.80119C9.84749 5.80119 9.78004 5.82359 9.73507 5.84598C9.62265 5.93557 9.57768 6.09234 9.66762 6.22672L11.4889 8.71273C11.5788 8.82471 11.7362 8.8695 11.8711 8.77991C11.9835 8.69033 12.0285 8.53355 11.9386 8.39918L10.1173 5.91317C10.0723 5.84598 9.9824 5.80119 9.89246 5.80119ZM30.1061 5.82359C30.0161 5.82359 29.9262 5.86838 29.8812 5.93557L28.06 8.42157C27.97 8.53355 27.9925 8.71272 28.1274 8.80231C28.2398 8.8919 28.4197 8.8695 28.5097 8.73512L30.3309 6.24912C30.4208 6.13714 30.3984 5.95797 30.2635 5.86838C30.2185 5.84598 30.151 5.82359 30.1061 5.82359ZM8.5209 6.94341C8.45345 6.94341 8.386 6.9658 8.31854 7.0106C8.20612 7.10018 8.20612 7.27935 8.29606 7.39134L9.17296 8.35438C9.26289 8.46636 9.44277 8.46636 9.55519 8.37678C9.66762 8.28719 9.66762 8.10802 9.57768 7.99604L8.70078 7.03299C8.65581 6.9882 8.58836 6.94341 8.5209 6.94341ZM31.4551 6.94341C31.3877 6.94341 31.3202 6.9658 31.2753 7.03299L30.3984 7.99604C30.3084 8.10802 30.3084 8.2648 30.4209 8.37678C30.5333 8.46636 30.6907 8.46636 30.8031 8.35438L31.68 7.39134C31.7699 7.27935 31.7699 7.12258 31.6575 7.0106C31.59 6.9658 31.5226 6.94341 31.4551 6.94341ZM7.2168 8.19761C7.14935 8.19761 7.08189 8.22 7.03692 8.28719C6.94699 8.39918 6.94699 8.55595 7.05941 8.66793L9.35283 10.7284C9.46525 10.818 9.62265 10.818 9.73507 10.706C9.82501 10.594 9.82501 10.4372 9.71259 10.3253L7.41916 8.2648C7.35171 8.22 7.28425 8.19761 7.2168 8.19761ZM32.7817 8.22C32.7143 8.22 32.6468 8.2424 32.5794 8.28719L30.2859 10.3477C30.1735 10.4372 30.1735 10.6164 30.2635 10.7284C30.3534 10.8404 30.5333 10.8404 30.6457 10.7508L32.9391 8.69033C33.0515 8.60074 33.0515 8.42157 32.9616 8.30959C32.9166 8.2424 32.8492 8.22 32.7817 8.22ZM6.11506 9.60858C6.02512 9.60858 5.93518 9.65337 5.89021 9.72056C5.80027 9.83255 5.82276 10.0117 5.95767 10.1013L7.01444 10.8628C7.12686 10.9524 7.30674 10.93 7.39668 10.7956C7.48662 10.6836 7.46413 10.5044 7.32922 10.4149L6.27245 9.65337C6.22748 9.63098 6.18251 9.60858 6.11506 9.60858ZM33.861 9.60858C33.816 9.60858 33.7486 9.63098 33.7036 9.65337L32.6468 10.4149C32.5344 10.5044 32.4894 10.6612 32.5794 10.7956C32.6693 10.9076 32.8267 10.9524 32.9616 10.8628L34.0184 10.1013C34.1308 10.0117 34.1758 9.85494 34.0858 9.72056C34.0409 9.65337 33.9509 9.60858 33.861 9.60858ZM5.10325 11.0867C5.01332 11.0867 4.94586 11.1315 4.90089 11.2211C4.83344 11.3555 4.87841 11.5123 4.99083 11.5795L7.66649 13.1248C7.8014 13.192 7.95879 13.1472 8.02624 13.0352C8.0937 12.9009 8.04873 12.7441 7.93631 12.6769L5.26065 11.1315C5.21568 11.1091 5.14822 11.0867 5.10325 11.0867ZM34.8953 11.0867C34.8503 11.0867 34.7829 11.0867 34.7379 11.1315L32.0622 12.6769C31.9273 12.7441 31.8823 12.9233 31.9723 13.0352C32.0397 13.1696 32.2196 13.2144 32.332 13.1248L35.0077 11.5795C35.1426 11.5123 35.1876 11.3331 35.0976 11.2211C35.0527 11.1539 34.9627 11.1091 34.8953 11.0867ZM4.33878 12.6993C4.22636 12.6993 4.13642 12.7665 4.09145 12.8561C4.024 12.9904 4.09145 13.1472 4.22636 13.2144L5.41804 13.7519C5.55294 13.8191 5.71034 13.7519 5.77779 13.6175C5.84524 13.4832 5.77779 13.3264 5.64288 13.2592L4.4512 12.7217C4.40623 12.6993 4.36126 12.6993 4.33878 12.6993ZM35.6598 12.6993C35.6148 12.6993 35.5923 12.6993 35.5473 12.7217L34.3556 13.2592C34.2207 13.3264 34.1533 13.4832 34.2207 13.6175C34.2882 13.7519 34.4456 13.8191 34.5805 13.7519L35.7722 13.2144C35.9071 13.1472 35.9745 12.9904 35.9071 12.8561C35.8621 12.7665 35.7722 12.6993 35.6598 12.6993ZM3.64176 14.3566C3.52934 14.3566 3.4394 14.4238 3.41691 14.5358C3.37194 14.6702 3.4394 14.8269 3.59679 14.8717L6.51978 15.8348C6.65469 15.8796 6.81208 15.8124 6.85705 15.6556C6.90202 15.5212 6.83456 15.3645 6.67717 15.3197L3.7317 14.3566C3.70921 14.3566 3.68673 14.3566 3.64176 14.3566ZM36.3568 14.3566C36.3118 14.3566 36.2893 14.3566 36.2443 14.379L33.2989 15.3421C33.164 15.3869 33.074 15.5436 33.119 15.678C33.164 15.8124 33.3214 15.902 33.4563 15.8572L36.4017 14.8941C36.5366 14.8493 36.6266 14.6926 36.5816 14.5582C36.5366 14.4462 36.4467 14.379 36.3568 14.3566ZM3.21455 16.1035C3.07964 16.1035 2.96722 16.1931 2.94474 16.3051C2.92225 16.4395 3.01219 16.5963 3.1471 16.6187L4.42872 16.8874C4.56362 16.9098 4.72102 16.8202 4.7435 16.6858C4.76599 16.5515 4.67605 16.3947 4.54114 16.3723L3.25952 16.1035C3.25952 16.1035 3.23704 16.1035 3.21455 16.1035ZM36.784 16.1035C36.7615 16.1035 36.739 16.1035 36.739 16.1035L35.4574 16.3723C35.3225 16.3947 35.2101 16.5515 35.255 16.6858C35.2775 16.8202 35.4349 16.9322 35.5698 16.8874L36.8514 16.6187C36.9863 16.5963 37.0988 16.4395 37.0538 16.3051C37.0088 16.1931 36.8964 16.1035 36.784 16.1035ZM2.89977 17.8505C2.76486 17.8729 2.67492 17.9624 2.65244 18.0968C2.62995 18.2536 2.74238 18.3656 2.89977 18.388L5.98015 18.7015C6.13754 18.7239 6.24997 18.6119 6.27245 18.4552C6.29493 18.2984 6.18251 18.1864 6.02512 18.164L2.94474 17.8505C2.92225 17.8505 2.89977 17.8505 2.89977 17.8505ZM37.0988 17.8729C37.0763 17.8729 37.0538 17.8729 37.0538 17.8729L33.9734 18.1864C33.816 18.2088 33.7261 18.3432 33.7261 18.4776C33.7486 18.6343 33.8835 18.7239 34.0184 18.7239L37.0988 18.4104C37.2562 18.388 37.3461 18.2536 37.3461 18.1192C37.3236 17.9848 37.2337 17.8953 37.0988 17.8729ZM2.83231 19.6422C2.67492 19.6422 2.5625 19.7542 2.5625 19.9109C2.5625 20.0677 2.67492 20.1797 2.83231 20.1797H4.13642C4.29381 20.1797 4.40623 20.0677 4.40623 19.9109C4.40623 19.7542 4.29381 19.6422 4.13642 19.6422H2.83231ZM35.8396 19.6422C35.6822 19.6422 35.5698 19.7542 35.5698 19.9109C35.5698 20.0677 35.6822 20.1797 35.8396 20.1797H37.1437C37.3011 20.1797 37.4135 20.0677 37.4135 19.9109C37.4135 19.7542 37.3011 19.6422 37.1437 19.6422H35.8396ZM6.02512 21.0979C6.00264 21.0979 5.98015 21.0979 5.98015 21.0979L2.89977 21.4115C2.74238 21.4339 2.65244 21.5683 2.65244 21.7026C2.67492 21.8594 2.80983 21.949 2.94474 21.949L6.02512 21.6355C6.18251 21.6131 6.27245 21.4787 6.27245 21.3443C6.24997 21.2099 6.13754 21.1203 6.02512 21.0979ZM33.9734 21.1203C33.8385 21.1427 33.7486 21.2323 33.7261 21.3667C33.7036 21.5235 33.816 21.6355 33.9734 21.6579L37.0538 21.9714C37.2112 21.9938 37.3236 21.8818 37.3461 21.725C37.3686 21.5683 37.2562 21.4563 37.0988 21.4339L34.0184 21.1203C33.9959 21.1203 33.9959 21.1203 33.9734 21.1203ZM4.47369 22.9344C4.4512 22.9344 4.42872 22.9344 4.42872 22.9344L3.1471 23.2032C3.01219 23.2256 2.89977 23.3824 2.94474 23.5168C2.96722 23.6511 3.12461 23.7631 3.25952 23.7183L4.54114 23.4496C4.67605 23.4272 4.78847 23.2704 4.7435 23.136C4.72102 23.024 4.60859 22.9344 4.47369 22.9344ZM35.5024 22.9344C35.3675 22.9344 35.255 23.024 35.2325 23.136C35.2101 23.2704 35.3 23.4272 35.4349 23.4496L36.7165 23.7183C36.8514 23.7407 37.0088 23.6511 37.0313 23.5168C37.0538 23.3824 36.9639 23.2256 36.8289 23.2032L35.5473 22.9344C35.5473 22.9344 35.5248 22.9344 35.5024 22.9344ZM6.6322 23.9871C6.58723 23.9871 6.56475 23.9871 6.51978 24.0095L3.5743 24.9725C3.4394 25.0173 3.34946 25.1741 3.39443 25.3085C3.4394 25.4428 3.59679 25.5324 3.7317 25.4876L6.67717 24.5246C6.81208 24.4798 6.90202 24.323 6.85705 24.1886C6.83456 24.0543 6.72214 23.9871 6.6322 23.9871ZM33.3663 23.9871C33.2539 23.9871 33.164 24.0543 33.1415 24.1663C33.0965 24.3006 33.164 24.4574 33.3214 24.5022L36.2668 25.4652C36.4017 25.51 36.5591 25.4428 36.6041 25.2861C36.6491 25.1517 36.5816 24.9949 36.4242 24.9501L33.4787 23.9871C33.4338 23.9871 33.3888 23.9871 33.3663 23.9871ZM5.50798 26.0699C5.46301 26.0699 5.44052 26.0699 5.39555 26.0923L4.20387 26.6299C4.06896 26.697 4.00151 26.8538 4.06896 26.9882C4.13642 27.1226 4.29381 27.1898 4.42872 27.1226L5.6204 26.5851C5.75531 26.5179 5.82276 26.3611 5.75531 26.2267C5.71034 26.1371 5.6204 26.0699 5.50798 26.0699ZM34.4681 26.0923C34.3556 26.0923 34.2657 26.1595 34.2207 26.2491C34.1533 26.3835 34.2207 26.5403 34.3556 26.6075L35.5473 27.145C35.6822 27.2122 35.8396 27.145 35.9071 27.0106C35.9745 26.8762 35.9071 26.7194 35.7722 26.6523L34.5805 26.1147C34.558 26.0923 34.513 26.0923 34.4681 26.0923ZM7.82388 26.6523C7.77891 26.6523 7.71146 26.6523 7.66649 26.697L4.99083 28.2424C4.85592 28.3096 4.81095 28.4888 4.90089 28.6007C4.96835 28.7351 5.14822 28.7799 5.26065 28.6903L7.93631 27.145C8.07121 27.0778 8.11618 26.8986 8.02624 26.7866C7.98128 26.7194 7.91382 26.6746 7.82388 26.6523ZM32.1746 26.6523C32.0847 26.6523 32.0173 26.697 31.9498 26.7866C31.8823 26.921 31.9273 27.0778 32.0397 27.145L34.7154 28.6903C34.8503 28.7575 35.0077 28.7127 35.0752 28.6007C35.1426 28.4664 35.0976 28.3096 34.9852 28.2424L32.3096 26.697C32.2646 26.6746 32.2196 26.6523 32.1746 26.6523ZM7.14935 28.9143C7.10438 28.9143 7.03692 28.9367 6.99196 28.9591L5.93518 29.7206C5.82276 29.8101 5.77779 29.9669 5.86773 30.1013C5.95767 30.2133 6.11506 30.2581 6.24997 30.1685L7.30674 29.407C7.41916 29.3174 7.46413 29.1607 7.37419 29.0263C7.32922 28.9591 7.23928 28.9143 7.14935 28.9143ZM32.8267 28.9367C32.7368 28.9367 32.6468 28.9815 32.6019 29.0487C32.5119 29.1607 32.5344 29.3398 32.6693 29.4294L33.7261 30.1909C33.8385 30.2805 34.0184 30.2581 34.1083 30.1237C34.1983 30.0117 34.1758 29.8325 34.0409 29.743L32.9841 28.9815C32.9391 28.9591 32.8717 28.9367 32.8267 28.9367ZM9.53271 29.0263C9.46526 29.0263 9.3978 29.0487 9.33035 29.0935L7.03692 31.1539C6.9245 31.2435 6.9245 31.4227 7.01444 31.5347C7.10438 31.6467 7.28425 31.6467 7.39668 31.5571L9.6901 29.4966C9.80252 29.407 9.80252 29.2278 9.71259 29.1159C9.66762 29.0487 9.60016 29.0263 9.53271 29.0263ZM30.4433 29.0263C30.3759 29.0263 30.3084 29.0487 30.2635 29.1159C30.1735 29.2278 30.1735 29.3846 30.2859 29.4966L32.5794 31.5571C32.6918 31.6467 32.8492 31.6467 32.9616 31.5347C33.0515 31.4227 33.0515 31.2659 32.9391 31.1539L30.6457 29.0935C30.5782 29.0487 30.5108 29.0263 30.4433 29.0263ZM11.7137 30.9972C11.6238 30.9972 11.5338 31.0419 11.4889 31.1091L9.66762 33.5951C9.57768 33.7071 9.60016 33.8863 9.73507 33.9759C9.84749 34.0655 10.0274 34.0431 10.1173 33.9087L11.9386 31.4227C12.0285 31.3107 12.006 31.1315 11.8711 31.042C11.8261 31.0196 11.7812 30.9972 11.7137 30.9972ZM28.2623 30.9972C28.2174 30.9972 28.1499 31.0196 28.1049 31.042C27.9925 31.1315 27.9475 31.2883 28.0375 31.4227L29.8587 33.9087C29.9487 34.0207 30.1061 34.0655 30.241 33.9759C30.3534 33.8863 30.3984 33.7295 30.3084 33.5951L28.4872 31.1091C28.4197 31.0419 28.3298 30.9972 28.2623 30.9972ZM9.37532 31.3779C9.30786 31.3779 9.24041 31.4003 9.19544 31.4675L8.31854 32.4305C8.22861 32.5425 8.2286 32.6993 8.34103 32.8113C8.45345 32.9009 8.61084 32.9009 8.72327 32.7889L9.60016 31.8258C9.6901 31.7138 9.6901 31.5571 9.57768 31.4451C9.51022 31.4003 9.44277 31.3779 9.37532 31.3779ZM30.6232 31.3779C30.5558 31.3779 30.4883 31.4003 30.4209 31.4451C30.3084 31.5347 30.3084 31.7138 30.3984 31.8258L31.2753 32.7889C31.3652 32.9009 31.5451 32.9009 31.6575 32.8113C31.7699 32.7217 31.7699 32.5425 31.68 32.4305L30.8031 31.4675C30.7581 31.4227 30.6907 31.4003 30.6232 31.3779ZM14.2545 32.4529C14.142 32.4529 14.0521 32.5201 14.0071 32.6097L12.748 35.4316C12.6805 35.566 12.748 35.7228 12.8829 35.79C13.0178 35.8572 13.1752 35.79 13.2427 35.6556L14.5018 32.8337C14.5692 32.6993 14.5018 32.5425 14.3669 32.4753C14.3444 32.4753 14.2994 32.4529 14.2545 32.4529ZM25.6991 32.4753C25.6541 32.4753 25.6316 32.4753 25.5867 32.4977C25.4518 32.5649 25.3843 32.7217 25.4518 32.8561L26.7109 35.678C26.7784 35.8124 26.9357 35.8796 27.0707 35.8124C27.2056 35.7452 27.273 35.5884 27.2056 35.454L25.9464 32.6321C25.9015 32.5201 25.8115 32.4529 25.6991 32.4753ZM12.051 33.3264C11.961 33.3264 11.8936 33.3712 11.8486 33.4608L11.1966 34.5806C11.1291 34.715 11.1741 34.8717 11.2865 34.9389C11.4214 35.0061 11.5788 34.9613 11.6463 34.8493L12.2983 33.7295C12.3658 33.5951 12.3208 33.4384 12.2084 33.3712C12.1634 33.3264 12.0959 33.3264 12.051 33.3264ZM27.9475 33.3264C27.9026 33.3264 27.8351 33.3264 27.7902 33.3712C27.6553 33.4384 27.6103 33.6175 27.7002 33.7295L28.3523 34.8493C28.4197 34.9837 28.5996 35.0285 28.712 34.9389C28.8469 34.8717 28.8919 34.6926 28.802 34.5806L28.1499 33.4608C28.1049 33.3712 28.015 33.3264 27.9475 33.3264ZM17.065 33.3712C16.9301 33.3712 16.8177 33.4608 16.7952 33.5727L16.1432 36.5963C16.1207 36.7306 16.2106 36.8874 16.3455 36.9098C16.4804 36.9322 16.6378 36.8426 16.6603 36.7082L17.3124 33.6847C17.3348 33.5503 17.2449 33.3936 17.11 33.3712C17.11 33.3712 17.0875 33.3712 17.065 33.3712ZM22.911 33.3712C22.8885 33.3712 22.866 33.3712 22.866 33.3712C22.7311 33.3936 22.6187 33.5503 22.6637 33.6847L23.3157 36.7082C23.3382 36.8426 23.4956 36.9546 23.6305 36.9098C23.7654 36.8874 23.8778 36.7306 23.8329 36.5963L23.1808 33.5727C23.1359 33.4608 23.0234 33.3712 22.911 33.3712ZM19.988 33.6623C19.8306 33.6623 19.7182 33.7743 19.7182 33.9311V37.0218C19.7182 37.1786 19.8306 37.2906 19.988 37.2906C20.1454 37.2906 20.2578 37.1786 20.2578 37.0218V33.9311C20.2578 33.7967 20.1454 33.6623 19.988 33.6623ZM15.0639 34.6702C14.9515 34.6702 14.8615 34.7374 14.8391 34.8493L14.4343 36.0811C14.3894 36.2155 14.4568 36.3723 14.6142 36.4171C14.7491 36.4619 14.9065 36.3947 14.9515 36.2379L15.3562 35.0061C15.4012 34.8717 15.3337 34.715 15.1763 34.6702C15.1314 34.6702 15.1089 34.6702 15.0639 34.6702ZM24.9121 34.6702C24.8672 34.6702 24.8447 34.6702 24.7997 34.6926C24.6648 34.7374 24.5749 34.8941 24.6198 35.0285L25.0246 36.2603C25.0695 36.3947 25.2269 36.4843 25.3618 36.4395C25.4967 36.3947 25.5867 36.2379 25.5417 36.1035L25.137 34.8717C25.1145 34.7374 25.0246 34.6702 24.9121 34.6702ZM18.3017 35.3645C18.1668 35.3869 18.0768 35.4764 18.0544 35.6108L17.9194 36.9098C17.897 37.0666 18.0094 37.1786 18.1668 37.201C18.3242 37.2234 18.4366 37.1114 18.4591 36.9546L18.594 35.6556C18.6165 35.4988 18.504 35.3869 18.3466 35.3645C18.3466 35.3645 18.3242 35.3645 18.3017 35.3645ZM21.6744 35.3645C21.6519 35.3645 21.6294 35.3645 21.6294 35.3645C21.472 35.3869 21.3821 35.5212 21.3821 35.6556L21.517 36.9546C21.5395 37.1114 21.6744 37.201 21.8093 37.201C21.9667 37.1786 22.0566 37.0442 22.0566 36.9098L21.9217 35.6108C21.8992 35.4764 21.7868 35.3645 21.6744 35.3645Z" fill="#F4F2F3"/>
<path opacity="0.409" d="M32.5583 9.22656L17.8984 17.7148L8.6123 32.2725L22.193 22.2613L32.5583 9.22656Z" fill="#0E061A"/>
<path d="M22.1021 22.106L17.8975 17.7163L32.8272 7.70508L22.1021 22.106Z" fill="#FF5150"/>
<path d="M22.1016 22.1045L17.897 17.7148L7.17188 32.0933L22.1016 22.1045Z" fill="#F1F1F1"/>
<path opacity="0.243" d="M7.17212 32.1171L22.1019 22.1059L32.827 7.72742L7.17212 32.1171Z" fill="#0E061A"/>
</g>
</g>
<defs>
<linearGradient id="paint0_linear_630_5349" x1="19.9958" y1="39.8038" x2="19.9958" y2="0.0293314" gradientUnits="userSpaceOnUse">
<stop stop-color="#BDBDBD"/>
<stop offset="1" stop-color="white"/>
</linearGradient>
<radialGradient id="paint1_radial_630_5349" cx="0" cy="0" r="1" gradientUnits="userSpaceOnUse" gradientTransform="translate(20.0768 17.2439) scale(19.9649 19.8867)">
<stop stop-color="#06C2E7"/>
<stop offset="0.25" stop-color="#0DB8EC"/>
<stop offset="0.5" stop-color="#12AEF1"/>
<stop offset="0.75" stop-color="#1F86F9"/>
<stop offset="1" stop-color="#107DDD"/>
</radialGradient>
<clipPath id="clip0_630_5349">
<rect width="40" height="40" rx="10" fill="white"/>
</clipPath>
<clipPath id="clip1_630_5349">
<rect width="40" height="40" fill="white"/>
</clipPath>
</defs>
</svg>
