<svg width="40" height="40" viewBox="0 0 40 40" fill="none" xmlns="http://www.w3.org/2000/svg">
<rect width="40" height="40" fill="black"/>
<path d="M20 40C31.0457 40 40 31.0457 40 20C40 8.95431 31.0457 0 20 0C8.9543 0 0 8.95431 0 20C0 31.0457 8.9543 40 20 40Z" fill="black"/>
<path d="M13.5239 9.38515C12.5897 9.35184 11.5627 9.67481 10.1762 10.3345C8.7 10.8137 7.85541 12.1087 9.59069 12.1078L9.54854 13.2473L8.45456 13.6708L8.41379 14.7778C8.41379 14.7778 8.24537 16.0644 9.63417 15.9901C9.45303 16.0335 9.30326 16.1244 9.50635 16.3293C9.88306 16.7092 10.3794 16.5824 12.1792 16.6246C13.979 16.6669 14.1729 18.6868 14.1729 18.6868C14.1729 18.6868 14.5772 21.9956 14.5171 25.2196C12.5672 24.173 10.6203 23.2465 10.0148 23.3801C8.67538 23.6756 7.53115 25.0089 8.67514 26.926C9.7227 28.6814 11.4929 29.931 13.2753 31.0582C12.7432 31.9455 12.0829 32.415 10.746 32.0867C10.0739 31.9217 10.1287 31.5394 8.30953 30.5331C4.96013 29.1732 5.53725 30.1438 6.36006 30.9444C8.08625 32.1867 8.93591 33.3144 10.214 33.8413C11.4704 34.3593 13.1512 34.3037 15.2948 32.4562C15.3302 32.4179 15.3604 32.3793 15.3948 32.341C15.3705 32.3694 15.3505 32.3982 15.3256 32.4267C18.0678 34.148 21.48 34.6814 24.6252 33.9796C24.7793 33.9288 25.2785 33.8633 25.2365 33.8031C25.2623 33.8059 25.284 33.81 25.31 33.813C25.3241 33.7301 28.4496 34.1514 30.7549 33.2087C32.9886 32.2954 34.4464 30.5852 34.7553 28.81C36.0248 21.5144 28.8351 20.9352 27.8929 20.6391C27.1739 20.4425 26.4545 20.2459 25.7356 20.0492C25.3275 19.02 24.7829 18.0125 24.086 16.911C23.6439 16.212 23.1207 15.6442 22.5529 15.1816C22.5537 15.1823 22.5583 15.1844 22.5583 15.1858C22.5583 15.1858 22.7695 14.5124 23.5737 13.8144C23.7361 13.6838 26.4423 11.598 31.3637 13.71L31.7108 17.0924L33.9466 16.9765L33.6767 12.3883C32.8864 11.4541 26.1759 8.64547 21.3302 12.3744C20.6187 12.9958 20.1726 13.861 20.1726 13.861C20.1781 13.8624 20.1837 13.8666 20.1891 13.8694C19.3723 13.5755 18.5585 13.4132 17.819 13.3263C17.8185 13.3235 17.8181 13.3207 17.8176 13.3179C17.8176 13.3179 16.877 10.7057 15.1633 9.83466C14.612 9.55439 14.0844 9.40512 13.5239 9.38515ZM18.4983 17.2001C18.5052 17.2029 18.5121 17.2071 18.519 17.2099C18.5121 17.2093 18.5052 17.2071 18.499 17.2071C18.4989 17.2043 18.4984 17.2029 18.4983 17.2001ZM18.294 21.8113C19.0211 23.043 19.5518 24.1462 19.7829 25.5121C19.6692 26.3415 19.4973 27.1625 19.2488 27.9365C19.2488 27.9365 18.6283 27.5575 17.7378 27.0333C17.9035 26.0046 18.0125 24.8958 18.1477 23.648C18.1916 23.054 18.2429 22.4278 18.294 21.8113ZM26.3797 22.2492C26.3851 22.2775 26.3921 22.3053 26.3974 22.3336C26.4276 22.4915 26.4524 22.6549 26.4802 22.8133C27.2586 23.0341 28.0404 23.25 28.8188 23.4709C28.8188 23.4709 32.6695 24.2277 32.0822 28.1447C31.5294 31.8326 26.0122 31.5416 26.0317 31.4184C26.6924 27.2545 26.8227 24.5368 26.3797 22.2492Z" fill="white"/>
</svg>
